LXGWWenKaiMonoLite-Light.ufo
<glyph name="quotedbl" format="1">
  <advance width="500" height="500"/>
  <unicode hex="0022"/>
  <outline>
    <contour>
      <point x="324" y="477" type="qcurve" smooth="yes"/>
      <point x="300" y="477"/>
      <point x="300" y="492" type="qcurve" smooth="yes"/>
      <point x="294" y="703" type="line" smooth="yes"/>
      <point x="294" y="723"/>
      <point x="324" y="723" type="qcurve" smooth="yes"/>
      <point x="354" y="723"/>
      <point x="354" y="703" type="qcurve" smooth="yes"/>
      <point x="348" y="492" type="line" smooth="yes"/>
      <point x="348" y="477"/>
    </contour>
    <contour>
      <point x="176" y="477" type="qcurve" smooth="yes"/>
      <point x="152" y="477"/>
      <point x="152" y="492" type="qcurve" smooth="yes"/>
      <point x="146" y="703" type="line" smooth="yes"/>
      <point x="146" y="723"/>
      <point x="176" y="723" type="qcurve" smooth="yes"/>
      <point x="206" y="723"/>
      <point x="206" y="703" type="qcurve" smooth="yes"/>
      <point x="200" y="492" type="line" smooth="yes"/>
      <point x="200" y="477"/>
    </contour>
  </outline>
</glyph>
<glyph name="quotesingle" format="1">
  <advance width="500" height="500"/>
  <unicode hex="0027"/>
  <outline>
    <contour>
      <point x="250" y="477" type="qcurve" smooth="yes"/>
      <point x="226" y="477"/>
      <point x="226" y="492" type="qcurve" smooth="yes"/>
      <point x="220" y="703" type="line" smooth="yes"/>
      <point x="220" y="723"/>
      <point x="250" y="723" type="qcurve" smooth="yes"/>
      <point x="280" y="723"/>
      <point x="280" y="703" type="qcurve" smooth="yes"/>
      <point x="274" y="492" type="line" smooth="yes"/>
      <point x="274" y="477"/>
    </contour>
  </outline>
</glyph>
<glyph name="parenleft" format="1">
  <advance width="500" height="500"/>
  <unicode hex="0028"/>
  <outline>
    <contour>
      <point x="388" y="-140" type="qcurve" smooth="yes"/>
      <point x="388" y="-157"/>
      <point x="374" y="-157" type="qcurve" smooth="yes"/>
      <point x="366" y="-157"/>
      <point x="341" y="-136" type="qcurve" smooth="yes"/>
      <point x="283" y="-92"/>
      <point x="142" y="141"/>
      <point x="142" y="413"/>
      <point x="262" y="695"/>
      <point x="366" y="784" type="qcurve" smooth="yes"/>
      <point x="372" y="789"/>
      <point x="387" y="789"/>
      <point x="398" y="781"/>
      <point x="398" y="768"/>
      <point x="392" y="761" type="qcurve" smooth="yes"/>
      <point x="298" y="665"/>
      <point x="207" y="389"/>
      <point x="207" y="187"/>
      <point x="297" y="-51"/>
      <point x="379" y="-121" type="qcurve" smooth="yes"/>
      <point x="388" y="-128"/>
    </contour>
  </outline>
</glyph>
<glyph name="colon" format="1">
  <advance width="500" height="500"/>
  <unicode hex="003A"/>
  <outline>
    <contour>
      <point x="256" y="467" type="qcurve" smooth="yes"/>
      <point x="232" y="467"/>
      <point x="195" y="511"/>
      <point x="195" y="534" type="qcurve" smooth="yes"/>
      <point x="195" y="583"/>
      <point x="244" y="587" type="qcurve" smooth="yes"/>
      <point x="266" y="587"/>
      <point x="304" y="541"/>
      <point x="304" y="517" type="qcurve" smooth="yes"/>
      <point x="304" y="467"/>
    </contour>
    <contour>
      <point x="256" y="92" type="qcurve" smooth="yes"/>
      <point x="232" y="92"/>
      <point x="195" y="136"/>
      <point x="195" y="159" type="qcurve" smooth="yes"/>
      <point x="195" y="208"/>
      <point x="244" y="212" type="qcurve" smooth="yes"/>
      <point x="266" y="212"/>
      <point x="304" y="166"/>
      <point x="304" y="142" type="qcurve" smooth="yes"/>
      <point x="304" y="92"/>
    </contour>
  </outline>
</glyph>
<glyph name="y" format="1">
  <advance width="500" height="500"/>
  <unicode hex="0079"/>
  <outline>
    <contour>
      <point x="145" y="-162" type="qcurve" smooth="yes"/>
      <point x="114" y="-162"/>
      <point x="71" y="-153"/>
      <point x="49" y="-134" type="qcurve" smooth="yes"/>
      <point x="44" y="-131"/>
      <point x="44" y="-121" type="qcurve" smooth="yes"/>
      <point x="44" y="-111"/>
      <point x="61" y="-81"/>
      <point x="72" y="-81" type="qcurve" smooth="yes"/>
      <point x="83" y="-81"/>
      <point x="88" y="-89" type="qcurve" smooth="yes"/>
      <point x="105" y="-109"/>
      <point x="138" y="-109" type="qcurve" smooth="yes"/>
      <point x="171" y="-109"/>
      <point x="195" y="-51" type="qcurve" smooth="yes"/>
      <point x="235" y="43" type="line"/>
      <point x="100" y="379" type="line" smooth="yes"/>
      <point x="80" y="427"/>
      <point x="63" y="460" type="qcurve" smooth="yes"/>
      <point x="61" y="465" type="line"/>
      <point x="61" y="480"/>
      <point x="92" y="480" type="qcurve" smooth="yes"/>
      <point x="122" y="480"/>
      <point x="128" y="465" type="qcurve" smooth="yes"/>
      <point x="140" y="430"/>
      <point x="264" y="114" type="qcurve"/>
      <point x="380" y="381" type="line" smooth="yes"/>
      <point x="400" y="425"/>
      <point x="413" y="474" type="qcurve" smooth="yes"/>
      <point x="417" y="484"/>
      <point x="430" y="484" type="qcurve" smooth="yes"/>
      <point x="443" y="484"/>
      <point x="469" y="462"/>
      <point x="469" y="452" type="qcurve" smooth="yes"/>
      <point x="469" y="443"/>
      <point x="462" y="428"/>
      <point x="441" y="386"/>
      <point x="241" y="-80" type="qcurve" smooth="yes"/>
      <point x="206" y="-162"/>
    </contour>
  </outline>
</glyph>
<glyph name="section" format="1">
  <advance width="500" height="500"/>
  <unicode hex="00A7"/>
  <outline>
    <contour>
      <point x="360" y="257" type="qcurve"/>
      <point x="428" y="292"/>
      <point x="428" y="368" type="qcurve" smooth="yes"/>
      <point x="428" y="427"/>
      <point x="360" y="483"/>
      <point x="286" y="499" type="qcurve" smooth="yes"/>
      <point x="249" y="507"/>
      <point x="245" y="507" type="qcurve" smooth="yes"/>
      <point x="134" y="507"/>
      <point x="99" y="456" type="qcurve" smooth="yes"/>
      <point x="83" y="433"/>
      <point x="83" y="405" type="qcurve" smooth="yes"/>
      <point x="83" y="381"/>
      <point x="100" y="343"/>
      <point x="148" y="314"/>
      <point x="196" y="303" type="qcurve" smooth="yes"/>
      <point x="288" y="282" type="line" smooth="yes"/>
      <point x="328" y="275"/>
    </contour>
    <contour>
      <point x="244" y="-72" type="qcurve" smooth="yes"/>
      <point x="170" y="-72"/>
      <point x="61" y="-22"/>
      <point x="17" y="29" type="qcurve" smooth="yes"/>
      <point x="13" y="35"/>
      <point x="13" y="42" type="qcurve" smooth="yes"/>
      <point x="13" y="57"/>
      <point x="32" y="85"/>
      <point x="40" y="85" type="qcurve" smooth="yes"/>
      <point x="43" y="85"/>
      <point x="46" y="81" type="qcurve" smooth="yes"/>
      <point x="57" y="59"/>
      <point x="106" y="20" type="qcurve" smooth="yes"/>
      <point x="160" y="-23"/>
      <point x="244" y="-23" type="qcurve" smooth="yes"/>
      <point x="321" y="-23"/>
      <point x="410" y="45"/>
      <point x="410" y="101" type="qcurve" smooth="yes"/>
      <point x="410" y="157"/>
      <point x="340" y="219"/>
      <point x="268" y="235" type="qcurve" smooth="yes"/>
      <point x="175" y="257" type="line" smooth="yes"/>
      <point x="94" y="277"/>
      <point x="29" y="353"/>
      <point x="29" y="403" type="qcurve" smooth="yes"/>
      <point x="29" y="444"/>
      <point x="79" y="511"/>
      <point x="143" y="535" type="qcurve"/>
      <point x="82" y="563"/>
      <point x="46" y="622"/>
      <point x="46" y="661" type="qcurve" smooth="yes"/>
      <point x="46" y="697"/>
      <point x="94" y="764"/>
      <point x="186" y="807"/>
      <point x="246" y="807" type="qcurve" smooth="yes"/>
      <point x="366" y="807"/>
      <point x="438" y="742" type="qcurve" smooth="yes"/>
      <point x="444" y="735"/>
      <point x="444" y="723" type="qcurve" smooth="yes"/>
      <point x="444" y="709"/>
      <point x="430" y="683"/>
      <point x="424" y="683" type="qcurve" smooth="yes"/>
      <point x="421" y="683"/>
      <point x="418" y="687" type="qcurve" smooth="yes"/>
      <point x="399" y="716"/>
      <point x="332" y="747" type="qcurve" smooth="yes"/>
      <point x="298" y="759"/>
      <point x="245" y="759" type="qcurve" smooth="yes"/>
      <point x="174" y="759"/>
      <point x="100" y="700"/>
      <point x="100" y="663" type="qcurve" smooth="yes"/>
      <point x="100" y="639"/>
      <point x="118" y="604"/>
      <point x="166" y="578"/>
      <point x="260" y="557"/>
      <point x="306" y="546" type="qcurve" smooth="yes"/>
      <point x="393" y="527"/>
      <point x="482" y="440"/>
      <point x="482" y="369" type="qcurve" smooth="yes"/>
      <point x="482" y="289"/>
      <point x="406" y="231" type="qcurve"/>
      <point x="464" y="177"/>
      <point x="464" y="102" type="qcurve" smooth="yes"/>
      <point x="464" y="1"/>
      <point x="362" y="-50" type="qcurve" smooth="yes"/>
      <point x="313" y="-72"/>
    </contour>
  </outline>
</glyph>
<glyph name="dieresis" format="1">
  <advance width="1000" height="1000"/>
  <unicode hex="00A8"/>
  <outline>
    <contour>
      <point x="591" y="745" type="qcurve" smooth="yes"/>
      <point x="572" y="745"/>
      <point x="542" y="781"/>
      <point x="542" y="799" type="qcurve" smooth="yes"/>
      <point x="542" y="837"/>
      <point x="581" y="840" type="qcurve" smooth="yes"/>
      <point x="598" y="840"/>
      <point x="629" y="805"/>
      <point x="629" y="785" type="qcurve" smooth="yes"/>
      <point x="629" y="749"/>
    </contour>
    <contour>
      <point x="418" y="745" type="qcurve" smooth="yes"/>
      <point x="399" y="745"/>
      <point x="369" y="781"/>
      <point x="369" y="799" type="qcurve" smooth="yes"/>
      <point x="369" y="837"/>
      <point x="408" y="840" type="qcurve" smooth="yes"/>
      <point x="425" y="840"/>
      <point x="456" y="805"/>
      <point x="456" y="785" type="qcurve" smooth="yes"/>
      <point x="456" y="749"/>
    </contour>
  </outline>
</glyph>
<glyph name="uni00AD" format="1">
  <advance width="500" height="500"/>
  <unicode hex="00AD"/>
  <outline>
    <contour>
      <point x="500" y="355" type="qcurve" smooth="yes"/>
      <point x="0" y="355" type="line" smooth="yes"/>
      <point x="-7" y="355"/>
      <point x="-15" y="371"/>
      <point x="-15" y="390"/>
      <point x="-7" y="406"/>
      <point x="0" y="406" type="qcurve" smooth="yes"/>
      <point x="500" y="406" type="line" smooth="yes"/>
      <point x="515" y="406"/>
      <point x="515" y="355"/>
    </contour>
  </outline>
</glyph>
<glyph name="registered" format="1">
  <advance width="1000" height="1000"/>
  <unicode hex="00AE"/>
  <outline>
    <contour>
      <point x="425" y="367" type="line"/>
      <point x="430" y="372"/>
      <point x="446" y="371"/>
      <point x="466" y="371" type="qcurve" smooth="yes"/>
      <point x="559" y="371"/>
      <point x="593" y="419" type="qcurve" smooth="yes"/>
      <point x="607" y="439"/>
      <point x="607" y="456" type="qcurve" smooth="yes"/>
      <point x="607" y="487"/>
      <point x="555" y="520"/>
      <point x="459" y="520"/>
      <point x="425" y="509" type="qcurve"/>
    </contour>
    <contour>
      <point x="426" y="133" type="line" smooth="yes"/>
      <point x="426" y="124"/>
      <point x="398" y="124"/>
      <point x="375" y="134"/>
      <point x="375" y="144" type="qcurve" smooth="yes"/>
      <point x="376" y="169" type="line"/>
      <point x="376" y="497" type="line"/>
      <point x="367" y="501"/>
      <point x="355" y="524"/>
      <point x="355" y="545"/>
      <point x="363" y="546" type="qcurve" smooth="yes"/>
      <point x="382" y="548"/>
      <point x="425" y="557" type="qcurve" smooth="yes"/>
      <point x="455" y="565"/>
      <point x="568" y="565"/>
      <point x="598" y="549" type="qcurve" smooth="yes"/>
      <point x="656" y="518"/>
      <point x="656" y="458" type="qcurve" smooth="yes"/>
      <point x="656" y="425"/>
      <point x="634" y="392" type="qcurve" smooth="yes"/>
      <point x="600" y="340"/>
      <point x="491" y="332" type="qcurve"/>
      <point x="520" y="304"/>
      <point x="589" y="216"/>
      <point x="658" y="159"/>
      <point x="672" y="154" type="qcurve" smooth="yes"/>
      <point x="701" y="143"/>
      <point x="701" y="122"/>
      <point x="671" y="121" type="qcurve"/>
      <point x="665" y="122" type="line"/>
      <point x="656" y="122" type="line"/>
      <point x="599" y="126"/>
      <point x="493" y="263" type="qcurve" smooth="yes"/>
      <point x="448" y="317"/>
      <point x="425" y="325" type="qcurve"/>
      <point x="425" y="184"/>
      <point x="426" y="164" type="qcurve" smooth="yes"/>
    </contour>
    <contour>
      <point x="208" y="458"/>
      <point x="208" y="215"/>
      <point x="381" y="42"/>
      <point x="624" y="42"/>
      <point x="796" y="215"/>
      <point x="796" y="458"/>
      <point x="624" y="630"/>
      <point x="381" y="630"/>
    </contour>
    <contour>
      <point x="162" y="197"/>
      <point x="162" y="476"/>
      <point x="362" y="675"/>
      <point x="641" y="675"/>
      <point x="841" y="476"/>
      <point x="841" y="197"/>
      <point x="741" y="97" type="qcurve" smooth="yes"/>
      <point x="639" y="-3"/>
      <point x="362" y="-3"/>
    </contour>
  </outline>
</glyph>
<glyph name="plusminus" format="1">
  <advance width="1000" height="1000"/>
  <unicode hex="00B1"/>
  <outline>
    <contour>
      <point x="527" y="683" type="qcurve" smooth="yes"/>
      <point x="524" y="644"/>
      <point x="524" y="483" type="qcurve"/>
      <point x="753" y="486"/>
      <point x="777" y="488" type="qcurve" smooth="yes"/>
      <point x="812" y="489" type="line" smooth="yes"/>
      <point x="821" y="489"/>
      <point x="832" y="469"/>
      <point x="832" y="458" type="qcurve" smooth="yes"/>
      <point x="832" y="437"/>
      <point x="817" y="437" type="qcurve" smooth="yes"/>
      <point x="770" y="438" type="line"/>
      <point x="524" y="435" type="line"/>
      <point x="524" y="290"/>
      <point x="525" y="266" type="qcurve" smooth="yes"/>
      <point x="525" y="220" type="line" smooth="yes"/>
      <point x="525" y="213"/>
      <point x="512" y="205"/>
      <point x="493" y="205"/>
      <point x="473" y="216"/>
      <point x="473" y="226" type="qcurve" smooth="yes"/>
      <point x="476" y="259"/>
      <point x="476" y="434" type="qcurve"/>
      <point x="267" y="432" type="line" smooth="yes"/>
      <point x="204" y="432"/>
      <point x="186" y="429" type="qcurve" smooth="yes"/>
      <point x="176" y="429"/>
      <point x="166" y="450"/>
      <point x="166" y="461" type="qcurve" smooth="yes"/>
      <point x="166" y="482"/>
      <point x="181" y="482" type="qcurve" smooth="yes"/>
      <point x="221" y="480"/>
      <point x="268" y="480" type="qcurve" smooth="yes"/>
      <point x="476" y="483" type="line"/>
      <point x="476" y="601" type="line" smooth="yes"/>
      <point x="476" y="648"/>
      <point x="474" y="688" type="qcurve" smooth="yes"/>
      <point x="474" y="703"/>
      <point x="490" y="703" type="qcurve" smooth="yes"/>
      <point x="527" y="703"/>
    </contour>
    <contour>
      <point x="501" y="63" type="line" smooth="yes"/>
      <point x="205" y="59"/>
      <point x="176" y="57"/>
      <point x="166" y="78"/>
      <point x="166" y="89" type="qcurve" smooth="yes"/>
      <point x="166" y="110"/>
      <point x="181" y="110" type="qcurve" smooth="yes"/>
      <point x="221" y="108"/>
      <point x="268" y="108" type="qcurve" smooth="yes"/>
      <point x="753" y="114"/>
      <point x="777" y="116" type="qcurve" smooth="yes"/>
      <point x="812" y="117" type="line" smooth="yes"/>
      <point x="821" y="117"/>
      <point x="832" y="97"/>
      <point x="832" y="86" type="qcurve" smooth="yes"/>
      <point x="832" y="65"/>
      <point x="817" y="65" type="qcurve" smooth="yes"/>
      <point x="770" y="66" type="line"/>
    </contour>
  </outline>
</glyph>
<glyph name="paragraph" format="1">
  <advance width="1000" height="1000"/>
  <unicode hex="00B6"/>
  <outline>
    <contour>
      <point x="459" y="-40" type="qcurve" smooth="yes"/>
      <point x="459" y="-55"/>
      <point x="442" y="-55" type="qcurve" smooth="yes"/>
      <point x="404" y="-55"/>
      <point x="404" y="-34" type="qcurve" smooth="yes"/>
      <point x="406" y="-12"/>
      <point x="407" y="40"/>
      <point x="407" y="390" type="qcurve"/>
      <point x="385" y="385"/>
      <point x="320" y="385"/>
      <point x="242" y="420"/>
      <point x="194" y="492"/>
      <point x="194" y="609"/>
      <point x="224" y="657" type="qcurve" smooth="yes"/>
      <point x="287" y="755"/>
      <point x="406" y="762" type="qcurve" smooth="yes"/>
      <point x="616" y="772" type="line" smooth="yes"/>
      <point x="642" y="772"/>
      <point x="666" y="744"/>
      <point x="666" y="726" type="qcurve" smooth="yes"/>
      <point x="666" y="64" type="line" smooth="yes"/>
      <point x="666" y="-5"/>
      <point x="667" y="-29" type="qcurve" smooth="yes"/>
      <point x="667" y="-44"/>
      <point x="650" y="-44" type="qcurve" smooth="yes"/>
      <point x="612" y="-44"/>
      <point x="612" y="-23" type="qcurve" smooth="yes"/>
      <point x="614" y="-1"/>
      <point x="615" y="51"/>
      <point x="615" y="724" type="qcurve"/>
      <point x="458" y="717" type="line"/>
      <point x="458" y="53" type="line" smooth="yes"/>
      <point x="458" y="-17"/>
    </contour>
  </outline>
</glyph>
<glyph name="onehalf" format="1">
  <advance width="1000" height="1000"/>
  <unicode hex="00BD"/>
  <outline>
    <contour>
      <point x="808" y="-58" type="qcurve" smooth="yes"/>
      <point x="727" y="-58" type="line" smooth="yes"/>
      <point x="673" y="-58"/>
      <point x="636" y="-65" type="qcurve"/>
      <point x="633" y="-65" type="line" smooth="yes"/>
      <point x="620" y="-65"/>
      <point x="600" y="-39"/>
      <point x="600" y="-21"/>
      <point x="607" y="-11"/>
      <point x="615" y="-3"/>
      <point x="619" y="1" type="qcurve" smooth="yes"/>
      <point x="638" y="30"/>
      <point x="717" y="114"/>
      <point x="812" y="185"/>
      <point x="864" y="233"/>
      <point x="864" y="290"/>
      <point x="822" y="324"/>
      <point x="781" y="324" type="qcurve" smooth="yes"/>
      <point x="704" y="324"/>
      <point x="676" y="268" type="qcurve" smooth="yes"/>
      <point x="672" y="261"/>
      <point x="663" y="247"/>
      <point x="648" y="247"/>
      <point x="626" y="267"/>
      <point x="626" y="285"/>
      <point x="644" y="314"/>
      <point x="663" y="330" type="qcurve" smooth="yes"/>
      <point x="708" y="370"/>
      <point x="849" y="370"/>
      <point x="915" y="311"/>
      <point x="915" y="222"/>
      <point x="856" y="155"/>
      <point x="808" y="120" type="qcurve" smooth="yes"/>
      <point x="724" y="59"/>
      <point x="669" y="-14" type="qcurve"/>
      <point x="711" y="-12"/>
      <point x="759" y="-12" type="qcurve" smooth="yes"/>
      <point x="854" y="-13" type="line"/>
      <point x="896" y="-12" type="line" smooth="yes"/>
      <point x="907" y="-12"/>
      <point x="922" y="-36"/>
      <point x="922" y="-47" type="qcurve" smooth="yes"/>
      <point x="922" y="-63"/>
      <point x="908" y="-63" type="qcurve" smooth="yes"/>
      <point x="902" y="-63"/>
      <point x="886" y="-62" type="qcurve" smooth="yes"/>
      <point x="850" y="-58"/>
    </contour>
    <contour>
      <point x="177" y="11" type="line" smooth="yes"/>
      <point x="147" y="-19"/>
      <point x="94" y="-80" type="qcurve" smooth="yes"/>
      <point x="88" y="-86"/>
      <point x="73" y="-86"/>
      <point x="58" y="-60"/>
      <point x="58" y="-36"/>
      <point x="63" y="-32" type="qcurve" smooth="yes"/>
      <point x="102" y="1"/>
      <point x="145" y="44" type="qcurve" smooth="yes"/>
      <point x="836" y="739" type="line" smooth="yes"/>
      <point x="855" y="759"/>
      <point x="900" y="806"/>
      <point x="919" y="830" type="qcurve" smooth="yes"/>
      <point x="925" y="837"/>
      <point x="940" y="837"/>
      <point x="955" y="810"/>
      <point x="955" y="786"/>
      <point x="950" y="782" type="qcurve" smooth="yes"/>
      <point x="932" y="765"/>
      <point x="888" y="727"/>
      <point x="868" y="706" type="qcurve" smooth="yes"/>
    </contour>
    <contour>
      <point x="276" y="448" type="line" smooth="yes"/>
      <point x="276" y="402"/>
      <point x="278" y="358" type="qcurve" smooth="yes"/>
      <point x="278" y="356" type="line" smooth="yes"/>
      <point x="278" y="344"/>
      <point x="250" y="344"/>
      <point x="224" y="360"/>
      <point x="224" y="372" type="qcurve" smooth="yes"/>
      <point x="224" y="373" type="line"/>
      <point x="226" y="443" type="line"/>
      <point x="226" y="703" type="line"/>
      <point x="196" y="684"/>
      <point x="165" y="676" type="qcurve" smooth="yes"/>
      <point x="163" y="675"/>
      <point x="147" y="675"/>
      <point x="126" y="687"/>
      <point x="126" y="698"/>
      <point x="142" y="704" type="qcurve" smooth="yes"/>
      <point x="161" y="712"/>
      <point x="213" y="749" type="qcurve" smooth="yes"/>
      <point x="218" y="753"/>
      <point x="239" y="779"/>
      <point x="248" y="779" type="qcurve" smooth="yes"/>
      <point x="257" y="779"/>
      <point x="280" y="761"/>
      <point x="280" y="750" type="qcurve" smooth="yes"/>
      <point x="276" y="693" type="line"/>
    </contour>
  </outline>
</glyph>
<glyph name="divide" format="1">
  <advance width="1000" height="1000"/>
  <unicode hex="00F7"/>
  <outline>
    <contour>
      <point x="506" y="540" type="qcurve" smooth="yes"/>
      <point x="487" y="540"/>
      <point x="457" y="576"/>
      <point x="457" y="594" type="qcurve" smooth="yes"/>
      <point x="457" y="636"/>
      <point x="496" y="636" type="qcurve" smooth="yes"/>
      <point x="513" y="636"/>
      <point x="544" y="600"/>
      <point x="544" y="580" type="qcurve" smooth="yes"/>
      <point x="544" y="540"/>
    </contour>
    <contour>
      <point x="506" y="72" type="qcurve" smooth="yes"/>
      <point x="487" y="72"/>
      <point x="457" y="108"/>
      <point x="457" y="126" type="qcurve" smooth="yes"/>
      <point x="457" y="168"/>
      <point x="496" y="168" type="qcurve" smooth="yes"/>
      <point x="513" y="168"/>
      <point x="544" y="132"/>
      <point x="544" y="112" type="qcurve" smooth="yes"/>
      <point x="544" y="72"/>
    </contour>
    <contour>
      <point x="501" y="332" type="line" smooth="yes"/>
      <point x="205" y="328"/>
      <point x="176" y="326"/>
      <point x="166" y="347"/>
      <point x="166" y="358" type="qcurve" smooth="yes"/>
      <point x="166" y="379"/>
      <point x="181" y="379" type="qcurve" smooth="yes"/>
      <point x="221" y="377"/>
      <point x="268" y="377" type="qcurve" smooth="yes"/>
      <point x="753" y="383"/>
      <point x="777" y="385" type="qcurve" smooth="yes"/>
      <point x="812" y="386" type="line" smooth="yes"/>
      <point x="821" y="386"/>
      <point x="832" y="366"/>
      <point x="832" y="355" type="qcurve" smooth="yes"/>
      <point x="832" y="334"/>
      <point x="817" y="334" type="qcurve" smooth="yes"/>
      <point x="770" y="335" type="line"/>
    </contour>
  </outline>
</glyph>
<glyph name="dcroat" format="1">
  <advance width="500" height="500"/>
  <unicode hex="0111"/>
  <outline>
    <contour>
      <point x="181" y="37" type="qcurve" smooth="yes"/>
      <point x="245" y="37"/>
      <point x="365" y="181"/>
      <point x="365" y="276" type="qcurve" smooth="yes"/>
      <point x="365" y="388" type="line"/>
      <point x="359" y="382"/>
      <point x="355" y="382" type="qcurve" smooth="yes"/>
      <point x="349" y="382"/>
      <point x="347" y="386" type="qcurve" smooth="yes"/>
      <point x="316" y="433"/>
      <point x="258" y="433" type="qcurve" smooth="yes"/>
      <point x="231" y="433"/>
      <point x="171" y="392"/>
      <point x="148" y="356" type="qcurve" smooth="yes"/>
      <point x="98" y="279"/>
      <point x="98" y="196" type="qcurve" smooth="yes"/>
      <point x="98" y="113"/>
      <point x="147" y="37"/>
    </contour>
    <contour>
      <point x="175" y="-13" type="qcurve" smooth="yes"/>
      <point x="115" y="-13"/>
      <point x="35" y="91"/>
      <point x="35" y="186" type="qcurve" smooth="yes"/>
      <point x="35" y="301"/>
      <point x="169" y="481"/>
      <point x="257" y="481" type="qcurve" smooth="yes"/>
      <point x="324" y="481"/>
      <point x="360" y="427" type="qcurve"/>
      <point x="360" y="542" type="line"/>
      <point x="270" y="536" type="line" smooth="yes"/>
      <point x="258" y="536"/>
      <point x="244" y="562"/>
      <point x="244" y="572" type="qcurve" smooth="yes"/>
      <point x="244" y="582"/>
      <point x="252" y="582" type="qcurve" smooth="yes"/>
      <point x="328" y="582" type="line" smooth="yes"/>
      <point x="344" y="584"/>
      <point x="360" y="584" type="qcurve"/>
      <point x="356" y="699" type="line" smooth="yes"/>
      <point x="356" y="704"/>
      <point x="372" y="704" type="qcurve" smooth="yes"/>
      <point x="387" y="704"/>
      <point x="418" y="690"/>
      <point x="418" y="681" type="qcurve" smooth="yes"/>
      <point x="416" y="634"/>
      <point x="416" y="586" type="qcurve"/>
      <point x="425" y="586"/>
      <point x="480" y="591" type="qcurve" smooth="yes"/>
      <point x="491" y="591"/>
      <point x="507" y="565"/>
      <point x="507" y="555" type="qcurve" smooth="yes"/>
      <point x="507" y="545"/>
      <point x="499" y="545" type="qcurve" smooth="yes"/>
      <point x="440" y="545"/>
      <point x="422" y="544" type="qcurve" smooth="yes"/>
      <point x="416" y="544" type="line"/>
      <point x="416" y="185" type="line" smooth="yes"/>
      <point x="416" y="77"/>
      <point x="448" y="35" type="qcurve"/>
      <point x="448" y="23"/>
      <point x="425" y="-7"/>
      <point x="412" y="-7" type="qcurve" smooth="yes"/>
      <point x="391" y="-7"/>
      <point x="362" y="92"/>
      <point x="362" y="126" type="qcurve"/>
      <point x="327" y="55"/>
      <point x="278" y="19" type="qcurve" smooth="yes"/>
      <point x="235" y="-13"/>
    </contour>
  </outline>
</glyph>
<glyph name="IJ" format="1">
  <advance width="500" height="500"/>
  <unicode hex="0132"/>
  <outline>
    <contour>
      <point x="182" y="247" type="qcurve" smooth="yes"/>
      <point x="167" y="247"/>
      <point x="134" y="261"/>
      <point x="134" y="267" type="qcurve" smooth="yes"/>
      <point x="135" y="350" type="line" smooth="yes"/>
      <point x="135" y="596"/>
      <point x="133" y="697" type="qcurve" smooth="yes"/>
      <point x="133" y="700"/>
      <point x="148" y="700" type="qcurve" smooth="yes"/>
      <point x="164" y="700"/>
      <point x="196" y="687"/>
      <point x="196" y="680" type="qcurve" smooth="yes"/>
      <point x="195" y="596" type="line" smooth="yes"/>
      <point x="195" y="350"/>
      <point x="197" y="250" type="qcurve" smooth="yes"/>
      <point x="197" y="247"/>
    </contour>
    <contour>
      <point x="249" y="-12" type="qcurve" smooth="yes"/>
      <point x="205" y="-12"/>
      <point x="139" y="24"/>
      <point x="98" y="73"/>
      <point x="81" y="116"/>
      <point x="81" y="124" type="qcurve" smooth="yes"/>
      <point x="81" y="132"/>
      <point x="87" y="143" type="qcurve" smooth="yes"/>
      <point x="105" y="168"/>
      <point x="127" y="168" type="qcurve" smooth="yes"/>
      <point x="135" y="168"/>
      <point x="136" y="161" type="qcurve" smooth="yes"/>
      <point x="151" y="86"/>
      <point x="196" y="59" type="qcurve" smooth="yes"/>
      <point x="223" y="44"/>
      <point x="248" y="44" type="qcurve" smooth="yes"/>
      <point x="348" y="44"/>
      <point x="348" y="180" type="qcurve" smooth="yes"/>
      <point x="348" y="589"/>
      <point x="345" y="695" type="qcurve" smooth="yes"/>
      <point x="345" y="700"/>
      <point x="362" y="700" type="qcurve" smooth="yes"/>
      <point x="378" y="700"/>
      <point x="411" y="686"/>
      <point x="411" y="677" type="qcurve" smooth="yes"/>
      <point x="409" y="588" type="line"/>
      <point x="409" y="177" type="line" smooth="yes"/>
      <point x="409" y="-12"/>
    </contour>
  </outline>
</glyph>
<glyph name="uni01C0" format="1">
  <advance width="500" height="500"/>
  <unicode hex="01C0"/>
  <outline>
    <contour>
      <point x="279" y="-11" type="line"/>
      <point x="220" y="-11" type="line"/>
      <point x="220" y="262" type="line"/>
      <point x="279" y="262" type="line"/>
    </contour>
    <contour>
      <point x="279" y="439" type="line"/>
      <point x="220" y="439" type="line"/>
      <point x="220" y="712" type="line"/>
      <point x="279" y="712" type="line"/>
    </contour>
  </outline>
</glyph>
<glyph name="aeacute" format="1">
  <advance width="500" height="500"/>
  <unicode hex="01FD"/>
  <outline>
    <contour>
      <point x="182" y="579" type="qcurve" smooth="yes"/>
      <point x="169" y="579"/>
      <point x="169" y="591" type="qcurve" smooth="yes"/>
      <point x="169" y="601"/>
      <point x="218" y="642" type="qcurve" smooth="yes"/>
      <point x="297" y="708"/>
      <point x="307" y="708" type="qcurve" smooth="yes"/>
      <point x="316" y="708"/>
      <point x="339" y="689"/>
      <point x="358" y="667"/>
      <point x="358" y="659" type="qcurve" smooth="yes"/>
      <point x="358" y="654"/>
      <point x="267" y="619" type="qcurve" smooth="yes"/>
      <point x="223" y="602"/>
      <point x="192" y="582" type="qcurve" smooth="yes"/>
      <point x="187" y="579"/>
    </contour>
    <contour>
      <point x="333" y="-13" type="qcurve" smooth="yes"/>
      <point x="296" y="-13"/>
      <point x="268" y="25" type="qcurve" smooth="yes"/>
      <point x="250" y="49"/>
      <point x="245" y="67" type="qcurve"/>
      <point x="237" y="47"/>
      <point x="214" y="20" type="qcurve" smooth="yes"/>
      <point x="186" y="-13"/>
      <point x="143" y="-13" type="qcurve" smooth="yes"/>
      <point x="100" y="-13"/>
      <point x="55" y="32"/>
      <point x="38" y="94"/>
      <point x="38" y="130" type="qcurve" smooth="yes"/>
      <point x="38" y="166"/>
      <point x="58" y="217"/>
      <point x="89" y="231" type="qcurve" smooth="yes"/>
      <point x="155" y="264"/>
      <point x="228" y="264" type="qcurve"/>
      <point x="227" y="431"/>
      <point x="163" y="431" type="qcurve" smooth="yes"/>
      <point x="146" y="431"/>
      <point x="133" y="420" type="qcurve" smooth="yes"/>
      <point x="106" y="398"/>
      <point x="91" y="349" type="qcurve" smooth="yes"/>
      <point x="89" y="343"/>
      <point x="78" y="343" type="qcurve" smooth="yes"/>
      <point x="66" y="343"/>
      <point x="50" y="376"/>
      <point x="50" y="384" type="qcurve" smooth="yes"/>
      <point x="50" y="406"/>
      <point x="112" y="481"/>
      <point x="164" y="481" type="qcurve" smooth="yes"/>
      <point x="229" y="481"/>
      <point x="254" y="413" type="qcurve" smooth="yes"/>
      <point x="262" y="390"/>
      <point x="270" y="382" type="qcurve"/>
      <point x="312" y="481"/>
      <point x="372" y="481" type="qcurve" smooth="yes"/>
      <point x="411" y="481"/>
      <point x="433" y="457" type="qcurve" smooth="yes"/>
      <point x="467" y="420"/>
      <point x="467" y="340" type="qcurve" smooth="yes"/>
      <point x="467" y="312"/>
      <point x="463" y="292" type="qcurve" smooth="yes"/>
      <point x="453" y="232"/>
      <point x="361" y="210" type="qcurve" smooth="yes"/>
      <point x="329" y="203"/>
      <point x="289" y="203" type="qcurve"/>
      <point x="275" y="205" type="line"/>
      <point x="275" y="143"/>
      <point x="297" y="70"/>
      <point x="324" y="39"/>
      <point x="333" y="39" type="qcurve" smooth="yes"/>
      <point x="400" y="39"/>
      <point x="440" y="119" type="qcurve" smooth="yes"/>
      <point x="446" y="135"/>
      <point x="458" y="135" type="qcurve" smooth="yes"/>
      <point x="468" y="135"/>
      <point x="468" y="130" type="qcurve" smooth="yes"/>
      <point x="468" y="121"/>
      <point x="461" y="101" type="qcurve" smooth="yes"/>
      <point x="421" y="-13"/>
    </contour>
    <contour>
      <point x="140" y="38" type="qcurve" smooth="yes"/>
      <point x="168" y="38"/>
      <point x="220" y="125"/>
      <point x="226" y="222" type="qcurve"/>
      <point x="166" y="216"/>
      <point x="120" y="192" type="qcurve" smooth="yes"/>
      <point x="100" y="182"/>
      <point x="84" y="154"/>
      <point x="84" y="127" type="qcurve" smooth="yes"/>
      <point x="84" y="38"/>
    </contour>
    <contour>
      <point x="278" y="247" type="qcurve"/>
      <point x="339" y="247"/>
      <point x="384" y="272" type="qcurve" smooth="yes"/>
      <point x="407" y="283"/>
      <point x="421" y="314"/>
      <point x="421" y="341" type="qcurve" smooth="yes"/>
      <point x="421" y="388"/>
      <point x="391" y="431"/>
      <point x="374" y="431" type="qcurve" smooth="yes"/>
      <point x="341" y="431"/>
      <point x="286" y="319"/>
    </contour>
  </outline>
</glyph>
<glyph name="uni0235" format="1">
  <advance width="500" height="500"/>
  <unicode hex="0235"/>
  <outline>
    <contour>
      <point x="456" y="-95" type="qcurve"/>
      <point x="466" y="-114"/>
      <point x="497" y="-138"/>
      <point x="522" y="-138"/>
      <point x="542" y="-116"/>
      <point x="542" y="-98" type="qcurve" smooth="yes"/>
      <point x="542" y="-54"/>
      <point x="509" y="-54" type="qcurve" smooth="yes"/>
      <point x="483" y="-54"/>
    </contour>
    <contour>
      <point x="520" y="-191" type="qcurve" smooth="yes"/>
      <point x="464" y="-191"/>
      <point x="430" y="-151" type="qcurve"/>
      <point x="425" y="-166"/>
      <point x="418" y="-191"/>
      <point x="402" y="-191" type="qcurve" smooth="yes"/>
      <point x="369" y="-191"/>
      <point x="369" y="-178" type="qcurve" smooth="yes"/>
      <point x="369" y="-162"/>
      <point x="394" y="-107" type="qcurve"/>
      <point x="378" y="-81"/>
      <point x="376" y="-57" type="qcurve" smooth="yes"/>
      <point x="374" y="-15"/>
      <point x="374" y="12" type="qcurve" smooth="yes"/>
      <point x="376" y="293" type="line" smooth="yes"/>
      <point x="376" y="354"/>
      <point x="346" y="428"/>
      <point x="302" y="428" type="qcurve" smooth="yes"/>
      <point x="233" y="428"/>
      <point x="135" y="311"/>
      <point x="133" y="162" type="qcurve" smooth="yes"/>
      <point x="132" y="129"/>
      <point x="131" y="105" type="qcurve" smooth="yes"/>
      <point x="131" y="89" type="line" smooth="yes"/>
      <point x="131" y="59"/>
      <point x="134" y="-1" type="qcurve" smooth="yes"/>
      <point x="134" y="-6"/>
      <point x="101" y="-6"/>
      <point x="70" y="8"/>
      <point x="70" y="17" type="qcurve" smooth="yes"/>
      <point x="72" y="115" type="line"/>
      <point x="72" y="364" type="line"/>
      <point x="69" y="471" type="line" smooth="yes"/>
      <point x="69" y="476"/>
      <point x="102" y="476"/>
      <point x="133" y="462"/>
      <point x="133" y="453" type="qcurve" smooth="yes"/>
      <point x="133" y="439" type="line" smooth="yes"/>
      <point x="131" y="411"/>
      <point x="131" y="393" type="qcurve" smooth="yes"/>
      <point x="131" y="374" type="line"/>
      <point x="140" y="391" type="line" smooth="yes"/>
      <point x="159" y="423"/>
      <point x="251" y="480"/>
      <point x="299" y="480" type="qcurve" smooth="yes"/>
      <point x="383" y="480"/>
      <point x="414" y="418" type="qcurve" smooth="yes"/>
      <point x="436" y="374"/>
      <point x="436" y="297" type="qcurve" smooth="yes"/>
      <point x="435" y="92" type="line" smooth="yes"/>
      <point x="435" y="29"/>
      <point x="437" y="-26" type="qcurve" smooth="yes"/>
      <point x="437" y="-40" type="line"/>
      <point x="446" y="-29" type="line" smooth="yes"/>
      <point x="465" y="-5"/>
      <point x="552" y="-5"/>
      <point x="603" y="-56"/>
      <point x="603" y="-137"/>
      <point x="552" y="-191"/>
    </contour>
    <contour>
      <point x="133" y="439" type="move" smooth="yes"/>
    </contour>
  </outline>
</glyph>
<glyph name="uni0250" format="1">
  <advance width="500" height="500"/>
  <unicode hex="0250"/>
  <outline>
    <contour>
      <point x="113" y="54" type="qcurve" smooth="yes"/>
      <point x="78" y="107"/>
      <point x="78" y="196" type="qcurve" smooth="yes"/>
      <point x="78" y="273" type="line" smooth="yes"/>
      <point x="78" y="380"/>
      <point x="46" y="437" type="qcurve" smooth="yes"/>
      <point x="45" y="439"/>
      <point x="45" y="447"/>
      <point x="67" y="476"/>
      <point x="84" y="476" type="qcurve" smooth="yes"/>
      <point x="113" y="476"/>
      <point x="123" y="393" type="qcurve" smooth="yes"/>
      <point x="126" y="371" type="line"/>
      <point x="133" y="393" type="line" smooth="yes"/>
      <point x="142" y="423"/>
      <point x="227" y="481"/>
      <point x="357" y="481"/>
      <point x="392" y="459" type="qcurve" smooth="yes"/>
      <point x="459" y="419"/>
      <point x="459" y="337" type="qcurve" smooth="yes"/>
      <point x="459" y="301"/>
      <point x="424" y="249"/>
      <point x="374" y="235" type="qcurve" smooth="yes"/>
      <point x="265" y="204"/>
      <point x="144" y="204" type="qcurve" smooth="yes"/>
      <point x="139" y="204" type="line"/>
      <point x="141" y="83"/>
      <point x="198" y="51" type="qcurve" smooth="yes"/>
      <point x="223" y="37"/>
      <point x="262" y="37" type="qcurve"/>
      <point x="262" y="37" type="line"/>
      <point x="362" y="42"/>
      <point x="427" y="120" type="qcurve" smooth="yes"/>
      <point x="438" y="135"/>
      <point x="458" y="135"/>
      <point x="458" y="130" type="qcurve" smooth="yes"/>
      <point x="458" y="121"/>
      <point x="433" y="78"/>
      <point x="406" y="52" type="qcurve" smooth="yes"/>
      <point x="346" y="-7"/>
      <point x="152" y="-7"/>
    </contour>
    <contour>
      <point x="399" y="341" type="qcurve" smooth="yes"/>
      <point x="399" y="430"/>
      <point x="296" y="430" type="qcurve" smooth="yes"/>
      <point x="242" y="430"/>
      <point x="152" y="342"/>
      <point x="141" y="246" type="qcurve"/>
      <point x="258" y="252"/>
      <point x="337" y="277" type="qcurve" smooth="yes"/>
      <point x="374" y="288"/>
      <point x="399" y="315"/>
    </contour>
  </outline>
</glyph>
<glyph name="uni025A" format="1">
  <advance width="500" height="500"/>
  <unicode hex="025A"/>
  <outline>
    <contour>
      <point x="402" y="38"/>
      <point x="402" y="127"/>
      <point x="418" y="219" type="qcurve"/>
      <point x="412" y="219" type="line"/>
      <point x="382" y="219" type="line"/>
      <point x="370" y="77"/>
      <point x="295" y="18" type="qcurve" smooth="yes"/>
      <point x="254" y="-13"/>
      <point x="196" y="-13" type="qcurve" smooth="yes"/>
      <point x="94" y="-13"/>
      <point x="62" y="62" type="qcurve" smooth="yes"/>
      <point x="48" y="95"/>
      <point x="48" y="167"/>
      <point x="79" y="218"/>
      <point x="124" y="233" type="qcurve" smooth="yes"/>
      <point x="219" y="264"/>
      <point x="325" y="264" type="qcurve" smooth="yes"/>
      <point x="330" y="264" type="line"/>
      <point x="328" y="386"/>
      <point x="279" y="418" type="qcurve" smooth="yes"/>
      <point x="258" y="431"/>
      <point x="227" y="431" type="qcurve" smooth="yes"/>
      <point x="150" y="431"/>
      <point x="111" y="348" type="qcurve" smooth="yes"/>
      <point x="109" y="343"/>
      <point x="90" y="343"/>
      <point x="67" y="375"/>
      <point x="67" y="384" type="qcurve" smooth="yes"/>
      <point x="67" y="408"/>
      <point x="158" y="481"/>
      <point x="225" y="481" type="qcurve" smooth="yes"/>
      <point x="384" y="481"/>
      <point x="384" y="270" type="qcurve" smooth="yes"/>
      <point x="384" y="265" type="line"/>
      <point x="448" y="265" type="line" smooth="yes"/>
      <point x="452" y="265"/>
      <point x="474" y="255"/>
      <point x="474" y="231"/>
      <point x="454" y="139"/>
      <point x="454" y="100" type="qcurve" smooth="yes"/>
      <point x="454" y="33"/>
      <point x="480" y="33" type="qcurve" smooth="yes"/>
      <point x="490" y="33"/>
      <point x="501" y="54" type="qcurve" smooth="yes"/>
      <point x="512" y="67"/>
      <point x="531" y="67"/>
      <point x="531" y="56" type="qcurve" smooth="yes"/>
      <point x="530" y="53"/>
      <point x="518" y="21"/>
      <point x="506" y="10" type="qcurve" smooth="yes"/>
      <point x="487" y="-9"/>
      <point x="437" y="-9"/>
    </contour>
    <contour>
      <point x="199" y="38" type="qcurve" smooth="yes"/>
      <point x="246" y="38"/>
      <point x="318" y="129"/>
      <point x="328" y="220" type="qcurve"/>
      <point x="129" y="201"/>
      <point x="111" y="158" type="qcurve" smooth="yes"/>
      <point x="102" y="145"/>
      <point x="102" y="127" type="qcurve" smooth="yes"/>
      <point x="102" y="38"/>
    </contour>
  </outline>
</glyph>
<glyph name="uni025C" format="1">
  <advance width="500" height="500"/>
  <unicode hex="025C"/>
  <outline>
    <contour>
      <point x="241" y="-13" type="qcurve" smooth="yes"/>
      <point x="199" y="-13"/>
      <point x="120" y="17"/>
      <point x="74" y="56"/>
      <point x="74" y="67" type="qcurve" smooth="yes"/>
      <point x="74" y="79"/>
      <point x="87" y="79" type="qcurve" smooth="yes"/>
      <point x="95" y="79"/>
      <point x="115" y="65" type="qcurve" smooth="yes"/>
      <point x="159" y="37"/>
      <point x="229" y="37" type="qcurve" smooth="yes"/>
      <point x="299" y="37"/>
      <point x="373" y="85"/>
      <point x="373" y="129" type="qcurve" smooth="yes"/>
      <point x="373" y="172"/>
      <point x="311" y="225"/>
      <point x="257" y="225" type="qcurve" smooth="yes"/>
      <point x="245" y="225"/>
      <point x="188" y="216" type="qcurve" smooth="yes"/>
      <point x="176" y="216"/>
      <point x="162" y="244"/>
      <point x="162" y="257" type="qcurve" smooth="yes"/>
      <point x="162" y="270"/>
      <point x="170" y="270" type="qcurve" smooth="yes"/>
      <point x="355" y="277"/>
      <point x="355" y="365" type="qcurve" smooth="yes"/>
      <point x="355" y="433"/>
      <point x="257" y="433" type="qcurve" smooth="yes"/>
      <point x="197" y="433"/>
      <point x="150" y="384" type="qcurve" smooth="yes"/>
      <point x="135" y="370"/>
      <point x="127" y="370" type="qcurve" smooth="yes"/>
      <point x="118" y="370"/>
      <point x="103" y="401"/>
      <point x="103" y="414" type="qcurve" smooth="yes"/>
      <point x="103" y="427"/>
      <point x="155" y="460"/>
      <point x="230" y="481"/>
      <point x="257" y="481" type="qcurve" smooth="yes"/>
      <point x="331" y="481"/>
      <point x="416" y="414"/>
      <point x="416" y="371" type="qcurve" smooth="yes"/>
      <point x="416" y="329"/>
      <point x="368" y="274"/>
      <point x="332" y="263" type="qcurve" smooth="yes"/>
      <point x="310" y="257" type="line"/>
      <point x="331" y="253" type="line" smooth="yes"/>
      <point x="372" y="245"/>
      <point x="434" y="179"/>
      <point x="434" y="130" type="qcurve" smooth="yes"/>
      <point x="434" y="67"/>
      <point x="332" y="-13"/>
    </contour>
  </outline>
</glyph>
<glyph name="uni026A" format="1">
  <advance width="500" height="500"/>
  <unicode hex="026A"/>
  <outline>
    <contour>
      <point x="105" y="-1" type="qcurve" smooth="yes"/>
      <point x="95" y="-1"/>
      <point x="76" y="17"/>
      <point x="76" y="34" type="qcurve" smooth="yes"/>
      <point x="76" y="46"/>
      <point x="87" y="46" type="qcurve" smooth="yes"/>
      <point x="222" y="47" type="line"/>
      <point x="223" y="90"/>
      <point x="223" y="232" type="qcurve" smooth="yes"/>
      <point x="223" y="377"/>
      <point x="222" y="428" type="qcurve"/>
      <point x="134" y="426" type="line" smooth="yes"/>
      <point x="124" y="426"/>
      <point x="105" y="445"/>
      <point x="105" y="461" type="qcurve" smooth="yes"/>
      <point x="105" y="473"/>
      <point x="116" y="473" type="qcurve" smooth="yes"/>
      <point x="251" y="475" type="line"/>
      <point x="375" y="480" type="line" smooth="yes"/>
      <point x="384" y="480"/>
      <point x="399" y="462"/>
      <point x="399" y="448" type="qcurve" smooth="yes"/>
      <point x="399" y="433"/>
      <point x="388" y="433" type="qcurve" smooth="yes"/>
      <point x="280" y="431" type="line"/>
      <point x="280" y="408"/>
      <point x="276" y="396" type="qcurve"/>
      <point x="278" y="396"/>
      <point x="278" y="362" type="qcurve" smooth="yes"/>
      <point x="278" y="97"/>
      <point x="280" y="50" type="qcurve"/>
      <point x="399" y="53" type="line" smooth="yes"/>
      <point x="412" y="53"/>
      <point x="427" y="35"/>
      <point x="427" y="23" type="qcurve" smooth="yes"/>
      <point x="427" y="6"/>
      <point x="416" y="6" type="qcurve" smooth="yes"/>
      <point x="342" y="3"/>
    </contour>
    <contour>
      <point x="78" y="27" type="move" smooth="yes"/>
    </contour>
    <contour>
      <point x="397" y="452" type="move" smooth="yes"/>
    </contour>
    <contour>
      <point x="375" y="480" type="move" smooth="yes"/>
    </contour>
  </outline>
</glyph>
<glyph name="uni026F" format="1">
  <advance width="500" height="500"/>
  <unicode hex="026F"/>
  <outline>
    <contour>
      <point x="41" y="470" type="qcurve" smooth="yes"/>
      <point x="41" y="476"/>
      <point x="72" y="476"/>
      <point x="101" y="461"/>
      <point x="101" y="452" type="qcurve" smooth="yes"/>
      <point x="99" y="388"/>
      <point x="99" y="177" type="qcurve" smooth="yes"/>
      <point x="99" y="118"/>
      <point x="118" y="44"/>
      <point x="152" y="44" type="qcurve" smooth="yes"/>
      <point x="178" y="44"/>
      <point x="218" y="137"/>
      <point x="223" y="208" type="qcurve" smooth="yes"/>
      <point x="224" y="242"/>
      <point x="224" y="328" type="qcurve" smooth="yes"/>
      <point x="221" y="470" type="line" smooth="yes"/>
      <point x="221" y="476"/>
      <point x="252" y="476"/>
      <point x="280" y="461"/>
      <point x="280" y="452" type="qcurve" smooth="yes"/>
      <point x="278" y="388"/>
      <point x="278" y="177" type="qcurve" smooth="yes"/>
      <point x="278" y="44"/>
      <point x="328" y="44" type="qcurve" smooth="yes"/>
      <point x="360" y="44"/>
      <point x="402" y="169"/>
      <point x="402" y="385"/>
      <point x="400" y="423" type="qcurve" smooth="yes"/>
      <point x="399" y="470" type="line" smooth="yes"/>
      <point x="399" y="476"/>
      <point x="430" y="476"/>
      <point x="459" y="461"/>
      <point x="459" y="452" type="qcurve" smooth="yes"/>
      <point x="457" y="387" type="line"/>
      <point x="457" y="82"/>
      <point x="458" y="55" type="qcurve" smooth="yes"/>
      <point x="460" y="9"/>
      <point x="460" y="-2" type="qcurve" smooth="yes"/>
      <point x="460" y="-7"/>
      <point x="431" y="-7"/>
      <point x="403" y="8"/>
      <point x="403" y="17" type="qcurve" smooth="yes"/>
      <point x="406" y="71" type="line"/>
      <point x="394" y="40" type="line" smooth="yes"/>
      <point x="391" y="30"/>
      <point x="352" y="-12"/>
      <point x="287" y="-12"/>
      <point x="246" y="37"/>
      <point x="241" y="64" type="qcurve" smooth="yes"/>
      <point x="237" y="86" type="line"/>
      <point x="231" y="64" type="line" smooth="yes"/>
      <point x="225" y="42"/>
      <point x="183" y="-12"/>
      <point x="148" y="-12" type="qcurve" smooth="yes"/>
      <point x="44" y="-12"/>
      <point x="44" y="368"/>
      <point x="41" y="447"/>
    </contour>
    <contour>
      <point x="403" y="17" type="move" smooth="yes"/>
    </contour>
  </outline>
</glyph>
<glyph name="uni0283" format="1">
  <advance width="500" height="500"/>
  <unicode hex="0283"/>
  <outline>
    <contour>
      <point x="221" y="589" type="line" smooth="yes"/>
      <point x="221" y="661"/>
      <point x="279" y="690" type="qcurve" smooth="yes"/>
      <point x="306" y="703"/>
      <point x="338" y="703" type="qcurve" smooth="yes"/>
      <point x="398" y="703"/>
      <point x="428" y="668" type="qcurve" smooth="yes"/>
      <point x="439" y="655"/>
      <point x="439" y="632"/>
      <point x="421" y="605"/>
      <point x="408" y="605"/>
      <point x="402" y="614" type="qcurve" smooth="yes"/>
      <point x="382" y="652"/>
      <point x="333" y="652" type="qcurve" smooth="yes"/>
      <point x="312" y="652"/>
      <point x="279" y="619"/>
      <point x="279" y="585" type="qcurve" smooth="yes"/>
      <point x="279" y="-76" type="line" smooth="yes"/>
      <point x="279" y="-113"/>
      <point x="263" y="-138" type="qcurve" smooth="yes"/>
      <point x="230" y="-190"/>
      <point x="101" y="-190"/>
      <point x="73" y="-155" type="qcurve" smooth="yes"/>
      <point x="61" y="-141"/>
      <point x="61" y="-119"/>
      <point x="79" y="-92"/>
      <point x="92" y="-92"/>
      <point x="98" y="-101" type="qcurve" smooth="yes"/>
      <point x="118" y="-139"/>
      <point x="167" y="-139" type="qcurve" smooth="yes"/>
      <point x="189" y="-139"/>
      <point x="221" y="-105"/>
      <point x="221" y="-72" type="qcurve" smooth="yes"/>
    </contour>
    <contour>
      <point x="98" y="-101" type="qcurve" smooth="yes"/>
      <point x="98" y="-100" type="line"/>
      <point x="98" y="-100"/>
    </contour>
    <contour>
      <point x="402" y="614" type="qcurve" smooth="yes"/>
      <point x="402" y="613" type="line"/>
      <point x="402" y="613"/>
    </contour>
  </outline>
</glyph>
<glyph name="uni029F" format="1">
  <advance width="500" height="500"/>
  <unicode hex="029F"/>
  <outline>
    <contour>
      <point x="146" y="54" type="line"/>
      <point x="223" y="59"/>
      <point x="401" y="59"/>
      <point x="426" y="60"/>
      <point x="441" y="25"/>
      <point x="441" y="10" type="qcurve" smooth="yes"/>
      <point x="440" y="1"/>
      <point x="433" y="0" type="qcurve" smooth="yes"/>
      <point x="398" y="6"/>
      <point x="152" y="6"/>
      <point x="115" y="-4" type="qcurve"/>
      <point x="97" y="-4"/>
      <point x="84" y="22" type="qcurve" smooth="yes"/>
      <point x="79" y="32"/>
      <point x="79" y="43"/>
      <point x="85" y="56"/>
      <point x="85" y="70" type="qcurve" smooth="yes"/>
      <point x="85" y="401"/>
      <point x="82" y="458"/>
      <point x="82" y="475" type="qcurve" smooth="yes"/>
      <point x="82" y="480"/>
      <point x="115" y="480"/>
      <point x="148" y="466"/>
      <point x="148" y="445"/>
      <point x="146" y="394"/>
      <point x="146" y="59" type="qcurve" smooth="yes"/>
    </contour>
  </outline>
</glyph>
<glyph name="uni02B3" format="1">
  <advance width="500" height="500"/>
  <unicode hex="02B3"/>
  <outline>
    <contour>
      <point x="209" y="656" type="line"/>
      <point x="224" y="667"/>
      <point x="270" y="697"/>
      <point x="299" y="697" type="qcurve" smooth="yes"/>
      <point x="347" y="697"/>
      <point x="377" y="672" type="qcurve" smooth="yes"/>
      <point x="389" y="663"/>
      <point x="389" y="640"/>
      <point x="372" y="614"/>
      <point x="356" y="614"/>
      <point x="350" y="621" type="qcurve" smooth="yes"/>
      <point x="339" y="647"/>
      <point x="296" y="647" type="qcurve" smooth="yes"/>
      <point x="275" y="647"/>
      <point x="251" y="630" type="qcurve" smooth="yes"/>
      <point x="215" y="604"/>
      <point x="209" y="541" type="qcurve" smooth="yes"/>
      <point x="206" y="515"/>
      <point x="206" y="429" type="qcurve"/>
      <point x="206" y="429"/>
      <point x="210" y="355" type="qcurve" smooth="yes"/>
      <point x="210" y="346"/>
      <point x="182" y="346"/>
      <point x="154" y="357"/>
      <point x="154" y="367" type="qcurve" smooth="yes"/>
      <point x="156" y="429" type="line"/>
      <point x="156" y="611" type="line"/>
      <point x="154" y="686" type="line" smooth="yes"/>
      <point x="154" y="695"/>
      <point x="181" y="695"/>
      <point x="209" y="684"/>
      <point x="209" y="677" type="qcurve" smooth="yes"/>
    </contour>
    <contour>
      <point x="210" y="355" type="move" smooth="yes"/>
    </contour>
  </outline>
</glyph>
<glyph name="caron" format="1">
  <advance width="500" height="500"/>
  <unicode hex="02C7"/>
  <outline>
    <contour>
      <point x="251" y="631" type="qcurve"/>
      <point x="282" y="652"/>
      <point x="357" y="699"/>
      <point x="386" y="724"/>
      <point x="392" y="724" type="qcurve" smooth="yes"/>
      <point x="405" y="724"/>
      <point x="405" y="698"/>
      <point x="321" y="616" type="qcurve" smooth="yes"/>
      <point x="301" y="597"/>
      <point x="278" y="574"/>
      <point x="223" y="574"/>
      <point x="213" y="582" type="qcurve" smooth="yes"/>
      <point x="144" y="647"/>
      <point x="98" y="707"/>
      <point x="96" y="713" type="qcurve" smooth="yes"/>
      <point x="96" y="724"/>
      <point x="109" y="724" type="qcurve" smooth="yes"/>
      <point x="115" y="724"/>
      <point x="144" y="699"/>
      <point x="178" y="678" type="qcurve" smooth="yes"/>
      <point x="221" y="651"/>
    </contour>
  </outline>
</glyph>
<glyph name="uni02C8" format="1">
  <advance width="500" height="500"/>
  <unicode hex="02C8"/>
  <outline>
    <contour>
      <point x="218" y="795" type="line" smooth="yes"/>
      <point x="217" y="802"/>
      <point x="236" y="812"/>
      <point x="264" y="812"/>
      <point x="282" y="803"/>
      <point x="282" y="796" type="qcurve" smooth="yes"/>
      <point x="282" y="795" type="line"/>
      <point x="266" y="544" type="line" smooth="yes"/>
      <point x="265" y="533"/>
      <point x="254" y="533" type="qcurve" smooth="yes"/>
      <point x="236" y="533"/>
      <point x="234" y="544" type="qcurve" smooth="yes"/>
    </contour>
    <contour>
      <point x="234" y="544" type="line" smooth="yes"/>
      <point x="234" y="545"/>
      <point x="234" y="545" type="qcurve"/>
    </contour>
    <contour>
      <point x="266" y="544" type="qcurve" smooth="yes"/>
      <point x="266" y="545" type="line"/>
      <point x="266" y="545"/>
    </contour>
  </outline>
</glyph>
<glyph name="acute" format="1">
  <advance width="1000" height="1000"/>
  <unicode hex="02CA"/>
  <unicode hex="00B4"/>
  <outline>
    <contour>
      <point x="549" y="836" type="qcurve"/>
      <point x="556" y="838" type="line"/>
      <point x="576" y="838"/>
      <point x="595" y="816" type="qcurve" smooth="yes"/>
      <point x="603" y="806"/>
      <point x="603" y="791"/>
      <point x="595" y="787" type="qcurve" smooth="yes"/>
      <point x="493" y="745"/>
      <point x="425" y="705" type="qcurve" smooth="yes"/>
      <point x="420" y="702"/>
      <point x="415" y="702" type="qcurve" smooth="yes"/>
      <point x="400" y="702"/>
      <point x="400" y="717" type="qcurve" smooth="yes"/>
      <point x="400" y="723"/>
      <point x="406" y="729" type="qcurve" smooth="yes"/>
      <point x="466" y="782"/>
    </contour>
  </outline>
</glyph>
<glyph name="uni02CD" format="1">
  <advance width="500" height="500"/>
  <unicode hex="02CD"/>
  <outline>
    <contour>
      <point x="366" y="-128" type="line" smooth="yes"/>
      <point x="383" y="-128"/>
      <point x="383" y="-154" type="qcurve" smooth="yes"/>
      <point x="383" y="-164"/>
      <point x="373" y="-180"/>
      <point x="365" y="-180" type="qcurve" smooth="yes"/>
      <point x="137" y="-180" type="line" smooth="yes"/>
      <point x="129" y="-180"/>
      <point x="119" y="-165"/>
      <point x="119" y="-144"/>
      <point x="129" y="-128"/>
      <point x="138" y="-128" type="qcurve" smooth="yes"/>
    </contour>
  </outline>
</glyph>
<glyph name="uni02D0" format="1">
  <advance width="500" height="500"/>
  <unicode hex="02D0"/>
  <outline>
    <contour>
      <point x="190" y="506" type="line"/>
      <point x="310" y="506" type="line"/>
      <point x="250" y="396" type="line"/>
    </contour>
    <contour>
      <point x="190" y="0" type="line"/>
      <point x="250" y="110" type="line"/>
      <point x="310" y="0" type="line"/>
    </contour>
  </outline>
</glyph>
<glyph name="dotaccent" format="1">
  <advance width="500" height="500"/>
  <unicode hex="02D9"/>
  <outline>
    <contour>
      <point x="205" y="668"/>
      <point x="227" y="693"/>
      <point x="266" y="693"/>
      <point x="294" y="656"/>
      <point x="294" y="619"/>
      <point x="271" y="595"/>
      <point x="252" y="595" type="qcurve" smooth="yes"/>
      <point x="233" y="595"/>
      <point x="219" y="613" type="qcurve" smooth="yes"/>
      <point x="205" y="631"/>
    </contour>
  </outline>
</glyph>
<glyph name="uni02E5" format="1">
  <advance width="500" height="500"/>
  <unicode hex="02E5"/>
  <outline>
    <contour>
      <point x="110" y="619" type="qcurve" smooth="yes"/>
      <point x="99" y="619"/>
      <point x="85" y="653"/>
      <point x="85" y="674"/>
      <point x="109" y="672"/>
      <point x="133" y="672" type="qcurve" smooth="yes"/>
      <point x="334" y="677" type="line"/>
      <point x="360" y="679" type="line"/>
      <point x="360" y="697" type="line" smooth="yes"/>
      <point x="360" y="702"/>
      <point x="390" y="702"/>
      <point x="423" y="689"/>
      <point x="423" y="679" type="qcurve" smooth="yes"/>
      <point x="419" y="590" type="line"/>
      <point x="419" y="590" type="line"/>
      <point x="419" y="106" type="line"/>
      <point x="424" y="0" type="line" smooth="yes"/>
      <point x="424" y="-5"/>
      <point x="394" y="-5"/>
      <point x="361" y="8"/>
      <point x="361" y="18" type="qcurve" smooth="yes"/>
      <point x="363" y="106" type="line"/>
      <point x="363" y="590" type="line"/>
      <point x="362" y="631" type="line"/>
      <point x="340" y="630"/>
      <point x="142" y="624"/>
    </contour>
    <contour>
      <point x="423" y="679" type="move" smooth="yes"/>
    </contour>
  </outline>
</glyph>
<glyph name="uni02E8" format="1">
  <advance width="500" height="500"/>
  <unicode hex="02E8"/>
  <outline>
    <contour>
      <point x="110" y="174" type="qcurve" smooth="yes"/>
      <point x="99" y="174"/>
      <point x="85" y="208"/>
      <point x="85" y="229"/>
      <point x="109" y="227"/>
      <point x="133" y="227" type="qcurve" smooth="yes"/>
      <point x="334" y="232" type="line"/>
      <point x="363" y="234" type="line"/>
      <point x="363" y="590" type="line"/>
      <point x="360" y="697" type="line" smooth="yes"/>
      <point x="360" y="702"/>
      <point x="390" y="702"/>
      <point x="423" y="689"/>
      <point x="423" y="679" type="qcurve" smooth="yes"/>
      <point x="419" y="590" type="line"/>
      <point x="419" y="590" type="line"/>
      <point x="419" y="106" type="line"/>
      <point x="424" y="0" type="line" smooth="yes"/>
      <point x="424" y="-5"/>
      <point x="394" y="-5"/>
      <point x="361" y="8"/>
      <point x="361" y="18" type="qcurve" smooth="yes"/>
      <point x="363" y="106" type="line"/>
      <point x="363" y="186" type="line"/>
      <point x="340" y="185"/>
      <point x="142" y="179"/>
    </contour>
    <contour>
      <point x="423" y="679" type="move" smooth="yes"/>
    </contour>
  </outline>
</glyph>
<glyph name="uni02E9" format="1">
  <advance width="500" height="500"/>
  <unicode hex="02E9"/>
  <outline>
    <contour>
      <point x="110" y="9" type="qcurve" smooth="yes"/>
      <point x="99" y="9"/>
      <point x="85" y="43"/>
      <point x="85" y="64"/>
      <point x="109" y="62"/>
      <point x="133" y="62" type="qcurve" smooth="yes"/>
      <point x="334" y="67" type="line"/>
      <point x="362" y="69" type="line"/>
      <point x="363" y="106" type="line"/>
      <point x="363" y="590" type="line"/>
      <point x="360" y="697" type="line" smooth="yes"/>
      <point x="360" y="702"/>
      <point x="390" y="702"/>
      <point x="423" y="689"/>
      <point x="423" y="679" type="qcurve" smooth="yes"/>
      <point x="419" y="590" type="line"/>
      <point x="419" y="590" type="line"/>
      <point x="419" y="106" type="line"/>
      <point x="424" y="0" type="line" smooth="yes"/>
      <point x="424" y="-5"/>
      <point x="394" y="-5"/>
      <point x="362" y="8"/>
      <point x="361" y="17" type="qcurve" smooth="yes"/>
      <point x="360" y="21" type="line"/>
      <point x="340" y="20"/>
      <point x="142" y="14"/>
    </contour>
    <contour>
      <point x="423" y="679" type="move" smooth="yes"/>
    </contour>
  </outline>
</glyph>
<glyph name="grave" format="1">
  <advance width="500" height="500"/>
  <unicode hex="0300"/>
  <unicode hex="02CB"/>
  <unicode hex="0060"/>
  <outline>
    <contour>
      <point x="317" y="571"/>
      <point x="297" y="571"/>
      <point x="290" y="578" type="qcurve" smooth="yes"/>
      <point x="170" y="686" type="line" smooth="yes"/>
      <point x="162" y="695"/>
      <point x="162" y="713"/>
      <point x="185" y="732"/>
      <point x="212" y="732"/>
      <point x="222" y="722" type="qcurve" smooth="yes"/>
      <point x="325" y="616" type="line" smooth="yes"/>
      <point x="332" y="609"/>
      <point x="332" y="589"/>
    </contour>
  </outline>
</glyph>
<glyph name="macron" format="1">
  <advance width="500" height="500"/>
  <unicode hex="0304"/>
  <unicode hex="02C9"/>
  <unicode hex="00AF"/>
  <outline>
    <contour>
      <point x="476" y="789" type="qcurve" smooth="yes"/>
      <point x="26" y="789" type="line" smooth="yes"/>
      <point x="9" y="789"/>
      <point x="9" y="815" type="qcurve" smooth="yes"/>
      <point x="9" y="840"/>
      <point x="26" y="840" type="qcurve" smooth="yes"/>
      <point x="476" y="840" type="line" smooth="yes"/>
      <point x="492" y="840"/>
      <point x="492" y="815" type="qcurve" smooth="yes"/>
      <point x="492" y="789"/>
    </contour>
  </outline>
</glyph>
<glyph name="ring" format="1">
  <advance width="500" height="500"/>
  <unicode hex="030A"/>
  <unicode hex="02DA"/>
  <outline>
    <contour>
      <point x="345" y="646" type="qcurve" smooth="yes"/>
      <point x="345" y="608"/>
      <point x="289" y="552"/>
      <point x="251" y="552" type="qcurve" smooth="yes"/>
      <point x="213" y="552"/>
      <point x="157" y="608"/>
      <point x="157" y="646" type="qcurve" smooth="yes"/>
      <point x="157" y="684"/>
      <point x="213" y="740"/>
      <point x="251" y="740" type="qcurve" smooth="yes"/>
      <point x="289" y="740"/>
      <point x="345" y="684"/>
    </contour>
    <contour>
      <point x="307" y="646" type="qcurve" smooth="yes"/>
      <point x="307" y="669"/>
      <point x="274" y="702"/>
      <point x="251" y="702" type="qcurve" smooth="yes"/>
      <point x="228" y="702"/>
      <point x="195" y="669"/>
      <point x="195" y="646" type="qcurve" smooth="yes"/>
      <point x="195" y="623"/>
      <point x="228" y="590"/>
      <point x="251" y="590" type="qcurve" smooth="yes"/>
      <point x="274" y="590"/>
      <point x="307" y="623"/>
    </contour>
  </outline>
</glyph>
<glyph name="uni030B" format="1">
  <advance width="0" height="0"/>
  <unicode hex="030B"/>
  <outline>
    <contour>
      <point x="419" y="661" type="qcurve" smooth="yes"/>
      <point x="329" y="615"/>
      <point x="263" y="571" type="qcurve" smooth="yes"/>
      <point x="257" y="568"/>
      <point x="253" y="568" type="qcurve" smooth="yes"/>
      <point x="237" y="568"/>
      <point x="237" y="582" type="qcurve" smooth="yes"/>
      <point x="237" y="591"/>
      <point x="335" y="678"/>
      <point x="373" y="711"/>
      <point x="392" y="711"/>
      <point x="426" y="683"/>
      <point x="426" y="665"/>
    </contour>
    <contour>
      <point x="269" y="663" type="qcurve" smooth="yes"/>
      <point x="187" y="622"/>
      <point x="113" y="572" type="qcurve" smooth="yes"/>
      <point x="107" y="569"/>
      <point x="102" y="569" type="qcurve" smooth="yes"/>
      <point x="87" y="569"/>
      <point x="87" y="582" type="qcurve" smooth="yes"/>
      <point x="87" y="595"/>
      <point x="172" y="667" type="qcurve" smooth="yes"/>
      <point x="219" y="707"/>
      <point x="223" y="711"/>
      <point x="242" y="711"/>
      <point x="276" y="685"/>
      <point x="276" y="667"/>
    </contour>
  </outline>
</glyph>
<glyph name="uni030D" format="1">
  <advance width="0" height="0"/>
  <unicode hex="030D"/>
  <outline>
    <contour>
      <point x="-274" y="767" type="line" smooth="yes"/>
      <point x="-274" y="780"/>
      <point x="-222" y="780"/>
      <point x="-222" y="766" type="qcurve" smooth="yes"/>
      <point x="-222" y="578" type="line" smooth="yes"/>
      <point x="-222" y="565"/>
      <point x="-248" y="565" type="qcurve" smooth="yes"/>
      <point x="-259" y="565"/>
      <point x="-274" y="573"/>
      <point x="-274" y="579" type="qcurve" smooth="yes"/>
    </contour>
  </outline>
</glyph>
<glyph name="dotbelowcomb" format="1">
  <advance width="0" height="0"/>
  <unicode hex="0323"/>
  <outline>
    <contour>
      <point x="-79" y="-176"/>
      <point x="-117" y="-176"/>
      <point x="-148" y="-139"/>
      <point x="-148" y="-100"/>
      <point x="-127" y="-77"/>
      <point x="-89" y="-77"/>
      <point x="-57" y="-114"/>
      <point x="-57" y="-153"/>
    </contour>
  </outline>
</glyph>
<glyph name="cedilla" format="1">
  <advance width="500" height="500"/>
  <unicode hex="0327"/>
  <unicode hex="00B8"/>
  <outline>
    <contour>
      <point x="264" y="-67" type="qcurve" smooth="yes"/>
      <point x="242" y="-67"/>
      <point x="222" y="-72" type="qcurve" smooth="yes"/>
      <point x="208" y="-72"/>
      <point x="191" y="-56"/>
      <point x="191" y="-45" type="qcurve" smooth="yes"/>
      <point x="207" y="4" type="line"/>
      <point x="212" y="21" type="line"/>
      <point x="268" y="17" type="line"/>
      <point x="251" y="-29" type="line"/>
      <point x="253" y="-29" type="line" smooth="yes"/>
      <point x="263" y="-27"/>
      <point x="274" y="-27" type="qcurve" smooth="yes"/>
      <point x="310" y="-27"/>
      <point x="358" y="-62"/>
      <point x="358" y="-97" type="qcurve" smooth="yes"/>
      <point x="358" y="-173"/>
      <point x="254" y="-178" type="qcurve" smooth="yes"/>
      <point x="211" y="-178"/>
      <point x="166" y="-156" type="qcurve" smooth="yes"/>
      <point x="156" y="-150"/>
      <point x="156" y="-123"/>
      <point x="165" y="-102"/>
      <point x="172" y="-102" type="qcurve" smooth="yes"/>
      <point x="175" y="-102"/>
      <point x="186" y="-110" type="qcurve" smooth="yes"/>
      <point x="213" y="-130"/>
      <point x="307" y="-130"/>
      <point x="307" y="-67"/>
    </contour>
  </outline>
</glyph>
<glyph name="uni0328" format="1">
  <advance width="0" height="0"/>
  <unicode hex="0328"/>
  <outline>
    <contour>
      <point x="219" y="-82" type="qcurve" smooth="yes"/>
      <point x="219" y="-123"/>
      <point x="268" y="-123" type="qcurve" smooth="yes"/>
      <point x="285" y="-123"/>
      <point x="329" y="-103"/>
      <point x="340" y="-92" type="qcurve" smooth="yes"/>
      <point x="355" y="-78"/>
      <point x="375" y="-78"/>
      <point x="375" y="-100"/>
      <point x="340" y="-138"/>
      <point x="287" y="-168"/>
      <point x="212" y="-168"/>
      <point x="164" y="-122"/>
      <point x="164" y="-86" type="qcurve" smooth="yes"/>
      <point x="164" y="-20"/>
      <point x="209" y="22" type="qcurve"/>
      <point x="272" y="22" type="line"/>
      <point x="219" y="-28"/>
    </contour>
  </outline>
</glyph>
<glyph name="underscore" format="1">
  <advance width="500" height="500"/>
  <unicode hex="0332"/>
  <unicode hex="005F"/>
  <outline>
    <contour>
      <point x="476" y="-160" type="qcurve" smooth="yes"/>
      <point x="26" y="-160" type="line" smooth="yes"/>
      <point x="9" y="-160"/>
      <point x="9" y="-134" type="qcurve" smooth="yes"/>
      <point x="9" y="-109"/>
      <point x="26" y="-109" type="qcurve" smooth="yes"/>
      <point x="476" y="-109" type="line" smooth="yes"/>
      <point x="492" y="-109"/>
      <point x="492" y="-134" type="qcurve" smooth="yes"/>
      <point x="492" y="-160"/>
    </contour>
  </outline>
</glyph>
<glyph name="uni0358" format="1">
  <advance width="0" height="0"/>
  <unicode hex="0358"/>
  <outline>
    <contour>
      <point x="-29" y="500"/>
      <point x="-66" y="500"/>
      <point x="-94" y="535"/>
      <point x="-94" y="574"/>
      <point x="-71" y="598"/>
      <point x="-33" y="598"/>
      <point x="-5" y="561"/>
      <point x="-5" y="524"/>
    </contour>
  </outline>
</glyph>
<glyph name="uni0361" format="1">
  <advance width="1000" height="1000"/>
  <unicode hex="0361"/>
  <outline>
    <contour>
      <point x="892" y="638" type="qcurve" smooth="yes"/>
      <point x="892" y="626"/>
      <point x="882" y="626" type="qcurve" smooth="yes"/>
      <point x="877" y="626"/>
      <point x="869" y="632" type="qcurve" smooth="yes"/>
      <point x="799" y="690"/>
      <point x="578" y="758"/>
      <point x="389" y="758"/>
      <point x="187" y="693"/>
      <point x="124" y="633" type="qcurve" smooth="yes"/>
      <point x="120" y="628"/>
      <point x="114" y="628" type="qcurve" smooth="yes"/>
      <point x="102" y="628"/>
      <point x="102" y="639" type="qcurve" smooth="yes"/>
      <point x="102" y="645"/>
      <point x="107" y="652" type="qcurve" smooth="yes"/>
      <point x="167" y="726"/>
      <point x="365" y="822"/>
      <point x="591" y="822"/>
      <point x="816" y="732"/>
      <point x="886" y="651" type="qcurve" smooth="yes"/>
      <point x="892" y="644"/>
    </contour>
  </outline>
</glyph>
<glyph name="tonos" format="1">
  <advance width="500" height="500"/>
  <unicode hex="0384"/>
  <outline>
    <contour>
      <point x="250" y="750" type="line" smooth="yes"/>
      <point x="252" y="759"/>
      <point x="282" y="759"/>
      <point x="311" y="742"/>
      <point x="311" y="732" type="qcurve" smooth="yes"/>
      <point x="311" y="730"/>
      <point x="310" y="729" type="qcurve" smooth="yes"/>
      <point x="248" y="578" type="line" smooth="yes"/>
      <point x="246" y="572"/>
      <point x="224" y="572"/>
      <point x="199" y="586"/>
      <point x="199" y="590" type="qcurve" smooth="yes"/>
      <point x="199" y="594" type="line"/>
    </contour>
  </outline>
</glyph>
<glyph name="dieresistonos" format="1">
  <advance width="500" height="500"/>
  <unicode hex="0385"/>
  <outline>
    <contour>
      <point x="250" y="750" type="line" smooth="yes"/>
      <point x="252" y="759"/>
      <point x="282" y="759"/>
      <point x="311" y="742"/>
      <point x="311" y="732" type="qcurve" smooth="yes"/>
      <point x="311" y="730"/>
      <point x="310" y="729" type="qcurve" smooth="yes"/>
      <point x="248" y="578" type="line" smooth="yes"/>
      <point x="246" y="572"/>
      <point x="224" y="572"/>
      <point x="199" y="586"/>
      <point x="199" y="590" type="qcurve" smooth="yes"/>
      <point x="199" y="594" type="line"/>
    </contour>
    <contour>
      <point x="414" y="597"/>
      <point x="376" y="597"/>
      <point x="345" y="635"/>
      <point x="345" y="673"/>
      <point x="366" y="696"/>
      <point x="404" y="696"/>
      <point x="436" y="660"/>
      <point x="436" y="620"/>
    </contour>
    <contour>
      <point x="131" y="597"/>
      <point x="93" y="597"/>
      <point x="62" y="635"/>
      <point x="62" y="673"/>
      <point x="83" y="696"/>
      <point x="121" y="696"/>
      <point x="153" y="660"/>
      <point x="153" y="620"/>
    </contour>
  </outline>
</glyph>
<glyph name="anoteleia" format="1">
  <advance width="500" height="500"/>
  <unicode hex="0387"/>
  <outline>
    <contour>
      <point x="292" y="405"/>
      <point x="238" y="405"/>
      <point x="203" y="451"/>
      <point x="203" y="499"/>
      <point x="236" y="525"/>
      <point x="282" y="525"/>
      <point x="319" y="479"/>
      <point x="319" y="433"/>
    </contour>
  </outline>
</glyph>
<glyph name="uni03DB" format="1">
  <advance width="500" height="500"/>
  <unicode hex="03DB"/>
  <outline>
    <contour>
      <point x="284" y="406" type="line"/>
      <point x="110" y="406"/>
      <point x="110" y="296" type="qcurve" smooth="yes"/>
      <point x="110" y="257"/>
      <point x="154" y="214"/>
      <point x="218" y="183"/>
      <point x="248" y="167" type="qcurve" smooth="yes"/>
      <point x="319" y="130"/>
      <point x="319" y="84" type="qcurve" smooth="yes"/>
      <point x="319" y="58"/>
      <point x="311" y="41" type="qcurve" smooth="yes"/>
      <point x="296" y="3"/>
      <point x="164" y="3"/>
      <point x="155" y="26" type="qcurve" smooth="yes"/>
      <point x="151" y="37"/>
      <point x="151" y="71"/>
      <point x="158" y="71" type="qcurve" smooth="yes"/>
      <point x="175" y="67"/>
      <point x="204" y="55"/>
      <point x="257" y="55"/>
      <point x="274" y="67"/>
      <point x="274" y="79" type="qcurve" smooth="yes"/>
      <point x="274" y="108"/>
      <point x="228" y="130" type="qcurve" smooth="yes"/>
      <point x="175" y="156" type="line" smooth="yes"/>
      <point x="106" y="192"/>
      <point x="76" y="239" type="qcurve" smooth="yes"/>
      <point x="60" y="265"/>
      <point x="60" y="348"/>
      <point x="100" y="411"/>
      <point x="160" y="453"/>
      <point x="231" y="474"/>
      <point x="303" y="474" type="qcurve" smooth="yes"/>
      <point x="424" y="474"/>
      <point x="428" y="459" type="qcurve" smooth="yes"/>
      <point x="431" y="448"/>
      <point x="431" y="421"/>
      <point x="415" y="402"/>
      <point x="401" y="401" type="qcurve" smooth="yes"/>
      <point x="392" y="401" type="line"/>
      <point x="284" y="406" type="line"/>
    </contour>
    <contour>
      <point x="392" y="401" type="move" smooth="yes"/>
    </contour>
    <contour>
      <point x="401" y="401" type="move" smooth="yes"/>
    </contour>
    <contour>
      <point x="155" y="26" type="move" smooth="yes"/>
    </contour>
  </outline>
</glyph>
<glyph name="uni043F" format="1">
  <advance width="500" height="500"/>
  <unicode hex="043F"/>
  <outline>
    <contour>
      <point x="77" y="474" type="qcurve" smooth="yes"/>
      <point x="80" y="476"/>
      <point x="107" y="476"/>
      <point x="133" y="463" type="qcurve"/>
      <point x="324" y="470" type="line" smooth="yes"/>
      <point x="342" y="471"/>
      <point x="376" y="481"/>
      <point x="403" y="481"/>
      <point x="430" y="451"/>
      <point x="430" y="434"/>
      <point x="421" y="415"/>
      <point x="421" y="402" type="qcurve" smooth="yes"/>
      <point x="421" y="84"/>
      <point x="422" y="57" type="qcurve" smooth="yes"/>
      <point x="424" y="12"/>
      <point x="424" y="0" type="qcurve" smooth="yes"/>
      <point x="424" y="-4"/>
      <point x="394" y="-4"/>
      <point x="364" y="10"/>
      <point x="364" y="19" type="qcurve" smooth="yes"/>
      <point x="364" y="44"/>
      <point x="366" y="82" type="qcurve"/>
      <point x="366" y="82" type="line"/>
      <point x="366" y="422" type="line"/>
      <point x="134" y="412" type="line"/>
      <point x="134" y="407" type="line" smooth="yes"/>
      <point x="134" y="100"/>
      <point x="137" y="34"/>
      <point x="137" y="-1" type="qcurve" smooth="yes"/>
      <point x="137" y="-5"/>
      <point x="107" y="-5"/>
      <point x="77" y="9"/>
      <point x="77" y="18" type="qcurve" smooth="yes"/>
      <point x="77" y="43"/>
      <point x="78" y="81" type="qcurve" smooth="yes"/>
      <point x="78" y="386" type="line" smooth="yes"/>
      <point x="78" y="432"/>
      <point x="76" y="445" type="qcurve" smooth="yes"/>
      <point x="75" y="465" type="line" smooth="yes"/>
      <point x="75" y="470"/>
    </contour>
    <contour>
      <point x="75" y="465" type="move" smooth="yes"/>
    </contour>
  </outline>
</glyph>
<glyph name="uni1D0A" format="1">
  <advance width="500" height="500"/>
  <unicode hex="1D0A"/>
  <outline>
    <contour>
      <point x="239" y="-12" type="qcurve" smooth="yes"/>
      <point x="192" y="-12"/>
      <point x="125" y="24"/>
      <point x="78" y="84"/>
      <point x="78" y="95" type="qcurve" smooth="yes"/>
      <point x="78" y="117"/>
      <point x="104" y="134" type="qcurve" smooth="yes"/>
      <point x="115" y="141"/>
      <point x="132" y="141"/>
      <point x="133" y="133" type="qcurve" smooth="yes"/>
      <point x="141" y="79"/>
      <point x="182" y="60" type="qcurve"/>
      <point x="182" y="60" type="line"/>
      <point x="210" y="44"/>
      <point x="235" y="44" type="qcurve" smooth="yes"/>
      <point x="334" y="44"/>
      <point x="334" y="170" type="qcurve" smooth="yes"/>
      <point x="334" y="369" type="line" smooth="yes"/>
      <point x="334" y="403"/>
      <point x="332" y="475" type="qcurve" smooth="yes"/>
      <point x="332" y="480"/>
      <point x="364" y="480"/>
      <point x="396" y="466"/>
      <point x="396" y="445"/>
      <point x="394" y="394"/>
      <point x="394" y="167" type="qcurve" smooth="yes"/>
      <point x="394" y="-12"/>
    </contour>
  </outline>
</glyph>
<glyph name="uni1D0B" format="1">
  <advance width="500" height="500"/>
  <unicode hex="1D0B"/>
  <outline>
    <contour>
      <point x="147" y="149" type="line" smooth="yes"/>
      <point x="147" y="60"/>
      <point x="151" y="17"/>
      <point x="151" y="0" type="qcurve" smooth="yes"/>
      <point x="151" y="-5"/>
      <point x="121" y="-5"/>
      <point x="88" y="8"/>
      <point x="88" y="18" type="qcurve" smooth="yes"/>
      <point x="90" y="81" type="line"/>
      <point x="90" y="378"/>
      <point x="87" y="453"/>
      <point x="87" y="474" type="qcurve" smooth="yes"/>
      <point x="88" y="479"/>
      <point x="117" y="479"/>
      <point x="150" y="466"/>
      <point x="150" y="458" type="qcurve" smooth="yes"/>
      <point x="150" y="446"/>
      <point x="147" y="405" type="qcurve"/>
      <point x="147" y="405" type="line"/>
      <point x="147" y="226" type="line"/>
      <point x="156" y="234" type="line"/>
      <point x="363" y="446"/>
      <point x="382" y="475" type="qcurve" smooth="yes"/>
      <point x="385" y="477"/>
      <point x="400" y="477"/>
      <point x="434" y="456"/>
      <point x="435" y="442" type="qcurve" smooth="yes"/>
      <point x="435" y="441"/>
      <point x="417" y="421"/>
      <point x="271" y="275" type="qcurve"/>
      <point x="440" y="52"/>
      <point x="472" y="16" type="qcurve" smooth="yes"/>
      <point x="473" y="15" type="line"/>
      <point x="473" y="9"/>
      <point x="438" y="-8"/>
      <point x="408" y="-8"/>
      <point x="400" y="8"/>
      <point x="387" y="27" type="qcurve" smooth="yes"/>
      <point x="369" y="53" type="line" smooth="yes"/>
      <point x="346" y="88"/>
      <point x="237" y="241" type="qcurve"/>
      <point x="147" y="151" type="line"/>
    </contour>
  </outline>
</glyph>
<glyph name="uni1E9E" format="1">
  <advance width="500" height="500"/>
  <unicode hex="1E9E"/>
  <outline>
    <contour>
      <point x="118" y="-2" type="qcurve" smooth="yes"/>
      <point x="102" y="-2"/>
      <point x="72" y="13"/>
      <point x="72" y="20" type="qcurve" smooth="yes"/>
      <point x="72" y="479" type="line" smooth="yes"/>
      <point x="72" y="610"/>
      <point x="127" y="670" type="qcurve" smooth="yes"/>
      <point x="176" y="720"/>
      <point x="249" y="720" type="qcurve" smooth="yes"/>
      <point x="322" y="720"/>
      <point x="402" y="636"/>
      <point x="402" y="575" type="qcurve" smooth="yes"/>
      <point x="402" y="514"/>
      <point x="334" y="434"/>
      <point x="246" y="404" type="qcurve"/>
      <point x="333" y="404"/>
      <point x="412" y="354"/>
      <point x="458" y="270"/>
      <point x="458" y="217" type="qcurve" smooth="yes"/>
      <point x="458" y="91"/>
      <point x="375" y="32" type="qcurve" smooth="yes"/>
      <point x="334" y="4"/>
      <point x="277" y="4" type="qcurve" smooth="yes"/>
      <point x="220" y="4"/>
      <point x="138" y="81"/>
      <point x="138" y="95" type="qcurve" smooth="yes"/>
      <point x="138" y="103"/>
      <point x="147" y="103" type="qcurve" smooth="yes"/>
      <point x="156" y="103"/>
      <point x="175" y="87" type="qcurve" smooth="yes"/>
      <point x="212" y="56"/>
      <point x="271" y="56" type="qcurve" smooth="yes"/>
      <point x="330" y="56"/>
      <point x="396" y="138"/>
      <point x="396" y="216" type="qcurve" smooth="yes"/>
      <point x="396" y="293"/>
      <point x="312" y="374"/>
      <point x="237" y="374" type="qcurve" smooth="yes"/>
      <point x="212" y="374"/>
      <point x="182" y="364" type="qcurve" smooth="yes"/>
      <point x="174" y="364"/>
      <point x="168" y="373" type="qcurve" smooth="yes"/>
      <point x="155" y="390"/>
      <point x="155" y="403" type="qcurve" smooth="yes"/>
      <point x="155" y="419"/>
      <point x="159" y="419" type="qcurve" smooth="yes"/>
      <point x="222" y="421"/>
      <point x="341" y="499"/>
      <point x="341" y="568" type="qcurve" smooth="yes"/>
      <point x="341" y="667"/>
      <point x="251" y="667" type="qcurve" smooth="yes"/>
      <point x="131" y="667"/>
      <point x="131" y="472" type="qcurve" smooth="yes"/>
      <point x="131" y="107"/>
      <point x="134" y="2" type="qcurve" smooth="yes"/>
      <point x="134" y="-2"/>
    </contour>
  </outline>
</glyph>
<glyph name="uni1EF5" format="1">
  <advance width="500" height="500"/>
  <unicode hex="1EF5"/>
  <outline>
    <contour>
      <point x="375" y="-176" type="qcurve" smooth="yes"/>
      <point x="355" y="-176"/>
      <point x="324" y="-139"/>
      <point x="324" y="-120" type="qcurve" smooth="yes"/>
      <point x="324" y="-77"/>
      <point x="365" y="-77" type="qcurve" smooth="yes"/>
      <point x="383" y="-77"/>
      <point x="415" y="-114"/>
      <point x="415" y="-134" type="qcurve" smooth="yes"/>
      <point x="415" y="-153"/>
      <point x="393" y="-176"/>
    </contour>
    <contour>
      <point x="137" y="-159" type="qcurve" smooth="yes"/>
      <point x="128" y="-159" type="line" smooth="yes"/>
      <point x="79" y="-159"/>
      <point x="48" y="-133" type="qcurve" smooth="yes"/>
      <point x="45" y="-128"/>
      <point x="45" y="-124" type="qcurve" smooth="yes"/>
      <point x="45" y="-112"/>
      <point x="61" y="-80"/>
      <point x="72" y="-80" type="qcurve" smooth="yes"/>
      <point x="79" y="-80"/>
      <point x="83" y="-86" type="qcurve" smooth="yes"/>
      <point x="102" y="-106"/>
      <point x="134" y="-106" type="qcurve" smooth="yes"/>
      <point x="166" y="-106"/>
      <point x="191" y="-49" type="qcurve" smooth="yes"/>
      <point x="231" y="46" type="line"/>
      <point x="80" y="427"/>
      <point x="62" y="461" type="qcurve"/>
      <point x="61" y="464" type="line" smooth="yes"/>
      <point x="61" y="468"/>
      <point x="81" y="475"/>
      <point x="95" y="475" type="qcurve" smooth="yes"/>
      <point x="124" y="475"/>
      <point x="128" y="464" type="qcurve" smooth="yes"/>
      <point x="139" y="432"/>
      <point x="261" y="118" type="qcurve"/>
      <point x="374" y="380" type="line" smooth="yes"/>
      <point x="393" y="424"/>
      <point x="406" y="473" type="qcurve" smooth="yes"/>
      <point x="408" y="480"/>
      <point x="420" y="480" type="qcurve" smooth="yes"/>
      <point x="433" y="480"/>
      <point x="462" y="459"/>
      <point x="462" y="447" type="qcurve" smooth="yes"/>
      <point x="462" y="443"/>
      <point x="459" y="436" type="qcurve" smooth="yes"/>
      <point x="433" y="383"/>
      <point x="234" y="-79" type="qcurve" smooth="yes"/>
      <point x="217" y="-120"/>
      <point x="172" y="-159"/>
    </contour>
  </outline>
</glyph>
<glyph name="uni1F70" format="1">
  <advance width="500" height="500"/>
  <unicode hex="1F70"/>
  <outline>
    <contour>
      <point x="334" y="575" type="qcurve" smooth="yes"/>
      <point x="329" y="575"/>
      <point x="310" y="587" type="qcurve" smooth="yes"/>
      <point x="259" y="620"/>
      <point x="170" y="660" type="qcurve" smooth="yes"/>
      <point x="162" y="664"/>
      <point x="162" y="673" type="qcurve" smooth="yes"/>
      <point x="162" y="682"/>
      <point x="194" y="711"/>
      <point x="203" y="711" type="qcurve" smooth="yes"/>
      <point x="211" y="711"/>
      <point x="216" y="708" type="qcurve" smooth="yes"/>
      <point x="295" y="651"/>
      <point x="346" y="601" type="qcurve" smooth="yes"/>
      <point x="351" y="595"/>
      <point x="351" y="590" type="qcurve" smooth="yes"/>
      <point x="351" y="575"/>
    </contour>
    <contour>
      <point x="234" y="-16" type="qcurve" smooth="yes"/>
      <point x="161" y="-16"/>
      <point x="78" y="53"/>
      <point x="41" y="162"/>
      <point x="41" y="233" type="qcurve" smooth="yes"/>
      <point x="41" y="304"/>
      <point x="97" y="420"/>
      <point x="188" y="484"/>
      <point x="236" y="484" type="qcurve" smooth="yes"/>
      <point x="336" y="484"/>
      <point x="366" y="425" type="qcurve"/>
      <point x="367" y="475" type="line" smooth="yes"/>
      <point x="367" y="484"/>
      <point x="383" y="484" type="qcurve" smooth="yes"/>
      <point x="399" y="484"/>
      <point x="429" y="469"/>
      <point x="429" y="458" type="qcurve" smooth="yes"/>
      <point x="426" y="424" type="line" smooth="yes"/>
      <point x="418" y="336"/>
      <point x="418" y="122" type="qcurve" smooth="yes"/>
      <point x="418" y="36"/>
      <point x="441" y="36" type="qcurve" smooth="yes"/>
      <point x="455" y="36"/>
      <point x="473" y="65" type="qcurve" smooth="yes"/>
      <point x="482" y="79"/>
      <point x="493" y="79" type="qcurve" smooth="yes"/>
      <point x="506" y="79"/>
      <point x="506" y="60" type="qcurve" smooth="yes"/>
      <point x="506" y="55"/>
      <point x="505" y="52" type="qcurve" smooth="yes"/>
      <point x="495" y="23"/>
      <point x="454" y="-11"/>
      <point x="430" y="-11" type="qcurve" smooth="yes"/>
      <point x="407" y="-11"/>
      <point x="371" y="33"/>
      <point x="369" y="69" type="qcurve"/>
      <point x="353" y="46" type="line" smooth="yes"/>
      <point x="307" y="-16"/>
    </contour>
    <contour>
      <point x="232" y="36" type="qcurve" smooth="yes"/>
      <point x="285" y="36"/>
      <point x="357" y="133"/>
      <point x="361" y="221" type="qcurve" smooth="yes"/>
      <point x="365" y="378" type="line" smooth="yes"/>
      <point x="365" y="381"/>
      <point x="344" y="381"/>
      <point x="341" y="386" type="qcurve" smooth="yes"/>
      <point x="319" y="415"/>
      <point x="276" y="435"/>
      <point x="243" y="435" type="qcurve" smooth="yes"/>
      <point x="211" y="435"/>
      <point x="143" y="389"/>
      <point x="97" y="297"/>
      <point x="97" y="237" type="qcurve" smooth="yes"/>
      <point x="97" y="177"/>
      <point x="110" y="132" type="qcurve" smooth="yes"/>
      <point x="135" y="36"/>
    </contour>
  </outline>
</glyph>
<glyph name="uni1F71" format="1">
  <advance width="500" height="500"/>
  <unicode hex="1F71"/>
  <outline>
    <contour>
      <point x="185" y="574" type="qcurve" smooth="yes"/>
      <point x="168" y="574"/>
      <point x="168" y="589" type="qcurve" smooth="yes"/>
      <point x="168" y="594"/>
      <point x="173" y="600" type="qcurve" smooth="yes"/>
      <point x="224" y="650"/>
      <point x="303" y="707" type="qcurve" smooth="yes"/>
      <point x="308" y="710"/>
      <point x="316" y="710" type="qcurve" smooth="yes"/>
      <point x="325" y="710"/>
      <point x="357" y="681"/>
      <point x="357" y="672" type="qcurve" smooth="yes"/>
      <point x="357" y="663"/>
      <point x="349" y="659" type="qcurve" smooth="yes"/>
      <point x="258" y="618"/>
      <point x="196" y="578" type="qcurve" smooth="yes"/>
      <point x="190" y="574"/>
    </contour>
    <contour>
      <point x="234" y="-16" type="qcurve" smooth="yes"/>
      <point x="161" y="-16"/>
      <point x="78" y="53"/>
      <point x="41" y="162"/>
      <point x="41" y="233" type="qcurve" smooth="yes"/>
      <point x="41" y="304"/>
      <point x="97" y="420"/>
      <point x="188" y="484"/>
      <point x="236" y="484" type="qcurve" smooth="yes"/>
      <point x="336" y="484"/>
      <point x="366" y="425" type="qcurve"/>
      <point x="367" y="475" type="line" smooth="yes"/>
      <point x="367" y="484"/>
      <point x="383" y="484" type="qcurve" smooth="yes"/>
      <point x="399" y="484"/>
      <point x="429" y="469"/>
      <point x="429" y="458" type="qcurve" smooth="yes"/>
      <point x="426" y="424" type="line" smooth="yes"/>
      <point x="418" y="336"/>
      <point x="418" y="122" type="qcurve" smooth="yes"/>
      <point x="418" y="36"/>
      <point x="441" y="36" type="qcurve" smooth="yes"/>
      <point x="455" y="36"/>
      <point x="473" y="65" type="qcurve" smooth="yes"/>
      <point x="482" y="79"/>
      <point x="493" y="79" type="qcurve" smooth="yes"/>
      <point x="506" y="79"/>
      <point x="506" y="60" type="qcurve" smooth="yes"/>
      <point x="506" y="55"/>
      <point x="505" y="52" type="qcurve" smooth="yes"/>
      <point x="495" y="23"/>
      <point x="454" y="-11"/>
      <point x="430" y="-11" type="qcurve" smooth="yes"/>
      <point x="407" y="-11"/>
      <point x="371" y="33"/>
      <point x="369" y="69" type="qcurve"/>
      <point x="353" y="46" type="line" smooth="yes"/>
      <point x="307" y="-16"/>
    </contour>
    <contour>
      <point x="232" y="36" type="qcurve" smooth="yes"/>
      <point x="285" y="36"/>
      <point x="357" y="133"/>
      <point x="361" y="221" type="qcurve" smooth="yes"/>
      <point x="365" y="378" type="line" smooth="yes"/>
      <point x="365" y="381"/>
      <point x="344" y="381"/>
      <point x="341" y="386" type="qcurve" smooth="yes"/>
      <point x="319" y="415"/>
      <point x="276" y="435"/>
      <point x="243" y="435" type="qcurve" smooth="yes"/>
      <point x="211" y="435"/>
      <point x="143" y="389"/>
      <point x="97" y="297"/>
      <point x="97" y="237" type="qcurve" smooth="yes"/>
      <point x="97" y="177"/>
      <point x="110" y="132" type="qcurve" smooth="yes"/>
      <point x="135" y="36"/>
    </contour>
  </outline>
</glyph>
<glyph name="uni0336" format="1">
  <advance width="1000" height="1000"/>
  <unicode hex="2014"/>
  <unicode hex="0336"/>
  <outline>
    <contour>
      <point x="1014" y="231"/>
      <point x="1000" y="231" type="qcurve" smooth="yes"/>
      <point x="0" y="231" type="line" smooth="yes"/>
      <point x="-14" y="231"/>
      <point x="-14" y="277"/>
      <point x="0" y="277" type="qcurve" smooth="yes"/>
      <point x="1000" y="277" type="line" smooth="yes"/>
      <point x="1014" y="277"/>
    </contour>
  </outline>
</glyph>
<glyph name="uni2015" format="1">
  <advance width="1000" height="1000"/>
  <unicode hex="2015"/>
  <outline>
    <contour>
      <point x="1014" y="357"/>
      <point x="1000" y="357" type="qcurve" smooth="yes"/>
      <point x="0" y="357" type="line" smooth="yes"/>
      <point x="-14" y="357"/>
      <point x="-14" y="403"/>
      <point x="0" y="403" type="qcurve" smooth="yes"/>
      <point x="1000" y="403" type="line" smooth="yes"/>
      <point x="1014" y="403"/>
    </contour>
  </outline>
</glyph>
<glyph name="bullet" format="1">
  <advance width="500" height="500"/>
  <unicode hex="2022"/>
  <outline>
    <contour>
      <point x="352" y="306" type="qcurve" smooth="yes"/>
      <point x="352" y="264"/>
      <point x="292" y="204"/>
      <point x="250" y="204" type="qcurve" smooth="yes"/>
      <point x="208" y="204"/>
      <point x="148" y="264"/>
      <point x="148" y="306" type="qcurve" smooth="yes"/>
      <point x="148" y="348"/>
      <point x="208" y="408"/>
      <point x="250" y="408" type="qcurve" smooth="yes"/>
      <point x="292" y="408"/>
      <point x="352" y="348"/>
    </contour>
  </outline>
</glyph>
<glyph name="twodotenleader" format="1">
  <advance width="1000" height="1000"/>
  <unicode hex="2025"/>
  <outline>
    <contour>
      <point x="755" y="330" type="qcurve" smooth="yes"/>
      <point x="735" y="330"/>
      <point x="704" y="367"/>
      <point x="704" y="406"/>
      <point x="725" y="430"/>
      <point x="763" y="430"/>
      <point x="795" y="392"/>
      <point x="795" y="372" type="qcurve" smooth="yes"/>
      <point x="795" y="330"/>
    </contour>
    <contour>
      <point x="256" y="330" type="qcurve" smooth="yes"/>
      <point x="236" y="330"/>
      <point x="205" y="367"/>
      <point x="205" y="406"/>
      <point x="226" y="430"/>
      <point x="264" y="430"/>
      <point x="296" y="392"/>
      <point x="296" y="372" type="qcurve" smooth="yes"/>
      <point x="296" y="330"/>
    </contour>
  </outline>
</glyph>
<glyph name="ellipsis" format="1">
  <advance width="1000" height="1000"/>
  <unicode hex="2026"/>
  <outline>
    <contour>
      <point x="839" y="330" type="qcurve" smooth="yes"/>
      <point x="819" y="330"/>
      <point x="788" y="367"/>
      <point x="788" y="406"/>
      <point x="809" y="430"/>
      <point x="847" y="430"/>
      <point x="879" y="392"/>
      <point x="879" y="372" type="qcurve" smooth="yes"/>
      <point x="879" y="330"/>
    </contour>
    <contour>
      <point x="505" y="330" type="qcurve" smooth="yes"/>
      <point x="485" y="330"/>
      <point x="454" y="367"/>
      <point x="454" y="406"/>
      <point x="475" y="430"/>
      <point x="513" y="430"/>
      <point x="545" y="392"/>
      <point x="545" y="372" type="qcurve" smooth="yes"/>
      <point x="545" y="330"/>
    </contour>
    <contour>
      <point x="173" y="330" type="qcurve" smooth="yes"/>
      <point x="153" y="330"/>
      <point x="122" y="367"/>
      <point x="122" y="406"/>
      <point x="143" y="430"/>
      <point x="181" y="430"/>
      <point x="213" y="392"/>
      <point x="213" y="372" type="qcurve" smooth="yes"/>
      <point x="213" y="330"/>
    </contour>
  </outline>
</glyph>
<glyph name="second" format="1">
  <advance width="500" height="500"/>
  <unicode hex="2033"/>
  <outline>
    <contour>
      <point x="187" y="807" type="line" smooth="yes"/>
      <point x="191" y="818"/>
      <point x="220" y="818"/>
      <point x="244" y="803"/>
      <point x="244" y="788"/>
      <point x="243" y="786" type="qcurve" smooth="yes"/>
      <point x="166" y="590" type="line" smooth="yes"/>
      <point x="163" y="582"/>
      <point x="141" y="582"/>
      <point x="120" y="594"/>
      <point x="120" y="606"/>
      <point x="121" y="607" type="qcurve" smooth="yes"/>
    </contour>
    <contour>
      <point x="328" y="801" type="line" smooth="yes"/>
      <point x="332" y="812"/>
      <point x="361" y="812"/>
      <point x="385" y="797"/>
      <point x="385" y="782"/>
      <point x="384" y="780" type="qcurve" smooth="yes"/>
      <point x="307" y="584" type="line" smooth="yes"/>
      <point x="304" y="576"/>
      <point x="282" y="576"/>
      <point x="261" y="588"/>
      <point x="261" y="600"/>
      <point x="262" y="601" type="qcurve" smooth="yes"/>
    </contour>
  </outline>
</glyph>
<glyph name="uni207A" format="1">
  <advance width="500" height="500"/>
  <unicode hex="207A"/>
  <outline>
    <contour>
      <point x="245" y="472" type="line" smooth="yes"/>
      <point x="245" y="457"/>
      <point x="211" y="457"/>
      <point x="193" y="469"/>
      <point x="193" y="477" type="qcurve" smooth="yes"/>
      <point x="193" y="478" type="line" smooth="yes"/>
      <point x="193" y="495"/>
      <point x="195" y="521" type="qcurve" smooth="yes"/>
      <point x="196" y="545" type="line"/>
      <point x="196" y="632" type="line"/>
      <point x="118" y="632" type="line" smooth="yes"/>
      <point x="104" y="632"/>
      <point x="76" y="630" type="qcurve" smooth="yes"/>
      <point x="46" y="629" type="line"/>
      <point x="44" y="629" type="line" smooth="yes"/>
      <point x="38" y="629"/>
      <point x="26" y="649"/>
      <point x="26" y="682"/>
      <point x="41" y="682" type="qcurve" smooth="yes"/>
      <point x="79" y="680"/>
      <point x="119" y="680" type="qcurve" smooth="yes"/>
      <point x="196" y="680" type="line"/>
      <point x="196" y="752" type="line" smooth="yes"/>
      <point x="196" y="792"/>
      <point x="194" y="830" type="qcurve" smooth="yes"/>
      <point x="194" y="845"/>
      <point x="227" y="845"/>
      <point x="247" y="833"/>
      <point x="247" y="827" type="qcurve" smooth="yes"/>
      <point x="247" y="825" type="line"/>
      <point x="246" y="795" type="line" smooth="yes"/>
      <point x="244" y="767"/>
      <point x="244" y="753" type="qcurve" smooth="yes"/>
      <point x="244" y="680" type="line"/>
      <point x="325" y="680" type="line"/>
      <point x="348" y="681" type="line" smooth="yes"/>
      <point x="374" y="683"/>
      <point x="392" y="683" type="qcurve" smooth="yes"/>
      <point x="393" y="683" type="line" smooth="yes"/>
      <point x="401" y="683"/>
      <point x="413" y="665"/>
      <point x="413" y="631"/>
      <point x="398" y="631" type="qcurve" smooth="yes"/>
      <point x="324" y="632" type="line"/>
      <point x="244" y="632" type="line"/>
      <point x="244" y="546" type="line"/>
    </contour>
    <contour>
      <point x="194" y="830" type="move" smooth="yes"/>
    </contour>
    <contour>
      <point x="41" y="682" type="move" smooth="yes"/>
    </contour>
  </outline>
</glyph>
<glyph name="uni207F" format="1">
  <advance width="500" height="500"/>
  <unicode hex="207F"/>
  <outline>
    <contour>
      <point x="389" y="323" type="line" smooth="yes"/>
      <point x="389" y="317"/>
      <point x="361" y="317"/>
      <point x="336" y="329"/>
      <point x="336" y="337" type="qcurve" smooth="yes"/>
      <point x="336" y="338" type="line"/>
      <point x="338" y="417" type="line"/>
      <point x="338" y="529" type="line" smooth="yes"/>
      <point x="338" y="582"/>
      <point x="309" y="637"/>
      <point x="230" y="637"/>
      <point x="164" y="583"/>
      <point x="146" y="524" type="qcurve" smooth="yes"/>
      <point x="133" y="482"/>
      <point x="133" y="409" type="qcurve" smooth="yes"/>
      <point x="134" y="353" type="line"/>
      <point x="134" y="353" type="line"/>
      <point x="135" y="342"/>
      <point x="135" y="323" type="qcurve" smooth="yes"/>
      <point x="135" y="317"/>
      <point x="108" y="317"/>
      <point x="82" y="330"/>
      <point x="82" y="338" type="qcurve" smooth="yes"/>
      <point x="83" y="417" type="line"/>
      <point x="83" y="587" type="line"/>
      <point x="81" y="674" type="line" smooth="yes"/>
      <point x="81" y="680"/>
      <point x="108" y="680"/>
      <point x="135" y="667"/>
      <point x="135" y="659" type="qcurve" smooth="yes"/>
      <point x="133" y="625"/>
      <point x="133" y="607" type="qcurve" smooth="yes"/>
      <point x="133" y="591" type="line"/>
      <point x="142" y="604" type="line" smooth="yes"/>
      <point x="169" y="642"/>
      <point x="235" y="683"/>
      <point x="269" y="683" type="qcurve" smooth="yes"/>
      <point x="387" y="683"/>
      <point x="387" y="533" type="qcurve" smooth="yes"/>
      <point x="387" y="409" type="line"/>
    </contour>
  </outline>
</glyph>
<glyph name="colonmonetary" format="1">
  <advance width="1000" height="1000"/>
  <unicode hex="20A1"/>
  <outline>
    <contour>
      <point x="331" y="104" type="line"/>
      <point x="348" y="155"/>
      <point x="492" y="638" type="qcurve"/>
      <point x="494" y="646" type="line"/>
      <point x="413" y="626"/>
      <point x="353" y="553" type="qcurve" smooth="yes"/>
      <point x="267" y="451"/>
      <point x="267" y="288" type="qcurve" smooth="yes"/>
      <point x="267" y="173"/>
      <point x="325" y="111" type="qcurve" smooth="yes"/>
    </contour>
    <contour>
      <point x="464" y="42" type="qcurve"/>
      <point x="643" y="642" type="line"/>
      <point x="613" y="654"/>
      <point x="559" y="654" type="qcurve" smooth="yes"/>
      <point x="545" y="654" type="line"/>
      <point x="370" y="74" type="line"/>
      <point x="384" y="68" type="line"/>
      <point x="385" y="68" type="line"/>
      <point x="415" y="52"/>
    </contour>
    <contour>
      <point x="506" y="-13" type="qcurve" smooth="yes"/>
      <point x="494" y="-13" type="line"/>
      <point x="484" y="-48" type="line" smooth="yes"/>
      <point x="482" y="-54"/>
      <point x="474" y="-81"/>
      <point x="472" y="-87" type="qcurve" smooth="yes"/>
      <point x="467" y="-97"/>
      <point x="449" y="-97"/>
      <point x="437" y="-87" type="qcurve" smooth="yes"/>
      <point x="426" y="-77"/>
      <point x="426" y="-59"/>
      <point x="439" y="-33"/>
      <point x="447" y="-9" type="qcurve"/>
      <point x="402" y="-1"/>
      <point x="353" y="18" type="qcurve"/>
      <point x="338" y="-26"/>
      <point x="335" y="-40" type="qcurve" smooth="yes"/>
      <point x="330" y="-64"/>
      <point x="322" y="-87" type="qcurve" smooth="yes"/>
      <point x="317" y="-97"/>
      <point x="299" y="-97"/>
      <point x="287" y="-87" type="qcurve" smooth="yes"/>
      <point x="276" y="-77"/>
      <point x="276" y="-59"/>
      <point x="292" y="-28"/>
      <point x="299" y="-3" type="qcurve" smooth="yes"/>
      <point x="303" y="8" type="line"/>
      <point x="303" y="9" type="line"/>
      <point x="313" y="41" type="line"/>
      <point x="274" y="67"/>
      <point x="205" y="184"/>
      <point x="205" y="282" type="qcurve" smooth="yes"/>
      <point x="205" y="468"/>
      <point x="306" y="588" type="qcurve" smooth="yes"/>
      <point x="389" y="687"/>
      <point x="509" y="704" type="qcurve"/>
      <point x="512" y="705" type="line"/>
      <point x="519" y="726"/>
      <point x="533" y="782"/>
      <point x="540" y="806"/>
      <point x="545" y="806" type="qcurve" smooth="yes"/>
      <point x="561" y="806"/>
      <point x="579" y="783" type="qcurve" smooth="yes"/>
      <point x="585" y="775"/>
      <point x="585" y="769" type="qcurve" smooth="yes"/>
      <point x="585" y="768" type="line"/>
      <point x="584" y="767" type="line"/>
      <point x="570" y="737"/>
      <point x="562" y="708" type="qcurve"/>
      <point x="569" y="708" type="line" smooth="yes"/>
      <point x="614" y="707"/>
      <point x="658" y="696" type="qcurve"/>
      <point x="667" y="719"/>
      <point x="683" y="782"/>
      <point x="690" y="806"/>
      <point x="695" y="806" type="qcurve" smooth="yes"/>
      <point x="711" y="806"/>
      <point x="729" y="783" type="qcurve" smooth="yes"/>
      <point x="735" y="775"/>
      <point x="735" y="769" type="qcurve" smooth="yes"/>
      <point x="735" y="768" type="line"/>
      <point x="734" y="767" type="line"/>
      <point x="721" y="738"/>
      <point x="710" y="702" type="qcurve" smooth="yes"/>
      <point x="704" y="684" type="line"/>
      <point x="703" y="680" type="line"/>
      <point x="742" y="661"/>
      <point x="773" y="625" type="qcurve" smooth="yes"/>
      <point x="775" y="622"/>
      <point x="775" y="605"/>
      <point x="752" y="574"/>
      <point x="743" y="574" type="qcurve" smooth="yes"/>
      <point x="734" y="574"/>
      <point x="729" y="581" type="qcurve" smooth="yes"/>
      <point x="715" y="603"/>
      <point x="686" y="623" type="qcurve"/>
      <point x="512" y="46" type="line"/>
      <point x="510" y="40" type="line"/>
      <point x="517" y="40" type="line" smooth="yes"/>
      <point x="567" y="43"/>
      <point x="611" y="57" type="qcurve" smooth="yes"/>
      <point x="727" y="100"/>
      <point x="789" y="182" type="qcurve" smooth="yes"/>
      <point x="799" y="195"/>
      <point x="818" y="195"/>
      <point x="818" y="175"/>
      <point x="805" y="152" type="qcurve" smooth="yes"/>
      <point x="771" y="95"/>
      <point x="702" y="48" type="qcurve" smooth="yes"/>
      <point x="614" y="-13"/>
    </contour>
    <contour>
      <point x="299" y="-3" type="line"/>
      <point x="299" y="-2" type="line"/>
    </contour>
    <contour>
      <point x="279" y="-53" type="qcurve" smooth="yes"/>
      <point x="278" y="-53" type="line"/>
      <point x="278" y="-53"/>
    </contour>
    <contour>
      <point x="429" y="-53" type="qcurve"/>
      <point x="428" y="-53" type="line" smooth="yes"/>
      <point x="429" y="-53"/>
    </contour>
  </outline>
</glyph>
<glyph name="uni20A2" format="1">
  <advance width="1000" height="1000"/>
  <unicode hex="20A2"/>
  <outline>
    <contour>
      <point x="788" y="181" type="qcurve"/>
      <point x="799" y="185"/>
      <point x="818" y="185"/>
      <point x="818" y="183"/>
      <point x="818" y="175"/>
      <point x="805" y="153" type="qcurve" smooth="yes"/>
      <point x="771" y="95"/>
      <point x="702" y="48" type="qcurve" smooth="yes"/>
      <point x="614" y="-13"/>
      <point x="506" y="-13" type="qcurve" smooth="yes"/>
      <point x="321" y="-13"/>
      <point x="244" y="117" type="qcurve" smooth="yes"/>
      <point x="205" y="184"/>
      <point x="205" y="282" type="qcurve" smooth="yes"/>
      <point x="205" y="468"/>
      <point x="407" y="708"/>
      <point x="703" y="708"/>
      <point x="773" y="625" type="qcurve" smooth="yes"/>
      <point x="775" y="622"/>
      <point x="775" y="605"/>
      <point x="752" y="574"/>
      <point x="743" y="574" type="qcurve" smooth="yes"/>
      <point x="734" y="574"/>
      <point x="729" y="581" type="qcurve" smooth="yes"/>
      <point x="682" y="654"/>
      <point x="559" y="654" type="qcurve" smooth="yes"/>
      <point x="436" y="654"/>
      <point x="353" y="553" type="qcurve" smooth="yes"/>
      <point x="267" y="451"/>
      <point x="267" y="288" type="qcurve" smooth="yes"/>
      <point x="267" y="124"/>
      <point x="385" y="68" type="qcurve" smooth="yes"/>
      <point x="432" y="44"/>
      <point x="482" y="41" type="qcurve" smooth="yes"/>
      <point x="487" y="41" type="line"/>
      <point x="487" y="46" type="line"/>
      <point x="488" y="106" type="line"/>
      <point x="488" y="317" type="line"/>
      <point x="485" y="424" type="line" smooth="yes"/>
      <point x="485" y="429"/>
      <point x="515" y="429"/>
      <point x="548" y="416"/>
      <point x="548" y="408" type="qcurve" smooth="yes"/>
      <point x="545" y="355" type="line"/>
      <point x="545" y="337" type="line"/>
      <point x="554" y="352" type="line" smooth="yes"/>
      <point x="574" y="384"/>
      <point x="645" y="431"/>
      <point x="685" y="431" type="qcurve" smooth="yes"/>
      <point x="753" y="431"/>
      <point x="791" y="398" type="qcurve" smooth="yes"/>
      <point x="806" y="386"/>
      <point x="806" y="361"/>
      <point x="785" y="329"/>
      <point x="770" y="329"/>
      <point x="765" y="336" type="qcurve" smooth="yes"/>
      <point x="755" y="357"/>
      <point x="709" y="376"/>
      <point x="693" y="376" type="qcurve" smooth="yes"/>
      <point x="649" y="376"/>
      <point x="612" y="349" type="qcurve" smooth="yes"/>
      <point x="558" y="310"/>
      <point x="548" y="217" type="qcurve" smooth="yes"/>
      <point x="544" y="180"/>
      <point x="544" y="106" type="qcurve" smooth="yes"/>
      <point x="547" y="49" type="line"/>
      <point x="547" y="43" type="line"/>
      <point x="588" y="50"/>
      <point x="611" y="57" type="qcurve" smooth="yes"/>
      <point x="662" y="76"/>
      <point x="757" y="140"/>
    </contour>
    <contour>
      <point x="765" y="336" type="line"/>
      <point x="765" y="337" type="line"/>
    </contour>
  </outline>
</glyph>
<glyph name="franc" format="1">
  <advance width="1000" height="1000"/>
  <unicode hex="20A3"/>
  <outline>
    <contour>
      <point x="320" y="228" type="line"/>
      <point x="320" y="367" type="line"/>
      <point x="310" y="370"/>
      <point x="293" y="403"/>
      <point x="293" y="419"/>
      <point x="296" y="419" type="qcurve" smooth="yes"/>
      <point x="297" y="419" type="line" smooth="yes"/>
      <point x="306" y="417"/>
      <point x="315" y="417" type="qcurve" smooth="yes"/>
      <point x="320" y="417" type="line"/>
      <point x="320" y="634" type="line"/>
      <point x="316" y="685" type="line" smooth="yes"/>
      <point x="316" y="694"/>
      <point x="338" y="694"/>
      <point x="371" y="684"/>
      <point x="375" y="682" type="qcurve" smooth="yes"/>
      <point x="376" y="681" type="line"/>
      <point x="378" y="681" type="line"/>
      <point x="649" y="699" type="line" smooth="yes"/>
      <point x="673" y="701"/>
      <point x="698" y="704" type="qcurve" smooth="yes"/>
      <point x="723" y="707"/>
      <point x="743" y="707"/>
      <point x="761" y="676"/>
      <point x="761" y="650"/>
      <point x="753" y="650" type="qcurve" smooth="yes"/>
      <point x="691" y="650" type="line" smooth="yes"/>
      <point x="664" y="650"/>
      <point x="650" y="649" type="qcurve" smooth="yes"/>
      <point x="385" y="631" type="line"/>
      <point x="380" y="631" type="line"/>
      <point x="380" y="418" type="line"/>
      <point x="385" y="418" type="line"/>
      <point x="594" y="431" type="line" smooth="yes"/>
      <point x="618" y="433"/>
      <point x="643" y="436" type="qcurve" smooth="yes"/>
      <point x="668" y="439"/>
      <point x="688" y="439"/>
      <point x="706" y="408"/>
      <point x="706" y="382"/>
      <point x="698" y="382" type="qcurve" smooth="yes"/>
      <point x="635" y="382" type="line" smooth="yes"/>
      <point x="609" y="382"/>
      <point x="595" y="381" type="qcurve" smooth="yes"/>
      <point x="385" y="369" type="line"/>
      <point x="380" y="369" type="line"/>
      <point x="380" y="228" type="line"/>
      <point x="489" y="228" type="line" smooth="yes"/>
      <point x="518" y="228"/>
      <point x="560" y="231" type="qcurve" smooth="yes"/>
      <point x="561" y="231" type="line" smooth="yes"/>
      <point x="569" y="231"/>
      <point x="573" y="221" type="qcurve" smooth="yes"/>
      <point x="579" y="209"/>
      <point x="579" y="178"/>
      <point x="569" y="178" type="qcurve" smooth="yes"/>
      <point x="488" y="180" type="line"/>
      <point x="380" y="180" type="line"/>
      <point x="380" y="107" type="line"/>
      <point x="383" y="1" type="line" smooth="yes"/>
      <point x="383" y="-4"/>
      <point x="352" y="-4"/>
      <point x="318" y="9"/>
      <point x="318" y="19" type="qcurve" smooth="yes"/>
      <point x="320" y="108" type="line"/>
      <point x="320" y="180" type="line"/>
      <point x="315" y="180" type="line" smooth="yes"/>
      <point x="270" y="180"/>
      <point x="255" y="177" type="qcurve" smooth="yes"/>
      <point x="254" y="177" type="line" smooth="yes"/>
      <point x="248" y="177"/>
      <point x="239" y="199"/>
      <point x="239" y="230"/>
      <point x="250" y="230" type="qcurve" smooth="yes"/>
      <point x="275" y="228"/>
      <point x="315" y="228" type="qcurve" smooth="yes"/>
    </contour>
    <contour>
      <point x="316" y="685" type="move" smooth="yes"/>
    </contour>
  </outline>
</glyph>
<glyph name="lira" format="1">
  <advance width="1000" height="1000"/>
  <unicode hex="20A4"/>
  <outline>
    <contour>
      <point x="586" y="-4" type="qcurve" smooth="yes"/>
      <point x="436" y="20"/>
      <point x="333" y="20"/>
      <point x="280" y="4"/>
      <point x="235" y="-12"/>
      <point x="186" y="-12"/>
      <point x="186" y="-1"/>
      <point x="189" y="11" type="qcurve" smooth="yes"/>
      <point x="195" y="43"/>
      <point x="211" y="43" type="qcurve" smooth="yes"/>
      <point x="220" y="43" type="line" smooth="yes"/>
      <point x="280" y="43"/>
      <point x="301" y="88" type="qcurve" smooth="yes"/>
      <point x="332" y="147"/>
      <point x="336" y="238" type="qcurve"/>
      <point x="336" y="243" type="line"/>
      <point x="331" y="243" type="line"/>
      <point x="298" y="242" type="line" smooth="yes"/>
      <point x="237" y="242"/>
      <point x="219" y="239" type="qcurve" smooth="yes"/>
      <point x="218" y="239" type="line" smooth="yes"/>
      <point x="213" y="239"/>
      <point x="204" y="263"/>
      <point x="204" y="295"/>
      <point x="215" y="295" type="qcurve" smooth="yes"/>
      <point x="244" y="293"/>
      <point x="299" y="293" type="qcurve" smooth="yes"/>
      <point x="328" y="294" type="line"/>
      <point x="334" y="294" type="line"/>
      <point x="333" y="300" type="line" smooth="yes"/>
      <point x="332" y="308"/>
      <point x="331" y="316" type="qcurve" smooth="yes"/>
      <point x="326" y="372" type="line" smooth="yes"/>
      <point x="324" y="394"/>
      <point x="323" y="411" type="qcurve" smooth="yes"/>
      <point x="323" y="416" type="line"/>
      <point x="298" y="416" type="line" smooth="yes"/>
      <point x="237" y="416"/>
      <point x="219" y="413" type="qcurve" smooth="yes"/>
      <point x="218" y="413" type="line" smooth="yes"/>
      <point x="213" y="413"/>
      <point x="204" y="436"/>
      <point x="204" y="468"/>
      <point x="215" y="468" type="qcurve" smooth="yes"/>
      <point x="244" y="466"/>
      <point x="299" y="466" type="qcurve" smooth="yes"/>
      <point x="319" y="466" type="line"/>
      <point x="319" y="478" type="line" smooth="yes"/>
      <point x="319" y="548"/>
      <point x="344" y="600" type="qcurve" smooth="yes"/>
      <point x="369" y="652"/>
      <point x="456" y="709"/>
      <point x="573" y="709"/>
      <point x="619" y="695" type="qcurve" smooth="yes"/>
      <point x="696" y="673"/>
      <point x="737" y="635" type="qcurve" smooth="yes"/>
      <point x="741" y="632"/>
      <point x="741" y="615"/>
      <point x="714" y="589"/>
      <point x="696" y="589"/>
      <point x="692" y="593" type="qcurve" smooth="yes"/>
      <point x="623" y="658"/>
      <point x="420" y="658"/>
      <point x="391" y="559" type="qcurve" smooth="yes"/>
      <point x="379" y="519"/>
      <point x="379" y="486" type="qcurve" smooth="yes"/>
      <point x="379" y="468" type="line"/>
      <point x="384" y="468" type="line"/>
      <point x="546" y="472" type="line" smooth="yes"/>
      <point x="559" y="472"/>
      <point x="621" y="475" type="qcurve" smooth="yes"/>
      <point x="622" y="475" type="line" smooth="yes"/>
      <point x="628" y="475"/>
      <point x="633" y="466" type="qcurve" smooth="yes"/>
      <point x="638" y="455"/>
      <point x="638" y="421"/>
      <point x="626" y="421" type="qcurve" smooth="yes"/>
      <point x="546" y="422" type="line"/>
      <point x="387" y="418" type="line"/>
      <point x="382" y="418" type="line"/>
      <point x="382" y="413" type="line" smooth="yes"/>
      <point x="383" y="395"/>
      <point x="385" y="374" type="qcurve" smooth="yes"/>
      <point x="390" y="317" type="line" smooth="yes"/>
      <point x="392" y="300"/>
      <point x="393" y="295" type="qcurve"/>
      <point x="397" y="295" type="line"/>
      <point x="546" y="299" type="line" smooth="yes"/>
      <point x="559" y="299"/>
      <point x="621" y="301" type="qcurve" smooth="yes"/>
      <point x="622" y="301" type="line" smooth="yes"/>
      <point x="628" y="301"/>
      <point x="633" y="292" type="qcurve" smooth="yes"/>
      <point x="638" y="281"/>
      <point x="638" y="247"/>
      <point x="626" y="247" type="qcurve" smooth="yes"/>
      <point x="546" y="248" type="line"/>
      <point x="397" y="244" type="line"/>
      <point x="392" y="244" type="line"/>
      <point x="392" y="239" type="line"/>
      <point x="388" y="132"/>
      <point x="352" y="70" type="qcurve"/>
      <point x="370" y="70" type="line" smooth="yes"/>
      <point x="401" y="70"/>
      <point x="649" y="35"/>
      <point x="671" y="35" type="qcurve" smooth="yes"/>
      <point x="738" y="35"/>
      <point x="779" y="58" type="qcurve" smooth="yes"/>
      <point x="791" y="64"/>
      <point x="811" y="64"/>
      <point x="811" y="58" type="qcurve" smooth="yes"/>
      <point x="811" y="49"/>
      <point x="777" y="16"/>
      <point x="747" y="2" type="qcurve" smooth="yes"/>
      <point x="717" y="-12"/>
      <point x="636" y="-12"/>
    </contour>
    <contour>
      <point x="215" y="468" type="move" smooth="yes"/>
    </contour>
    <contour>
      <point x="215" y="295" type="move" smooth="yes"/>
    </contour>
    <contour>
      <point x="621" y="475" type="move" smooth="yes"/>
    </contour>
  </outline>
</glyph>
<glyph name="uni20A5" format="1">
  <advance width="1000" height="1000"/>
  <unicode hex="20A5"/>
  <outline>
    <contour>
      <point x="249" y="456" type="qcurve" smooth="yes"/>
      <point x="248" y="397" type="line"/>
      <point x="248" y="375" type="line"/>
      <point x="257" y="395" type="line" smooth="yes"/>
      <point x="277" y="435"/>
      <point x="351" y="481"/>
      <point x="448" y="481"/>
      <point x="503" y="427"/>
      <point x="512" y="392" type="qcurve" smooth="yes"/>
      <point x="515" y="380" type="line"/>
      <point x="521" y="390" type="line" smooth="yes"/>
      <point x="527" y="400"/>
      <point x="534" y="410" type="qcurve"/>
      <point x="534" y="411" type="line"/>
      <point x="535" y="411" type="line"/>
      <point x="588" y="558" type="line" smooth="yes"/>
      <point x="603" y="601"/>
      <point x="612" y="637" type="qcurve" smooth="yes"/>
      <point x="614" y="646"/>
      <point x="627" y="646"/>
      <point x="637" y="640" type="qcurve" smooth="yes"/>
      <point x="660" y="623"/>
      <point x="660" y="609" type="qcurve" smooth="yes"/>
      <point x="659" y="606"/>
      <point x="645" y="578"/>
      <point x="631" y="542" type="qcurve" smooth="yes"/>
      <point x="607" y="477" type="line"/>
      <point x="604" y="467" type="line"/>
      <point x="614" y="470" type="line" smooth="yes"/>
      <point x="643" y="481"/>
      <point x="720" y="481"/>
      <point x="752" y="454" type="qcurve" smooth="yes"/>
      <point x="812" y="404"/>
      <point x="812" y="297" type="qcurve" smooth="yes"/>
      <point x="812" y="105" type="line"/>
      <point x="815" y="-1" type="line" smooth="yes"/>
      <point x="815" y="-6"/>
      <point x="785" y="-6"/>
      <point x="752" y="7"/>
      <point x="752" y="17" type="qcurve" smooth="yes"/>
      <point x="756" y="105" type="line"/>
      <point x="756" y="293" type="line" smooth="yes"/>
      <point x="756" y="354"/>
      <point x="714" y="431"/>
      <point x="667" y="431" type="qcurve" smooth="yes"/>
      <point x="619" y="431"/>
      <point x="574" y="383" type="qcurve" smooth="yes"/>
      <point x="573" y="382" type="line"/>
      <point x="526" y="253" type="line"/>
      <point x="526" y="251" type="line"/>
      <point x="525" y="161" type="line"/>
      <point x="525" y="134" type="line" smooth="yes"/>
      <point x="525" y="121"/>
      <point x="526" y="105" type="qcurve" smooth="yes"/>
      <point x="531" y="-1" type="line" smooth="yes"/>
      <point x="531" y="-6"/>
      <point x="501" y="-6"/>
      <point x="469" y="7"/>
      <point x="469" y="17" type="qcurve" smooth="yes"/>
      <point x="472" y="75" type="line"/>
      <point x="474" y="108" type="line"/>
      <point x="415" y="-51" type="line" smooth="yes"/>
      <point x="398" y="-98"/>
      <point x="389" y="-128" type="qcurve" smooth="yes"/>
      <point x="386" y="-137"/>
      <point x="366" y="-137"/>
      <point x="354" y="-127" type="qcurve" smooth="yes"/>
      <point x="343" y="-117"/>
      <point x="343" y="-98"/>
      <point x="345" y="-93" type="qcurve" smooth="yes"/>
      <point x="364" y="-60"/>
      <point x="374" y="-32" type="qcurve" smooth="yes"/>
      <point x="473" y="241" type="line"/>
      <point x="473" y="293" type="line" smooth="yes"/>
      <point x="473" y="431"/>
      <point x="394" y="431" type="qcurve" smooth="yes"/>
      <point x="340" y="431"/>
      <point x="299" y="383" type="qcurve" smooth="yes"/>
      <point x="251" y="324"/>
      <point x="247" y="210" type="qcurve" smooth="yes"/>
      <point x="246" y="156"/>
      <point x="245" y="105" type="qcurve" smooth="yes"/>
      <point x="250" y="-1" type="line" smooth="yes"/>
      <point x="250" y="-6"/>
      <point x="220" y="-6"/>
      <point x="187" y="7"/>
      <point x="187" y="17" type="qcurve" smooth="yes"/>
      <point x="189" y="105" type="line"/>
      <point x="189" y="356" type="line"/>
      <point x="186" y="472" type="line" smooth="yes"/>
      <point x="186" y="477"/>
      <point x="216" y="477"/>
      <point x="249" y="464"/>
    </contour>
    <contour>
      <point x="469" y="17" type="move" smooth="yes"/>
    </contour>
    <contour>
      <point x="752" y="17" type="move" smooth="yes"/>
    </contour>
    <contour>
      <point x="637" y="640" type="move" smooth="yes"/>
    </contour>
  </outline>
</glyph>
<glyph name="uni20A6" format="1">
  <advance width="1000" height="1000"/>
  <unicode hex="20A6"/>
  <outline>
    <contour>
      <point x="702" y="248" type="line"/>
      <point x="591" y="248" type="line"/>
      <point x="617" y="207"/>
      <point x="693" y="101" type="qcurve" smooth="yes"/>
      <point x="702" y="89" type="line"/>
    </contour>
    <contour>
      <point x="479" y="418" type="line"/>
      <point x="558" y="296" type="line"/>
      <point x="702" y="296" type="line"/>
      <point x="702" y="418" type="line"/>
    </contour>
    <contour>
      <point x="301" y="466" type="line"/>
      <point x="380" y="466" type="line"/>
      <point x="356" y="505"/>
      <point x="310" y="582" type="qcurve" smooth="yes"/>
      <point x="301" y="597" type="line"/>
    </contour>
    <contour>
      <point x="489" y="296" type="line"/>
      <point x="411" y="418" type="line"/>
      <point x="301" y="418" type="line"/>
      <point x="301" y="296" type="line"/>
    </contour>
    <contour>
      <point x="860" y="296" type="line" smooth="yes"/>
      <point x="874" y="296"/>
      <point x="874" y="248"/>
      <point x="860" y="248" type="qcurve" smooth="yes"/>
      <point x="761" y="248" type="line"/>
      <point x="761" y="87" type="line"/>
      <point x="765" y="32" type="line" smooth="yes"/>
      <point x="765" y="24"/>
      <point x="757" y="15" type="qcurve" smooth="yes"/>
      <point x="736" y="-8"/>
      <point x="717" y="-8" type="qcurve" smooth="yes"/>
      <point x="698" y="-8"/>
      <point x="680" y="18"/>
      <point x="633" y="84" type="qcurve" smooth="yes"/>
      <point x="530" y="231"/>
      <point x="521" y="248" type="qcurve"/>
      <point x="301" y="248" type="line"/>
      <point x="301" y="105" type="line"/>
      <point x="304" y="-1" type="line" smooth="yes"/>
      <point x="304" y="-6"/>
      <point x="274" y="-6"/>
      <point x="240" y="7"/>
      <point x="240" y="17" type="qcurve" smooth="yes"/>
      <point x="242" y="106" type="line"/>
      <point x="242" y="248" type="line"/>
      <point x="150" y="248" type="line" smooth="yes"/>
      <point x="136" y="248"/>
      <point x="136" y="296"/>
      <point x="150" y="296" type="qcurve" smooth="yes"/>
      <point x="242" y="296" type="line"/>
      <point x="242" y="418" type="line"/>
      <point x="150" y="418" type="line" smooth="yes"/>
      <point x="136" y="418"/>
      <point x="136" y="466"/>
      <point x="150" y="466" type="qcurve" smooth="yes"/>
      <point x="242" y="466" type="line"/>
      <point x="242" y="642" type="line"/>
      <point x="235" y="678" type="line" smooth="yes"/>
      <point x="235" y="689"/>
      <point x="276" y="703"/>
      <point x="286" y="703" type="qcurve" smooth="yes"/>
      <point x="303" y="703"/>
      <point x="309" y="696" type="qcurve" smooth="yes"/>
      <point x="334" y="650"/>
      <point x="447" y="468" type="qcurve"/>
      <point x="448" y="466" type="line"/>
      <point x="702" y="466" type="line"/>
      <point x="702" y="589" type="line"/>
      <point x="698" y="695" type="line" smooth="yes"/>
      <point x="698" y="700"/>
      <point x="730" y="700"/>
      <point x="763" y="687"/>
      <point x="763" y="677" type="qcurve" smooth="yes"/>
      <point x="761" y="588" type="line"/>
      <point x="761" y="466" type="line"/>
      <point x="860" y="466" type="line" smooth="yes"/>
      <point x="874" y="466"/>
      <point x="874" y="418"/>
      <point x="860" y="418" type="qcurve" smooth="yes"/>
      <point x="761" y="418" type="line"/>
      <point x="761" y="296" type="line"/>
    </contour>
  </outline>
</glyph>
<glyph name="peseta" format="1">
  <advance width="1000" height="1000"/>
  <unicode hex="20A7"/>
  <outline>
    <contour>
      <point x="171" y="353" type="line"/>
      <point x="184" y="361"/>
      <point x="189" y="361" type="qcurve" smooth="yes"/>
      <point x="358" y="372"/>
      <point x="508" y="473"/>
      <point x="508" y="541" type="qcurve" smooth="yes"/>
      <point x="508" y="653"/>
      <point x="318" y="653" type="qcurve" smooth="yes"/>
      <point x="255" y="653"/>
      <point x="171" y="632" type="qcurve"/>
    </contour>
    <contour>
      <point x="111" y="623" type="line"/>
      <point x="105" y="623" type="line" smooth="yes"/>
      <point x="92" y="623"/>
      <point x="65" y="656"/>
      <point x="65" y="673"/>
      <point x="70" y="673" type="qcurve" smooth="yes"/>
      <point x="236" y="705"/>
      <point x="293" y="706"/>
      <point x="320" y="706" type="qcurve" smooth="yes"/>
      <point x="570" y="706"/>
      <point x="570" y="542" type="qcurve" smooth="yes"/>
      <point x="570" y="461"/>
      <point x="517" y="411" type="qcurve" smooth="yes"/>
      <point x="425" y="325"/>
      <point x="215" y="325" type="qcurve" smooth="yes"/>
      <point x="200" y="325" type="line" smooth="yes"/>
      <point x="185" y="325"/>
      <point x="171" y="333" type="qcurve"/>
      <point x="171" y="115" type="line"/>
      <point x="174" y="-1" type="line" smooth="yes"/>
      <point x="174" y="-6"/>
      <point x="143" y="-6"/>
      <point x="109" y="7"/>
      <point x="109" y="17" type="qcurve" smooth="yes"/>
      <point x="111" y="116" type="line"/>
    </contour>
    <contour>
      <point x="674" y="429" type="line"/>
      <point x="665" y="429" type="line" smooth="yes"/>
      <point x="663" y="429"/>
      <point x="603" y="425" type="qcurve"/>
      <point x="602" y="425" type="line" smooth="yes"/>
      <point x="593" y="425"/>
      <point x="575" y="452"/>
      <point x="575" y="472"/>
      <point x="582" y="472" type="qcurve" smooth="yes"/>
      <point x="674" y="472" type="line"/>
      <point x="674" y="528" type="line"/>
      <point x="672" y="635" type="line" smooth="yes"/>
      <point x="672" y="640"/>
      <point x="702" y="640"/>
      <point x="734" y="627"/>
      <point x="734" y="617" type="qcurve" smooth="yes"/>
      <point x="732" y="528" type="line"/>
      <point x="732" y="475" type="line"/>
      <point x="737" y="475" type="line"/>
      <point x="765" y="476" type="line" smooth="yes"/>
      <point x="801" y="478"/>
      <point x="841" y="482" type="qcurve"/>
      <point x="842" y="482" type="line" smooth="yes"/>
      <point x="852" y="482"/>
      <point x="869" y="456"/>
      <point x="869" y="434"/>
      <point x="863" y="434" type="qcurve" smooth="yes"/>
      <point x="824" y="434" type="line" smooth="yes"/>
      <point x="796" y="434"/>
      <point x="776" y="433" type="qcurve" smooth="yes"/>
      <point x="737" y="432" type="line"/>
      <point x="732" y="432" type="line"/>
      <point x="732" y="108" type="line" smooth="yes"/>
      <point x="732" y="67"/>
      <point x="740" y="54" type="qcurve" smooth="yes"/>
      <point x="748" y="41"/>
      <point x="770" y="41" type="qcurve" smooth="yes"/>
      <point x="814" y="41"/>
      <point x="869" y="83" type="qcurve" smooth="yes"/>
      <point x="885" y="95"/>
      <point x="898" y="95"/>
      <point x="898" y="90" type="qcurve" smooth="yes"/>
      <point x="898" y="71"/>
      <point x="855" y="30" type="qcurve" smooth="yes"/>
      <point x="806" y="-13"/>
      <point x="715" y="-13"/>
      <point x="674" y="48"/>
      <point x="674" y="110" type="qcurve" smooth="yes"/>
    </contour>
  </outline>
</glyph>
<glyph name="uni2100" format="1">
  <advance width="1000" height="1000"/>
  <unicode hex="2100"/>
  <outline>
    <contour>
      <point x="177" y="11" type="line" smooth="yes"/>
      <point x="147" y="-19"/>
      <point x="94" y="-80" type="qcurve" smooth="yes"/>
      <point x="88" y="-86"/>
      <point x="73" y="-86"/>
      <point x="58" y="-60"/>
      <point x="58" y="-36"/>
      <point x="63" y="-32" type="qcurve" smooth="yes"/>
      <point x="102" y="1"/>
      <point x="145" y="44" type="qcurve" smooth="yes"/>
      <point x="836" y="739" type="line" smooth="yes"/>
      <point x="855" y="759"/>
      <point x="900" y="806"/>
      <point x="919" y="830" type="qcurve" smooth="yes"/>
      <point x="925" y="837"/>
      <point x="940" y="837"/>
      <point x="955" y="810"/>
      <point x="955" y="786"/>
      <point x="950" y="782" type="qcurve" smooth="yes"/>
      <point x="932" y="765"/>
      <point x="888" y="727"/>
      <point x="868" y="706" type="qcurve" smooth="yes"/>
    </contour>
    <contour>
      <point x="377" y="721" type="qcurve"/>
      <point x="378" y="767" type="line" smooth="yes"/>
      <point x="378" y="775"/>
      <point x="407" y="775"/>
      <point x="435" y="764"/>
      <point x="435" y="754" type="qcurve" smooth="yes"/>
      <point x="435" y="752" type="line"/>
      <point x="424" y="680"/>
      <point x="424" y="493"/>
      <point x="436" y="422"/>
      <point x="454" y="393" type="qcurve" smooth="yes"/>
      <point x="456" y="389"/>
      <point x="456" y="376"/>
      <point x="434" y="355"/>
      <point x="409" y="355"/>
      <point x="399" y="376" type="qcurve" smooth="yes"/>
      <point x="379" y="418"/>
      <point x="376" y="463" type="qcurve"/>
      <point x="344" y="403"/>
      <point x="251" y="348"/>
      <point x="142" y="348"/>
      <point x="66" y="432"/>
      <point x="66" y="512" type="qcurve" smooth="yes"/>
      <point x="66" y="619"/>
      <point x="130" y="698" type="qcurve" smooth="yes"/>
      <point x="194" y="777"/>
      <point x="277" y="777" type="qcurve" smooth="yes"/>
      <point x="306" y="777"/>
      <point x="362" y="750"/>
    </contour>
    <contour>
      <point x="377" y="686" type="qcurve"/>
      <point x="373" y="680"/>
      <point x="357" y="680"/>
      <point x="354" y="685" type="qcurve" smooth="yes"/>
      <point x="324" y="732"/>
      <point x="240" y="732"/>
      <point x="167" y="674"/>
      <point x="119" y="577"/>
      <point x="119" y="452"/>
      <point x="166" y="394"/>
      <point x="245" y="394"/>
      <point x="321" y="448"/>
      <point x="346" y="497" type="qcurve" smooth="yes"/>
      <point x="376" y="554"/>
      <point x="376" y="644" type="qcurve" smooth="yes"/>
      <point x="376" y="666"/>
    </contour>
    <contour>
      <point x="928" y="93" type="qcurve" smooth="yes"/>
      <point x="928" y="87"/>
      <point x="904" y="44"/>
      <point x="879" y="18" type="qcurve" smooth="yes"/>
      <point x="818" y="-45"/>
      <point x="727" y="-45" type="qcurve" smooth="yes"/>
      <point x="682" y="-45"/>
      <point x="607" y="-3"/>
      <point x="562" y="78"/>
      <point x="562" y="187"/>
      <point x="599" y="277"/>
      <point x="630" y="311" type="qcurve" smooth="yes"/>
      <point x="697" y="384"/>
      <point x="780" y="384" type="qcurve" smooth="yes"/>
      <point x="821" y="384"/>
      <point x="876" y="355"/>
      <point x="903" y="320"/>
      <point x="903" y="298"/>
      <point x="883" y="275"/>
      <point x="866" y="275"/>
      <point x="858" y="292"/>
      <point x="848" y="305" type="qcurve" smooth="yes"/>
      <point x="824" y="338"/>
      <point x="742" y="338"/>
      <point x="664" y="283"/>
      <point x="613" y="193"/>
      <point x="613" y="93"/>
      <point x="648" y="31"/>
      <point x="700" y="2"/>
      <point x="767" y="2"/>
      <point x="798" y="16" type="qcurve" smooth="yes"/>
      <point x="845" y="36"/>
      <point x="899" y="90" type="qcurve" smooth="yes"/>
      <point x="911" y="103"/>
      <point x="928" y="103"/>
    </contour>
  </outline>
</glyph>
<glyph name="uni212B" format="1">
  <advance width="1000" height="1000"/>
  <unicode hex="212B"/>
  <outline>
    <contour>
      <point x="589" y="746" type="qcurve" smooth="yes"/>
      <point x="589" y="711"/>
      <point x="538" y="660"/>
      <point x="503" y="660" type="qcurve" smooth="yes"/>
      <point x="468" y="660"/>
      <point x="417" y="711"/>
      <point x="417" y="746" type="qcurve" smooth="yes"/>
      <point x="417" y="781"/>
      <point x="468" y="832"/>
      <point x="503" y="832" type="qcurve" smooth="yes"/>
      <point x="538" y="832"/>
      <point x="589" y="781"/>
    </contour>
    <contour>
      <point x="557" y="724"/>
      <point x="557" y="769"/>
      <point x="526" y="800"/>
      <point x="481" y="800"/>
      <point x="449" y="769"/>
      <point x="449" y="724"/>
      <point x="481" y="692"/>
      <point x="526" y="692"/>
    </contour>
    <contour>
      <point x="474" y="639"/>
      <point x="488" y="650"/>
      <point x="510" y="650"/>
      <point x="546" y="630"/>
      <point x="546" y="616" type="qcurve" smooth="yes"/>
      <point x="546" y="603" type="line" smooth="yes"/>
      <point x="546" y="589"/>
      <point x="600" y="460" type="qcurve" smooth="yes"/>
      <point x="740" y="127"/>
      <point x="802" y="18" type="qcurve" smooth="yes"/>
      <point x="819" y="-12"/>
      <point x="828" y="-25" type="qcurve" smooth="yes"/>
      <point x="839" y="-41"/>
      <point x="839" y="-45" type="qcurve" smooth="yes"/>
      <point x="839" y="-55"/>
      <point x="810" y="-67"/>
      <point x="798" y="-67" type="qcurve" smooth="yes"/>
      <point x="771" y="-67"/>
      <point x="767" y="-56" type="qcurve" smooth="yes"/>
      <point x="750" y="-5"/>
      <point x="665" y="180" type="qcurve"/>
      <point x="322" y="167" type="line"/>
      <point x="306" y="133"/>
      <point x="273" y="69"/>
      <point x="262" y="46" type="qcurve" smooth="yes"/>
      <point x="232" y="-15"/>
      <point x="220" y="-49" type="qcurve" smooth="yes"/>
      <point x="214" y="-66"/>
      <point x="150" y="-66"/>
      <point x="150" y="-50" type="qcurve" smooth="yes"/>
      <point x="150" y="-43"/>
      <point x="161" y="-27"/>
      <point x="173" y="-7"/>
      <point x="182" y="11" type="qcurve" smooth="yes"/>
      <point x="217" y="76"/>
      <point x="260" y="161" type="qcurve"/>
      <point x="250" y="160" type="line"/>
      <point x="249" y="160" type="line" smooth="yes"/>
      <point x="238" y="160"/>
      <point x="218" y="191"/>
      <point x="218" y="215"/>
      <point x="228" y="215" type="qcurve" smooth="yes"/>
      <point x="230" y="215" type="line" smooth="yes"/>
      <point x="248" y="213"/>
      <point x="267" y="213" type="qcurve" smooth="yes"/>
      <point x="285" y="213" type="line"/>
      <point x="405" y="449"/>
      <point x="464" y="592" type="qcurve" smooth="yes"/>
      <point x="468" y="602"/>
    </contour>
    <contour>
      <point x="644" y="227" type="line"/>
      <point x="540" y="468"/>
      <point x="506" y="560" type="qcurve"/>
      <point x="472" y="475"/>
      <point x="345" y="214" type="qcurve"/>
    </contour>
  </outline>
</glyph>
<glyph name="uni2150" format="1">
  <advance width="1000" height="1000"/>
  <unicode hex="2150"/>
  <outline>
    <contour>
      <point x="171" y="11" type="line" smooth="yes"/>
      <point x="141" y="-19"/>
      <point x="88" y="-80" type="qcurve" smooth="yes"/>
      <point x="82" y="-86"/>
      <point x="67" y="-86"/>
      <point x="52" y="-60"/>
      <point x="52" y="-36"/>
      <point x="57" y="-32" type="qcurve" smooth="yes"/>
      <point x="96" y="1"/>
      <point x="139" y="44" type="qcurve" smooth="yes"/>
      <point x="830" y="739" type="line" smooth="yes"/>
      <point x="849" y="759"/>
      <point x="894" y="806"/>
      <point x="913" y="830" type="qcurve" smooth="yes"/>
      <point x="919" y="837"/>
      <point x="934" y="837"/>
      <point x="949" y="810"/>
      <point x="949" y="786"/>
      <point x="944" y="782" type="qcurve" smooth="yes"/>
      <point x="926" y="765"/>
      <point x="882" y="727"/>
      <point x="862" y="706" type="qcurve" smooth="yes"/>
    </contour>
    <contour>
      <point x="276" y="448" type="line" smooth="yes"/>
      <point x="276" y="402"/>
      <point x="278" y="358" type="qcurve" smooth="yes"/>
      <point x="278" y="356" type="line" smooth="yes"/>
      <point x="278" y="344"/>
      <point x="250" y="344"/>
      <point x="224" y="360"/>
      <point x="224" y="372" type="qcurve" smooth="yes"/>
      <point x="224" y="373" type="line"/>
      <point x="226" y="443" type="line"/>
      <point x="226" y="703" type="line"/>
      <point x="196" y="684"/>
      <point x="165" y="676" type="qcurve" smooth="yes"/>
      <point x="163" y="675"/>
      <point x="147" y="675"/>
      <point x="126" y="687"/>
      <point x="126" y="698"/>
      <point x="142" y="704" type="qcurve" smooth="yes"/>
      <point x="161" y="712"/>
      <point x="213" y="749" type="qcurve" smooth="yes"/>
      <point x="218" y="753"/>
      <point x="239" y="779"/>
      <point x="248" y="779" type="qcurve" smooth="yes"/>
      <point x="257" y="779"/>
      <point x="280" y="761"/>
      <point x="280" y="750" type="qcurve" smooth="yes"/>
      <point x="276" y="693" type="line"/>
    </contour>
    <contour>
      <point x="918" y="340" type="line" smooth="yes"/>
      <point x="916" y="333"/>
      <point x="904" y="317"/>
      <point x="882" y="273"/>
      <point x="855" y="214" type="qcurve" smooth="yes"/>
      <point x="789" y="71"/>
      <point x="759" y="-42" type="qcurve" smooth="yes"/>
      <point x="756" y="-55"/>
      <point x="711" y="-55"/>
      <point x="703" y="-42"/>
      <point x="703" y="-34"/>
      <point x="706" y="-25"/>
      <point x="711" y="-10"/>
      <point x="739" y="63"/>
      <point x="760" y="114" type="qcurve" smooth="yes"/>
      <point x="803" y="221"/>
      <point x="857" y="326" type="qcurve"/>
      <point x="662" y="305" type="line" smooth="yes"/>
      <point x="655" y="304"/>
      <point x="643" y="302"/>
      <point x="625" y="302"/>
      <point x="606" y="332"/>
      <point x="606" y="350"/>
      <point x="612" y="350" type="qcurve" smooth="yes"/>
      <point x="649" y="350" type="line"/>
      <point x="857" y="369" type="line" smooth="yes"/>
      <point x="865" y="370"/>
      <point x="878" y="374"/>
      <point x="885" y="374" type="qcurve" smooth="yes"/>
      <point x="887" y="374" type="line" smooth="yes"/>
      <point x="895" y="373"/>
      <point x="918" y="352"/>
      <point x="918" y="343" type="qcurve" smooth="yes"/>
    </contour>
  </outline>
</glyph>
<glyph name="uni2152" format="1">
  <advance width="1000" height="1000"/>
  <unicode hex="2152"/>
  <outline>
    <contour>
      <point x="147" y="11" type="line" smooth="yes"/>
      <point x="117" y="-19"/>
      <point x="64" y="-80" type="qcurve" smooth="yes"/>
      <point x="58" y="-86"/>
      <point x="43" y="-86"/>
      <point x="28" y="-60"/>
      <point x="28" y="-36"/>
      <point x="33" y="-32" type="qcurve" smooth="yes"/>
      <point x="72" y="1"/>
      <point x="115" y="44" type="qcurve" smooth="yes"/>
      <point x="806" y="739" type="line" smooth="yes"/>
      <point x="825" y="759"/>
      <point x="870" y="806"/>
      <point x="889" y="830" type="qcurve" smooth="yes"/>
      <point x="895" y="837"/>
      <point x="910" y="837"/>
      <point x="925" y="810"/>
      <point x="925" y="786"/>
      <point x="920" y="782" type="qcurve" smooth="yes"/>
      <point x="902" y="765"/>
      <point x="858" y="727"/>
      <point x="838" y="706" type="qcurve" smooth="yes"/>
    </contour>
    <contour>
      <point x="266" y="450" type="line" smooth="yes"/>
      <point x="266" y="404"/>
      <point x="268" y="360" type="qcurve" smooth="yes"/>
      <point x="268" y="358" type="line" smooth="yes"/>
      <point x="268" y="346"/>
      <point x="240" y="346"/>
      <point x="214" y="362"/>
      <point x="214" y="374" type="qcurve" smooth="yes"/>
      <point x="214" y="375" type="line"/>
      <point x="216" y="445" type="line"/>
      <point x="216" y="705" type="line"/>
      <point x="186" y="686"/>
      <point x="155" y="678" type="qcurve" smooth="yes"/>
      <point x="153" y="677"/>
      <point x="137" y="677"/>
      <point x="116" y="689"/>
      <point x="116" y="700"/>
      <point x="132" y="706" type="qcurve" smooth="yes"/>
      <point x="151" y="714"/>
      <point x="203" y="751" type="qcurve" smooth="yes"/>
      <point x="208" y="755"/>
      <point x="229" y="781"/>
      <point x="238" y="781" type="qcurve" smooth="yes"/>
      <point x="247" y="781"/>
      <point x="270" y="763"/>
      <point x="270" y="752" type="qcurve" smooth="yes"/>
      <point x="266" y="695" type="line"/>
    </contour>
    <contour>
      <point x="755" y="342" type="qcurve"/>
      <point x="769" y="361"/>
      <point x="810" y="383"/>
      <point x="829" y="383" type="qcurve" smooth="yes"/>
      <point x="896" y="383"/>
      <point x="960" y="262"/>
      <point x="960" y="164" type="qcurve" smooth="yes"/>
      <point x="960" y="28"/>
      <point x="900" y="-30" type="qcurve" smooth="yes"/>
      <point x="869" y="-60"/>
      <point x="773" y="-60"/>
      <point x="743" y="-32" type="qcurve" smooth="yes"/>
      <point x="685" y="24"/>
      <point x="685" y="154" type="qcurve" smooth="yes"/>
      <point x="685" y="255"/>
      <point x="720" y="322" type="qcurve" smooth="yes"/>
      <point x="734" y="348"/>
      <point x="751" y="348"/>
    </contour>
    <contour>
      <point x="633" y="50" type="line" smooth="yes"/>
      <point x="633" y="4"/>
      <point x="635" y="-40" type="qcurve" smooth="yes"/>
      <point x="635" y="-42" type="line" smooth="yes"/>
      <point x="635" y="-54"/>
      <point x="608" y="-54"/>
      <point x="583" y="-38"/>
      <point x="583" y="-26" type="qcurve" smooth="yes"/>
      <point x="583" y="-25" type="line"/>
      <point x="585" y="45" type="line"/>
      <point x="585" y="305" type="line"/>
      <point x="556" y="286"/>
      <point x="527" y="278" type="qcurve" smooth="yes"/>
      <point x="526" y="277"/>
      <point x="511" y="277"/>
      <point x="490" y="289"/>
      <point x="490" y="300"/>
      <point x="505" y="306" type="qcurve" smooth="yes"/>
      <point x="524" y="314"/>
      <point x="573" y="351" type="qcurve" smooth="yes"/>
      <point x="578" y="355"/>
      <point x="598" y="381"/>
      <point x="615" y="381"/>
      <point x="637" y="363"/>
      <point x="637" y="352" type="qcurve" smooth="yes"/>
      <point x="633" y="295" type="line"/>
    </contour>
    <contour>
      <point x="732" y="156" type="qcurve" smooth="yes"/>
      <point x="732" y="-11"/>
      <point x="818" y="-11" type="qcurve" smooth="yes"/>
      <point x="864" y="-11"/>
      <point x="913" y="85"/>
      <point x="913" y="167" type="qcurve" smooth="yes"/>
      <point x="913" y="267"/>
      <point x="876" y="312" type="qcurve" smooth="yes"/>
      <point x="857" y="335"/>
      <point x="805" y="335"/>
      <point x="783" y="314" type="qcurve" smooth="yes"/>
      <point x="732" y="265"/>
    </contour>
  </outline>
</glyph>
<glyph name="fiveeighths" format="1">
  <advance width="1000" height="1000"/>
  <unicode hex="215D"/>
  <outline>
    <contour>
      <point x="171" y="11" type="line" smooth="yes"/>
      <point x="141" y="-19"/>
      <point x="88" y="-80" type="qcurve" smooth="yes"/>
      <point x="82" y="-86"/>
      <point x="67" y="-86"/>
      <point x="52" y="-60"/>
      <point x="52" y="-36"/>
      <point x="57" y="-32" type="qcurve" smooth="yes"/>
      <point x="96" y="1"/>
      <point x="139" y="44" type="qcurve" smooth="yes"/>
      <point x="830" y="739" type="line" smooth="yes"/>
      <point x="849" y="759"/>
      <point x="894" y="806"/>
      <point x="913" y="830" type="qcurve" smooth="yes"/>
      <point x="919" y="837"/>
      <point x="934" y="837"/>
      <point x="949" y="810"/>
      <point x="949" y="786"/>
      <point x="944" y="782" type="qcurve" smooth="yes"/>
      <point x="926" y="765"/>
      <point x="882" y="727"/>
      <point x="862" y="706" type="qcurve" smooth="yes"/>
    </contour>
    <contour>
      <point x="121" y="749" type="qcurve" smooth="yes"/>
      <point x="121" y="764" type="line" smooth="yes"/>
      <point x="121" y="772"/>
      <point x="148" y="772"/>
      <point x="172" y="760" type="qcurve"/>
      <point x="291" y="767" type="line" smooth="yes"/>
      <point x="302" y="768"/>
      <point x="331" y="772"/>
      <point x="340" y="773" type="qcurve" smooth="yes"/>
      <point x="342" y="773" type="line" smooth="yes"/>
      <point x="352" y="773"/>
      <point x="365" y="749"/>
      <point x="365" y="725"/>
      <point x="346" y="725"/>
      <point x="312" y="722"/>
      <point x="298" y="721" type="qcurve" smooth="yes"/>
      <point x="168" y="714" type="line"/>
      <point x="148" y="594" type="line"/>
      <point x="159" y="602"/>
      <point x="212" y="617"/>
      <point x="243" y="617" type="qcurve" smooth="yes"/>
      <point x="307" y="617"/>
      <point x="384" y="548"/>
      <point x="384" y="482" type="qcurve" smooth="yes"/>
      <point x="384" y="444"/>
      <point x="366" y="410" type="qcurve" smooth="yes"/>
      <point x="324" y="336"/>
      <point x="218" y="336" type="qcurve" smooth="yes"/>
      <point x="180" y="336"/>
      <point x="114" y="361"/>
      <point x="75" y="393"/>
      <point x="75" y="405" type="qcurve" smooth="yes"/>
      <point x="75" y="417"/>
      <point x="92" y="441"/>
      <point x="106" y="441"/>
      <point x="110" y="436" type="qcurve" smooth="yes"/>
      <point x="125" y="415"/>
      <point x="181" y="384"/>
      <point x="215" y="384" type="qcurve" smooth="yes"/>
      <point x="276" y="384"/>
      <point x="333" y="443"/>
      <point x="333" y="526"/>
      <point x="281" y="570"/>
      <point x="235" y="570" type="qcurve" smooth="yes"/>
      <point x="211" y="570"/>
      <point x="158" y="557"/>
      <point x="142" y="545"/>
      <point x="137" y="540" type="qcurve" smooth="yes"/>
      <point x="129" y="531"/>
      <point x="113" y="531"/>
      <point x="91" y="547"/>
      <point x="91" y="565"/>
      <point x="92" y="567" type="qcurve" smooth="yes"/>
      <point x="97" y="587" type="line"/>
      <point x="119" y="730" type="line" smooth="yes"/>
      <point x="121" y="741"/>
    </contour>
    <contour>
      <point x="890" y="312" type="line"/>
      <point x="896" y="317"/>
      <point x="903" y="317" type="qcurve" smooth="yes"/>
      <point x="913" y="317"/>
      <point x="913" y="297"/>
      <point x="880" y="263"/>
      <point x="836" y="226"/>
      <point x="797" y="198"/>
      <point x="791" y="193" type="qcurve"/>
      <point x="847" y="168"/>
      <point x="916" y="115"/>
      <point x="916" y="9"/>
      <point x="833" y="-60"/>
      <point x="685" y="-60"/>
      <point x="606" y="5"/>
      <point x="606" y="56" type="qcurve" smooth="yes"/>
      <point x="606" y="109"/>
      <point x="660" y="152" type="qcurve" smooth="yes"/>
      <point x="684" y="170"/>
      <point x="707" y="185" type="qcurve"/>
      <point x="666" y="207"/>
      <point x="626" y="253"/>
      <point x="626" y="323"/>
      <point x="699" y="383"/>
      <point x="753" y="383" type="qcurve" smooth="yes"/>
      <point x="845" y="383"/>
      <point x="887" y="324" type="qcurve" smooth="yes"/>
      <point x="890" y="320"/>
      <point x="890" y="315" type="qcurve" smooth="yes"/>
    </contour>
    <contour>
      <point x="862" y="288" type="qcurve"/>
      <point x="855" y="288"/>
      <point x="850" y="294" type="qcurve" smooth="yes"/>
      <point x="838" y="314"/>
      <point x="793" y="338"/>
      <point x="725" y="338"/>
      <point x="674" y="307"/>
      <point x="674" y="260"/>
      <point x="719" y="226"/>
      <point x="749" y="212" type="qcurve"/>
      <point x="815" y="254"/>
    </contour>
    <contour>
      <point x="749" y="164" type="qcurve"/>
      <point x="706" y="135"/>
      <point x="655" y="87"/>
      <point x="655" y="34"/>
      <point x="700" y="-15"/>
      <point x="807" y="-15"/>
      <point x="868" y="29"/>
      <point x="868" y="99"/>
      <point x="802" y="141"/>
    </contour>
  </outline>
</glyph>
<glyph name="seveneighths" format="1">
  <advance width="1000" height="1000"/>
  <unicode hex="215E"/>
  <outline>
    <contour>
      <point x="177" y="11" type="line" smooth="yes"/>
      <point x="147" y="-19"/>
      <point x="94" y="-80" type="qcurve" smooth="yes"/>
      <point x="88" y="-86"/>
      <point x="73" y="-86"/>
      <point x="58" y="-60"/>
      <point x="58" y="-36"/>
      <point x="63" y="-32" type="qcurve" smooth="yes"/>
      <point x="102" y="1"/>
      <point x="145" y="44" type="qcurve" smooth="yes"/>
      <point x="836" y="739" type="line" smooth="yes"/>
      <point x="855" y="759"/>
      <point x="900" y="806"/>
      <point x="919" y="830" type="qcurve" smooth="yes"/>
      <point x="925" y="837"/>
      <point x="940" y="837"/>
      <point x="955" y="810"/>
      <point x="955" y="786"/>
      <point x="950" y="782" type="qcurve" smooth="yes"/>
      <point x="932" y="765"/>
      <point x="888" y="727"/>
      <point x="868" y="706" type="qcurve" smooth="yes"/>
    </contour>
    <contour>
      <point x="394" y="736" type="line" smooth="yes"/>
      <point x="392" y="729"/>
      <point x="380" y="713"/>
      <point x="358" y="669"/>
      <point x="330" y="610" type="qcurve" smooth="yes"/>
      <point x="268" y="475"/>
      <point x="235" y="354" type="qcurve" smooth="yes"/>
      <point x="232" y="342"/>
      <point x="187" y="342"/>
      <point x="179" y="354"/>
      <point x="179" y="362"/>
      <point x="182" y="371"/>
      <point x="187" y="386"/>
      <point x="215" y="459"/>
      <point x="236" y="510" type="qcurve" smooth="yes"/>
      <point x="279" y="617"/>
      <point x="333" y="722" type="qcurve"/>
      <point x="138" y="701" type="line" smooth="yes"/>
      <point x="131" y="700"/>
      <point x="119" y="698"/>
      <point x="101" y="698"/>
      <point x="82" y="728"/>
      <point x="82" y="746"/>
      <point x="88" y="746" type="qcurve" smooth="yes"/>
      <point x="125" y="746" type="line"/>
      <point x="333" y="765" type="line" smooth="yes"/>
      <point x="341" y="766"/>
      <point x="354" y="770"/>
      <point x="361" y="770" type="qcurve" smooth="yes"/>
      <point x="363" y="770" type="line" smooth="yes"/>
      <point x="371" y="769"/>
      <point x="394" y="748"/>
      <point x="394" y="739" type="qcurve" smooth="yes"/>
    </contour>
    <contour>
      <point x="890" y="312" type="line"/>
      <point x="896" y="317"/>
      <point x="903" y="317" type="qcurve" smooth="yes"/>
      <point x="913" y="317"/>
      <point x="913" y="297"/>
      <point x="880" y="263"/>
      <point x="836" y="226"/>
      <point x="797" y="198"/>
      <point x="791" y="193" type="qcurve"/>
      <point x="847" y="168"/>
      <point x="916" y="115"/>
      <point x="916" y="9"/>
      <point x="833" y="-60"/>
      <point x="685" y="-60"/>
      <point x="606" y="5"/>
      <point x="606" y="56" type="qcurve" smooth="yes"/>
      <point x="606" y="109"/>
      <point x="660" y="152" type="qcurve" smooth="yes"/>
      <point x="684" y="170"/>
      <point x="707" y="185" type="qcurve"/>
      <point x="666" y="207"/>
      <point x="626" y="253"/>
      <point x="626" y="323"/>
      <point x="699" y="383"/>
      <point x="753" y="383" type="qcurve" smooth="yes"/>
      <point x="845" y="383"/>
      <point x="887" y="324" type="qcurve" smooth="yes"/>
      <point x="890" y="320"/>
      <point x="890" y="315" type="qcurve" smooth="yes"/>
    </contour>
    <contour>
      <point x="862" y="288" type="qcurve"/>
      <point x="855" y="288"/>
      <point x="850" y="294" type="qcurve" smooth="yes"/>
      <point x="838" y="314"/>
      <point x="793" y="338"/>
      <point x="725" y="338"/>
      <point x="674" y="307"/>
      <point x="674" y="260"/>
      <point x="719" y="226"/>
      <point x="749" y="212" type="qcurve"/>
      <point x="815" y="254"/>
    </contour>
    <contour>
      <point x="749" y="164" type="qcurve"/>
      <point x="706" y="135"/>
      <point x="655" y="87"/>
      <point x="655" y="34"/>
      <point x="700" y="-15"/>
      <point x="807" y="-15"/>
      <point x="868" y="29"/>
      <point x="868" y="99"/>
      <point x="802" y="141"/>
    </contour>
  </outline>
</glyph>
<glyph name="uni2161" format="1">
  <advance width="1000" height="1000"/>
  <unicode hex="2161"/>
  <outline>
    <contour>
      <point x="613" y="19" type="qcurve" smooth="yes"/>
      <point x="615" y="108" type="line"/>
      <point x="615" y="590" type="line"/>
      <point x="612" y="692" type="line" smooth="yes"/>
      <point x="612" y="705"/>
      <point x="644" y="705"/>
      <point x="676" y="688"/>
      <point x="676" y="675" type="qcurve" smooth="yes"/>
      <point x="674" y="586" type="line"/>
      <point x="674" y="107" type="line"/>
      <point x="677" y="1" type="line" smooth="yes"/>
      <point x="677" y="-9"/>
      <point x="645" y="-9"/>
      <point x="613" y="6"/>
    </contour>
    <contour>
      <point x="324" y="19" type="qcurve" smooth="yes"/>
      <point x="326" y="108" type="line"/>
      <point x="326" y="590" type="line"/>
      <point x="323" y="692" type="line" smooth="yes"/>
      <point x="323" y="705"/>
      <point x="355" y="705"/>
      <point x="387" y="688"/>
      <point x="387" y="675" type="qcurve" smooth="yes"/>
      <point x="385" y="586" type="line"/>
      <point x="385" y="107" type="line"/>
      <point x="388" y="1" type="line" smooth="yes"/>
      <point x="388" y="-9"/>
      <point x="356" y="-9"/>
      <point x="324" y="6"/>
    </contour>
  </outline>
</glyph>
<glyph name="uni2162" format="1">
  <advance width="1000" height="1000"/>
  <unicode hex="2162"/>
  <outline>
    <contour>
      <point x="694" y="19" type="qcurve" smooth="yes"/>
      <point x="696" y="108" type="line"/>
      <point x="696" y="590" type="line"/>
      <point x="693" y="692" type="line" smooth="yes"/>
      <point x="693" y="705"/>
      <point x="725" y="705"/>
      <point x="756" y="688"/>
      <point x="756" y="675" type="qcurve" smooth="yes"/>
      <point x="754" y="586" type="line"/>
      <point x="754" y="107" type="line"/>
      <point x="757" y="1" type="line" smooth="yes"/>
      <point x="757" y="-9"/>
      <point x="726" y="-9"/>
      <point x="694" y="6"/>
    </contour>
    <contour>
      <point x="469" y="19" type="qcurve" smooth="yes"/>
      <point x="471" y="108" type="line"/>
      <point x="471" y="590" type="line"/>
      <point x="468" y="692" type="line" smooth="yes"/>
      <point x="468" y="705"/>
      <point x="500" y="705"/>
      <point x="531" y="688"/>
      <point x="531" y="675" type="qcurve" smooth="yes"/>
      <point x="529" y="586" type="line"/>
      <point x="529" y="107" type="line"/>
      <point x="532" y="1" type="line" smooth="yes"/>
      <point x="532" y="-9"/>
      <point x="501" y="-9"/>
      <point x="469" y="6"/>
    </contour>
    <contour>
      <point x="244" y="19" type="qcurve" smooth="yes"/>
      <point x="246" y="108" type="line"/>
      <point x="246" y="590" type="line"/>
      <point x="243" y="692" type="line" smooth="yes"/>
      <point x="243" y="705"/>
      <point x="275" y="705"/>
      <point x="306" y="688"/>
      <point x="306" y="675" type="qcurve" smooth="yes"/>
      <point x="304" y="586" type="line"/>
      <point x="304" y="107" type="line"/>
      <point x="307" y="1" type="line" smooth="yes"/>
      <point x="307" y="-9"/>
      <point x="276" y="-9"/>
      <point x="244" y="6"/>
    </contour>
  </outline>
</glyph>
<glyph name="uni2165" format="1">
  <advance width="1000" height="1000"/>
  <unicode hex="2165"/>
  <outline>
    <contour>
      <point x="129" y="689" type="qcurve" smooth="yes"/>
      <point x="129" y="703"/>
      <point x="159" y="703" type="qcurve" smooth="yes"/>
      <point x="198" y="703"/>
      <point x="202" y="684" type="qcurve" smooth="yes"/>
      <point x="208" y="656"/>
      <point x="220" y="617" type="qcurve" smooth="yes"/>
      <point x="313" y="350"/>
      <point x="386" y="78" type="qcurve"/>
      <point x="457" y="331"/>
      <point x="550" y="607" type="qcurve" smooth="yes"/>
      <point x="568" y="658"/>
      <point x="576" y="701" type="qcurve" smooth="yes"/>
      <point x="577" y="711"/>
      <point x="606" y="711"/>
      <point x="640" y="691"/>
      <point x="640" y="677" type="qcurve" smooth="yes"/>
      <point x="640" y="674"/>
      <point x="624" y="642"/>
      <point x="587" y="544"/>
      <point x="546" y="422"/>
      <point x="506" y="292"/>
      <point x="469" y="169"/>
      <point x="440" y="70"/>
      <point x="422" y="10"/>
      <point x="422" y="8" type="qcurve" smooth="yes"/>
      <point x="416" y="-14"/>
      <point x="381" y="-14"/>
      <point x="348" y="17"/>
      <point x="323" y="111"/>
      <point x="280" y="255"/>
      <point x="234" y="403"/>
      <point x="212" y="471" type="qcurve" smooth="yes"/>
      <point x="164" y="616"/>
      <point x="130" y="685" type="qcurve" smooth="yes"/>
      <point x="129" y="687"/>
    </contour>
    <contour>
      <point x="721" y="19" type="qcurve" smooth="yes"/>
      <point x="723" y="108" type="line"/>
      <point x="723" y="590" type="line"/>
      <point x="720" y="692" type="line" smooth="yes"/>
      <point x="720" y="705"/>
      <point x="752" y="705"/>
      <point x="783" y="688"/>
      <point x="783" y="675" type="qcurve" smooth="yes"/>
      <point x="781" y="586" type="line"/>
      <point x="781" y="107" type="line"/>
      <point x="784" y="1" type="line" smooth="yes"/>
      <point x="784" y="-9"/>
      <point x="753" y="-9"/>
      <point x="721" y="6"/>
    </contour>
  </outline>
</glyph>
<glyph name="uni2166" format="1">
  <advance width="1000" height="1000"/>
  <unicode hex="2166"/>
  <outline>
    <contour>
      <point x="86" y="689" type="qcurve" smooth="yes"/>
      <point x="86" y="703"/>
      <point x="116" y="703" type="qcurve" smooth="yes"/>
      <point x="155" y="703"/>
      <point x="159" y="686" type="qcurve" smooth="yes"/>
      <point x="167" y="643"/>
      <point x="190" y="568" type="qcurve" smooth="yes"/>
      <point x="251" y="369"/>
      <point x="321" y="78" type="qcurve"/>
      <point x="394" y="363"/>
      <point x="431" y="491" type="qcurve" smooth="yes"/>
      <point x="480" y="656"/>
      <point x="487" y="701" type="qcurve" smooth="yes"/>
      <point x="488" y="712"/>
      <point x="517" y="712"/>
      <point x="550" y="690"/>
      <point x="550" y="676" type="qcurve" smooth="yes"/>
      <point x="550" y="673"/>
      <point x="535" y="638"/>
      <point x="498" y="526"/>
      <point x="458" y="387"/>
      <point x="418" y="242"/>
      <point x="384" y="114"/>
      <point x="361" y="23"/>
      <point x="357" y="8" type="qcurve" smooth="yes"/>
      <point x="351" y="-14"/>
      <point x="316" y="-14"/>
      <point x="282" y="17"/>
      <point x="261" y="106"/>
      <point x="223" y="250"/>
      <point x="181" y="403"/>
      <point x="160" y="474" type="qcurve" smooth="yes"/>
      <point x="115" y="626"/>
      <point x="87" y="685" type="qcurve" smooth="yes"/>
      <point x="86" y="687"/>
    </contour>
    <contour>
      <point x="810" y="19" type="qcurve" smooth="yes"/>
      <point x="812" y="108" type="line"/>
      <point x="812" y="590" type="line"/>
      <point x="809" y="692" type="line" smooth="yes"/>
      <point x="809" y="705"/>
      <point x="841" y="705"/>
      <point x="872" y="688"/>
      <point x="872" y="675" type="qcurve" smooth="yes"/>
      <point x="870" y="586" type="line"/>
      <point x="870" y="107" type="line"/>
      <point x="873" y="1" type="line" smooth="yes"/>
      <point x="873" y="-9"/>
      <point x="842" y="-9"/>
      <point x="810" y="6"/>
    </contour>
    <contour>
      <point x="618" y="19" type="qcurve" smooth="yes"/>
      <point x="620" y="108" type="line"/>
      <point x="620" y="590" type="line"/>
      <point x="617" y="692" type="line" smooth="yes"/>
      <point x="617" y="705"/>
      <point x="649" y="705"/>
      <point x="680" y="688"/>
      <point x="680" y="675" type="qcurve" smooth="yes"/>
      <point x="678" y="586" type="line"/>
      <point x="678" y="107" type="line"/>
      <point x="681" y="1" type="line" smooth="yes"/>
      <point x="681" y="-9"/>
      <point x="650" y="-9"/>
      <point x="618" y="6"/>
    </contour>
  </outline>
</glyph>
<glyph name="uni2168" format="1">
  <advance width="1000" height="1000"/>
  <unicode hex="2168"/>
  <outline>
    <contour>
      <point x="624" y="321" type="qcurve"/>
      <point x="565" y="227"/>
      <point x="456" y="40"/>
      <point x="431" y="-1"/>
      <point x="419" y="-10"/>
      <point x="395" y="-10"/>
      <point x="367" y="7"/>
      <point x="367" y="21"/>
      <point x="370" y="25" type="qcurve" smooth="yes"/>
      <point x="424" y="97"/>
      <point x="536" y="279"/>
      <point x="593" y="375" type="qcurve"/>
      <point x="464" y="601"/>
      <point x="399" y="672" type="qcurve" smooth="yes"/>
      <point x="395" y="676"/>
      <point x="395" y="681" type="qcurve" smooth="yes"/>
      <point x="395" y="692"/>
      <point x="427" y="706"/>
      <point x="458" y="706"/>
      <point x="463" y="698" type="qcurve" smooth="yes"/>
      <point x="480" y="664"/>
      <point x="508" y="619" type="qcurve" smooth="yes"/>
      <point x="552" y="551"/>
      <point x="623" y="426" type="qcurve"/>
      <point x="746" y="627"/>
      <point x="783" y="699" type="qcurve" smooth="yes"/>
      <point x="787" y="706"/>
      <point x="812" y="706"/>
      <point x="846" y="685"/>
      <point x="846" y="669"/>
      <point x="833" y="654"/>
      <point x="805" y="615"/>
      <point x="784" y="583" type="qcurve" smooth="yes"/>
      <point x="732" y="504"/>
      <point x="655" y="372" type="qcurve"/>
      <point x="721" y="259"/>
      <point x="827" y="84"/>
      <point x="870" y="31" type="qcurve" smooth="yes"/>
      <point x="873" y="28"/>
      <point x="873" y="12"/>
      <point x="840" y="-10"/>
      <point x="813" y="-10"/>
      <point x="806" y="5" type="qcurve" smooth="yes"/>
      <point x="789" y="42"/>
      <point x="760" y="90" type="qcurve" smooth="yes"/>
      <point x="701" y="189"/>
    </contour>
    <contour>
      <point x="217" y="19" type="qcurve" smooth="yes"/>
      <point x="219" y="108" type="line"/>
      <point x="219" y="590" type="line"/>
      <point x="216" y="692" type="line" smooth="yes"/>
      <point x="216" y="705"/>
      <point x="248" y="705"/>
      <point x="279" y="688"/>
      <point x="279" y="675" type="qcurve" smooth="yes"/>
      <point x="277" y="586" type="line"/>
      <point x="277" y="107" type="line"/>
      <point x="280" y="1" type="line" smooth="yes"/>
      <point x="280" y="-9"/>
      <point x="249" y="-9"/>
      <point x="217" y="6"/>
    </contour>
  </outline>
</glyph>
<glyph name="uni2170" format="1">
  <advance width="1000" height="1000"/>
  <unicode hex="2170"/>
  <outline>
    <contour>
      <point x="456" y="655" type="qcurve" smooth="yes"/>
      <point x="456" y="696"/>
      <point x="494" y="696" type="qcurve" smooth="yes"/>
      <point x="511" y="696"/>
      <point x="541" y="661"/>
      <point x="541" y="641" type="qcurve" smooth="yes"/>
      <point x="541" y="602"/>
      <point x="504" y="602" type="qcurve" smooth="yes"/>
      <point x="485" y="602"/>
      <point x="456" y="637"/>
    </contour>
    <contour>
      <point x="470" y="17" type="qcurve" smooth="yes"/>
      <point x="472" y="105" type="line"/>
      <point x="472" y="368" type="line"/>
      <point x="469" y="475" type="line" smooth="yes"/>
      <point x="469" y="483"/>
      <point x="498" y="483"/>
      <point x="529" y="468"/>
      <point x="529" y="457" type="qcurve" smooth="yes"/>
      <point x="527" y="368" type="line"/>
      <point x="527" y="105" type="line"/>
      <point x="530" y="-1" type="line" smooth="yes"/>
      <point x="530" y="-9"/>
      <point x="502" y="-9"/>
      <point x="470" y="6"/>
    </contour>
  </outline>
</glyph>
<glyph name="uni2171" format="1">
  <advance width="1000" height="1000"/>
  <unicode hex="2171"/>
  <outline>
    <contour>
      <point x="595" y="655" type="qcurve" smooth="yes"/>
      <point x="595" y="696"/>
      <point x="633" y="696" type="qcurve" smooth="yes"/>
      <point x="650" y="696"/>
      <point x="680" y="661"/>
      <point x="680" y="641" type="qcurve" smooth="yes"/>
      <point x="680" y="602"/>
      <point x="643" y="602" type="qcurve" smooth="yes"/>
      <point x="624" y="602"/>
      <point x="595" y="637"/>
    </contour>
    <contour>
      <point x="320" y="655" type="qcurve" smooth="yes"/>
      <point x="320" y="696"/>
      <point x="358" y="696" type="qcurve" smooth="yes"/>
      <point x="375" y="696"/>
      <point x="405" y="661"/>
      <point x="405" y="641" type="qcurve" smooth="yes"/>
      <point x="405" y="602"/>
      <point x="368" y="602" type="qcurve" smooth="yes"/>
      <point x="349" y="602"/>
      <point x="320" y="637"/>
    </contour>
    <contour>
      <point x="609" y="17" type="qcurve" smooth="yes"/>
      <point x="611" y="105" type="line"/>
      <point x="611" y="368" type="line"/>
      <point x="611" y="368"/>
      <point x="608" y="475" type="qcurve" smooth="yes"/>
      <point x="608" y="483"/>
      <point x="637" y="483"/>
      <point x="668" y="468"/>
      <point x="668" y="457" type="qcurve" smooth="yes"/>
      <point x="666" y="368" type="line"/>
      <point x="666" y="105" type="line"/>
      <point x="669" y="-1" type="line" smooth="yes"/>
      <point x="669" y="-9"/>
      <point x="641" y="-9"/>
      <point x="609" y="6"/>
    </contour>
    <contour>
      <point x="334" y="17" type="qcurve" smooth="yes"/>
      <point x="336" y="105" type="line"/>
      <point x="336" y="368" type="line"/>
      <point x="333" y="475" type="line" smooth="yes"/>
      <point x="333" y="483"/>
      <point x="362" y="483"/>
      <point x="393" y="468"/>
      <point x="393" y="457" type="qcurve" smooth="yes"/>
      <point x="391" y="368" type="line"/>
      <point x="391" y="105" type="line"/>
      <point x="394" y="-1" type="line" smooth="yes"/>
      <point x="394" y="-9"/>
      <point x="366" y="-9"/>
      <point x="334" y="6"/>
    </contour>
  </outline>
</glyph>
<glyph name="uni2174" format="1">
  <advance width="1000" height="1000"/>
  <unicode hex="2174"/>
  <outline>
    <contour>
      <point x="289" y="464" type="qcurve" smooth="yes"/>
      <point x="289" y="480"/>
      <point x="322" y="480" type="qcurve" smooth="yes"/>
      <point x="337" y="480"/>
      <point x="352" y="474"/>
      <point x="364" y="446"/>
      <point x="374" y="414" type="qcurve" smooth="yes"/>
      <point x="499" y="67" type="line"/>
      <point x="639" y="405" type="line" smooth="yes"/>
      <point x="652" y="438"/>
      <point x="662" y="475" type="qcurve" smooth="yes"/>
      <point x="665" y="485"/>
      <point x="679" y="485" type="qcurve" smooth="yes"/>
      <point x="693" y="485"/>
      <point x="724" y="469"/>
      <point x="724" y="458" type="qcurve" smooth="yes"/>
      <point x="724" y="453"/>
      <point x="696" y="401"/>
      <point x="691" y="388" type="qcurve" smooth="yes"/>
      <point x="554" y="66" type="line" smooth="yes"/>
      <point x="545" y="45"/>
      <point x="529" y="-6"/>
      <point x="516" y="-16"/>
      <point x="507" y="-16" type="qcurve" smooth="yes"/>
      <point x="491" y="-16"/>
      <point x="471" y="1" type="qcurve" smooth="yes"/>
      <point x="464" y="9"/>
      <point x="458" y="27"/>
      <point x="450" y="47" type="qcurve" smooth="yes"/>
      <point x="318" y="400" type="line" smooth="yes"/>
      <point x="314" y="411"/>
      <point x="306" y="426" type="qcurve" smooth="yes"/>
      <point x="289" y="459"/>
    </contour>
  </outline>
</glyph>
<glyph name="uni2175" format="1">
  <advance width="1000" height="1000"/>
  <unicode hex="2175"/>
  <outline>
    <contour>
      <point x="694" y="655" type="qcurve" smooth="yes"/>
      <point x="694" y="696"/>
      <point x="732" y="696" type="qcurve" smooth="yes"/>
      <point x="749" y="696"/>
      <point x="779" y="661"/>
      <point x="779" y="641" type="qcurve" smooth="yes"/>
      <point x="779" y="602"/>
      <point x="742" y="602" type="qcurve" smooth="yes"/>
      <point x="723" y="602"/>
      <point x="694" y="637"/>
    </contour>
    <contour>
      <point x="197" y="464" type="qcurve" smooth="yes"/>
      <point x="197" y="480"/>
      <point x="230" y="480" type="qcurve" smooth="yes"/>
      <point x="260" y="480"/>
      <point x="266" y="455"/>
      <point x="278" y="420"/>
      <point x="283" y="404" type="qcurve" smooth="yes"/>
      <point x="403" y="67" type="line"/>
      <point x="542" y="404" type="line" smooth="yes"/>
      <point x="560" y="446"/>
      <point x="567" y="475" type="qcurve" smooth="yes"/>
      <point x="570" y="484"/>
      <point x="599" y="484"/>
      <point x="629" y="469"/>
      <point x="629" y="458" type="qcurve" smooth="yes"/>
      <point x="629" y="456"/>
      <point x="624" y="448" type="qcurve" smooth="yes"/>
      <point x="602" y="404"/>
      <point x="595" y="387" type="qcurve" smooth="yes"/>
      <point x="459" y="66" type="line" smooth="yes"/>
      <point x="450" y="45"/>
      <point x="434" y="-6"/>
      <point x="422" y="-15"/>
      <point x="413" y="-15" type="qcurve" smooth="yes"/>
      <point x="395" y="-15"/>
      <point x="371" y="10"/>
      <point x="365" y="28"/>
      <point x="357" y="47" type="qcurve" smooth="yes"/>
      <point x="229" y="390" type="line" smooth="yes"/>
      <point x="223" y="407"/>
      <point x="215" y="424" type="qcurve" smooth="yes"/>
      <point x="197" y="461"/>
    </contour>
    <contour>
      <point x="708" y="17" type="qcurve" smooth="yes"/>
      <point x="710" y="105" type="line"/>
      <point x="710" y="368" type="line"/>
      <point x="707" y="475" type="line" smooth="yes"/>
      <point x="707" y="483"/>
      <point x="736" y="483"/>
      <point x="767" y="468"/>
      <point x="767" y="457" type="qcurve" smooth="yes"/>
      <point x="765" y="368" type="line"/>
      <point x="765" y="105" type="line"/>
      <point x="768" y="-1" type="line" smooth="yes"/>
      <point x="768" y="-9"/>
      <point x="740" y="-9"/>
      <point x="708" y="6"/>
    </contour>
  </outline>
</glyph>
<glyph name="uni2178" format="1">
  <advance width="1000" height="1000"/>
  <unicode hex="2178"/>
  <outline>
    <contour>
      <point x="248" y="655" type="qcurve" smooth="yes"/>
      <point x="248" y="696"/>
      <point x="286" y="696" type="qcurve" smooth="yes"/>
      <point x="303" y="696"/>
      <point x="333" y="661"/>
      <point x="333" y="641" type="qcurve" smooth="yes"/>
      <point x="333" y="602"/>
      <point x="296" y="602" type="qcurve" smooth="yes"/>
      <point x="277" y="602"/>
      <point x="248" y="637"/>
    </contour>
    <contour>
      <point x="262" y="17" type="qcurve" smooth="yes"/>
      <point x="264" y="105" type="line"/>
      <point x="264" y="368" type="line"/>
      <point x="261" y="475" type="line" smooth="yes"/>
      <point x="261" y="483"/>
      <point x="290" y="483"/>
      <point x="321" y="468"/>
      <point x="321" y="457" type="qcurve" smooth="yes"/>
      <point x="319" y="368" type="line"/>
      <point x="319" y="105" type="line"/>
      <point x="322" y="-1" type="line" smooth="yes"/>
      <point x="322" y="-9"/>
      <point x="294" y="-9"/>
      <point x="262" y="6"/>
    </contour>
    <contour>
      <point x="614" y="203" type="line"/>
      <point x="507" y="57" type="line" smooth="yes"/>
      <point x="491" y="35"/>
      <point x="467" y="-1" type="qcurve" smooth="yes"/>
      <point x="461" y="-10"/>
      <point x="429" y="-10"/>
      <point x="401" y="2"/>
      <point x="401" y="9" type="qcurve" smooth="yes"/>
      <point x="401" y="13"/>
      <point x="410" y="22" type="qcurve" smooth="yes"/>
      <point x="439" y="51"/>
      <point x="468" y="89" type="qcurve" smooth="yes"/>
      <point x="583" y="245" type="line"/>
      <point x="474" y="393" type="line" smooth="yes"/>
      <point x="460" y="412"/>
      <point x="418" y="455"/>
      <point x="418" y="457" type="qcurve" smooth="yes"/>
      <point x="418" y="465"/>
      <point x="451" y="478"/>
      <point x="465" y="478" type="qcurve" smooth="yes"/>
      <point x="479" y="478"/>
      <point x="483" y="470" type="qcurve" smooth="yes"/>
      <point x="494" y="449"/>
      <point x="513" y="423" type="qcurve" smooth="yes"/>
      <point x="614" y="287" type="line"/>
      <point x="718" y="427" type="line" smooth="yes"/>
      <point x="732" y="445"/>
      <point x="749" y="476" type="qcurve" smooth="yes"/>
      <point x="752" y="482"/>
      <point x="766" y="482" type="qcurve" smooth="yes"/>
      <point x="780" y="482"/>
      <point x="813" y="469"/>
      <point x="813" y="461" type="qcurve" smooth="yes"/>
      <point x="813" y="459"/>
      <point x="804" y="450" type="qcurve" smooth="yes"/>
      <point x="771" y="417"/>
      <point x="757" y="397" type="qcurve" smooth="yes"/>
      <point x="645" y="245" type="line"/>
      <point x="759" y="91" type="line" smooth="yes"/>
      <point x="774" y="70"/>
      <point x="823" y="18" type="qcurve" smooth="yes"/>
      <point x="826" y="15"/>
      <point x="826" y="11" type="qcurve" smooth="yes"/>
      <point x="826" y="3"/>
      <point x="798" y="-8"/>
      <point x="766" y="-8"/>
      <point x="760" y="2" type="qcurve" smooth="yes"/>
      <point x="738" y="34"/>
      <point x="720" y="59" type="qcurve" smooth="yes"/>
    </contour>
  </outline>
</glyph>
<glyph name="uni2179" format="1">
  <advance width="1000" height="1000"/>
  <unicode hex="2179"/>
  <outline>
    <contour>
      <point x="502" y="203" type="line"/>
      <point x="393" y="57" type="line" smooth="yes"/>
      <point x="381" y="41"/>
      <point x="353" y="-1" type="qcurve" smooth="yes"/>
      <point x="347" y="-10"/>
      <point x="315" y="-10"/>
      <point x="287" y="2"/>
      <point x="287" y="9" type="qcurve" smooth="yes"/>
      <point x="287" y="13"/>
      <point x="296" y="22" type="qcurve" smooth="yes"/>
      <point x="315" y="41"/>
      <point x="354" y="89" type="qcurve" smooth="yes"/>
      <point x="471" y="245" type="line"/>
      <point x="360" y="393" type="line" smooth="yes"/>
      <point x="342" y="417"/>
      <point x="304" y="455"/>
      <point x="304" y="457" type="qcurve" smooth="yes"/>
      <point x="304" y="465"/>
      <point x="337" y="478"/>
      <point x="351" y="478" type="qcurve" smooth="yes"/>
      <point x="365" y="478"/>
      <point x="369" y="470" type="qcurve" smooth="yes"/>
      <point x="378" y="452"/>
      <point x="399" y="423" type="qcurve" smooth="yes"/>
      <point x="502" y="286" type="line"/>
      <point x="608" y="427" type="line" smooth="yes"/>
      <point x="623" y="446"/>
      <point x="639" y="476" type="qcurve" smooth="yes"/>
      <point x="642" y="482"/>
      <point x="656" y="482" type="qcurve" smooth="yes"/>
      <point x="670" y="482"/>
      <point x="703" y="469"/>
      <point x="703" y="461" type="qcurve" smooth="yes"/>
      <point x="703" y="459"/>
      <point x="694" y="450" type="qcurve" smooth="yes"/>
      <point x="669" y="425"/>
      <point x="647" y="397" type="qcurve" smooth="yes"/>
      <point x="533" y="245" type="line"/>
      <point x="649" y="91" type="line" smooth="yes"/>
      <point x="666" y="68"/>
      <point x="713" y="18" type="qcurve" smooth="yes"/>
      <point x="716" y="15"/>
      <point x="716" y="11" type="qcurve" smooth="yes"/>
      <point x="716" y="3"/>
      <point x="688" y="-8"/>
      <point x="656" y="-8"/>
      <point x="650" y="2" type="qcurve" smooth="yes"/>
      <point x="628" y="34"/>
      <point x="610" y="59" type="qcurve" smooth="yes"/>
    </contour>
  </outline>
</glyph>
<glyph name="uni217B" format="1">
  <advance width="1000" height="1000"/>
  <unicode hex="217B"/>
  <outline>
    <contour>
      <point x="775" y="655" type="qcurve" smooth="yes"/>
      <point x="775" y="696"/>
      <point x="813" y="696" type="qcurve" smooth="yes"/>
      <point x="830" y="696"/>
      <point x="860" y="661"/>
      <point x="860" y="641" type="qcurve" smooth="yes"/>
      <point x="860" y="602"/>
      <point x="823" y="602" type="qcurve" smooth="yes"/>
      <point x="804" y="602"/>
      <point x="775" y="637"/>
    </contour>
    <contour>
      <point x="598" y="655" type="qcurve" smooth="yes"/>
      <point x="598" y="696"/>
      <point x="636" y="696" type="qcurve" smooth="yes"/>
      <point x="653" y="696"/>
      <point x="683" y="661"/>
      <point x="683" y="641" type="qcurve" smooth="yes"/>
      <point x="683" y="602"/>
      <point x="646" y="602" type="qcurve" smooth="yes"/>
      <point x="627" y="602"/>
      <point x="598" y="637"/>
    </contour>
    <contour>
      <point x="789" y="17" type="qcurve" smooth="yes"/>
      <point x="791" y="105" type="line"/>
      <point x="791" y="368" type="line"/>
      <point x="791" y="368"/>
      <point x="788" y="475" type="qcurve" smooth="yes"/>
      <point x="788" y="483"/>
      <point x="817" y="483"/>
      <point x="848" y="468"/>
      <point x="848" y="457" type="qcurve" smooth="yes"/>
      <point x="846" y="368" type="line"/>
      <point x="846" y="105" type="line"/>
      <point x="849" y="-1" type="line" smooth="yes"/>
      <point x="849" y="-9"/>
      <point x="821" y="-9"/>
      <point x="789" y="6"/>
    </contour>
    <contour>
      <point x="612" y="17" type="qcurve" smooth="yes"/>
      <point x="614" y="105" type="line"/>
      <point x="614" y="368" type="line"/>
      <point x="611" y="475" type="line" smooth="yes"/>
      <point x="611" y="483"/>
      <point x="640" y="483"/>
      <point x="671" y="468"/>
      <point x="671" y="457" type="qcurve" smooth="yes"/>
      <point x="669" y="368" type="line"/>
      <point x="669" y="105" type="line"/>
      <point x="672" y="-1" type="line" smooth="yes"/>
      <point x="672" y="-9"/>
      <point x="644" y="-9"/>
      <point x="612" y="6"/>
    </contour>
    <contour>
      <point x="357" y="202" type="line"/>
      <point x="252" y="57" type="line" smooth="yes"/>
      <point x="244" y="46"/>
      <point x="221" y="11"/>
      <point x="207" y="-10"/>
      <point x="176" y="-10"/>
      <point x="147" y="2"/>
      <point x="147" y="10" type="qcurve" smooth="yes"/>
      <point x="147" y="13"/>
      <point x="157" y="23" type="qcurve" smooth="yes"/>
      <point x="189" y="55"/>
      <point x="213" y="89" type="qcurve" smooth="yes"/>
      <point x="326" y="245" type="line"/>
      <point x="219" y="393" type="line" smooth="yes"/>
      <point x="196" y="424"/>
      <point x="166" y="455"/>
      <point x="166" y="458" type="qcurve" smooth="yes"/>
      <point x="166" y="466"/>
      <point x="198" y="478"/>
      <point x="225" y="478"/>
      <point x="229" y="470" type="qcurve" smooth="yes"/>
      <point x="242" y="445"/>
      <point x="258" y="423" type="qcurve" smooth="yes"/>
      <point x="356" y="287" type="line"/>
      <point x="458" y="427" type="line" smooth="yes"/>
      <point x="475" y="451"/>
      <point x="489" y="476" type="qcurve" smooth="yes"/>
      <point x="492" y="482"/>
      <point x="506" y="482" type="qcurve" smooth="yes"/>
      <point x="520" y="482"/>
      <point x="552" y="470"/>
      <point x="552" y="462" type="qcurve" smooth="yes"/>
      <point x="552" y="459"/>
      <point x="543" y="450" type="qcurve" smooth="yes"/>
      <point x="513" y="420"/>
      <point x="497" y="397" type="qcurve" smooth="yes"/>
      <point x="387" y="245" type="line"/>
      <point x="499" y="91" type="line" smooth="yes"/>
      <point x="537" y="43"/>
      <point x="563" y="15"/>
      <point x="563" y="11" type="qcurve" smooth="yes"/>
      <point x="563" y="3"/>
      <point x="535" y="-8"/>
      <point x="503" y="-8"/>
      <point x="497" y="1" type="qcurve" smooth="yes"/>
      <point x="482" y="29"/>
      <point x="460" y="59" type="qcurve" smooth="yes"/>
    </contour>
  </outline>
</glyph>
<glyph name="uni217F" format="1">
  <advance width="1000" height="1000"/>
  <unicode hex="217F"/>
  <outline>
    <contour>
      <point x="759" y="17" type="qcurve" smooth="yes"/>
      <point x="761" y="105" type="line"/>
      <point x="761" y="293" type="line" smooth="yes"/>
      <point x="761" y="354"/>
      <point x="712" y="434"/>
      <point x="667" y="434" type="qcurve" smooth="yes"/>
      <point x="636" y="434"/>
      <point x="571" y="388"/>
      <point x="526" y="313"/>
      <point x="526" y="268" type="qcurve" smooth="yes"/>
      <point x="526" y="105" type="line"/>
      <point x="529" y="-1" type="line" smooth="yes"/>
      <point x="529" y="-10"/>
      <point x="501" y="-10"/>
      <point x="471" y="5"/>
      <point x="471" y="17" type="qcurve" smooth="yes"/>
      <point x="473" y="105" type="line"/>
      <point x="473" y="293" type="line" smooth="yes"/>
      <point x="473" y="352"/>
      <point x="440" y="434"/>
      <point x="394" y="434" type="qcurve" smooth="yes"/>
      <point x="340" y="434"/>
      <point x="297" y="386" type="qcurve" smooth="yes"/>
      <point x="272" y="358"/>
      <point x="244" y="263"/>
      <point x="241" y="156"/>
      <point x="240" y="105" type="qcurve" smooth="yes"/>
      <point x="243" y="-1" type="line" smooth="yes"/>
      <point x="243" y="-10"/>
      <point x="215" y="-10"/>
      <point x="184" y="5"/>
      <point x="184" y="17" type="qcurve" smooth="yes"/>
      <point x="186" y="105" type="line"/>
      <point x="186" y="356" type="line"/>
      <point x="183" y="472" type="line" smooth="yes"/>
      <point x="183" y="481"/>
      <point x="212" y="481"/>
      <point x="242" y="466"/>
      <point x="242" y="454" type="qcurve" smooth="yes"/>
      <point x="242" y="442"/>
      <point x="241" y="399"/>
      <point x="241" y="376" type="qcurve"/>
      <point x="261" y="426"/>
      <point x="348" y="484"/>
      <point x="452" y="484"/>
      <point x="509" y="425"/>
      <point x="516" y="387" type="qcurve"/>
      <point x="541" y="434"/>
      <point x="626" y="484"/>
      <point x="722" y="484"/>
      <point x="754" y="456" type="qcurve" smooth="yes"/>
      <point x="815" y="403"/>
      <point x="815" y="297" type="qcurve" smooth="yes"/>
      <point x="815" y="105" type="line"/>
      <point x="818" y="-1" type="line" smooth="yes"/>
      <point x="818" y="-10"/>
      <point x="790" y="-10"/>
      <point x="759" y="5"/>
    </contour>
  </outline>
</glyph>
<glyph name="arrowleft" format="1">
  <advance width="1000" height="1000"/>
  <unicode hex="2190"/>
  <outline>
    <contour>
      <point x="943" y="369" type="qcurve" smooth="yes"/>
      <point x="943" y="346"/>
      <point x="925" y="346" type="qcurve" smooth="yes"/>
      <point x="161" y="346" type="line"/>
      <point x="239" y="305"/>
      <point x="315" y="246" type="qcurve" smooth="yes"/>
      <point x="321" y="242"/>
      <point x="321" y="223"/>
      <point x="307" y="204"/>
      <point x="294" y="204"/>
      <point x="280" y="215"/>
      <point x="256" y="236"/>
      <point x="211" y="267"/>
      <point x="124" y="327"/>
      <point x="74" y="349" type="qcurve" smooth="yes"/>
      <point x="63" y="354"/>
      <point x="63" y="369" type="qcurve" smooth="yes"/>
      <point x="63" y="384"/>
      <point x="74" y="389" type="qcurve" smooth="yes"/>
      <point x="123" y="412"/>
      <point x="211" y="471"/>
      <point x="256" y="502"/>
      <point x="268" y="512" type="qcurve" smooth="yes"/>
      <point x="293" y="534"/>
      <point x="307" y="534"/>
      <point x="321" y="515"/>
      <point x="321" y="497"/>
      <point x="315" y="492" type="qcurve" smooth="yes"/>
      <point x="239" y="433"/>
      <point x="161" y="392" type="qcurve"/>
      <point x="925" y="392" type="line" smooth="yes"/>
      <point x="934" y="392"/>
      <point x="943" y="377"/>
    </contour>
  </outline>
</glyph>
<glyph name="arrowright" format="1">
  <advance width="1000" height="1000"/>
  <unicode hex="2192"/>
  <outline>
    <contour>
      <point x="75" y="346" type="line" smooth="yes"/>
      <point x="57" y="346"/>
      <point x="57" y="369" type="qcurve" smooth="yes"/>
      <point x="57" y="377"/>
      <point x="66" y="392"/>
      <point x="75" y="392" type="qcurve" smooth="yes"/>
      <point x="839" y="392" type="line"/>
      <point x="761" y="433"/>
      <point x="685" y="492" type="qcurve" smooth="yes"/>
      <point x="679" y="497"/>
      <point x="679" y="515"/>
      <point x="693" y="534"/>
      <point x="706" y="534"/>
      <point x="720" y="523"/>
      <point x="745" y="502"/>
      <point x="767" y="486" type="qcurve" smooth="yes"/>
      <point x="864" y="418"/>
      <point x="926" y="389" type="qcurve" smooth="yes"/>
      <point x="937" y="384"/>
      <point x="937" y="369" type="qcurve" smooth="yes"/>
      <point x="937" y="354"/>
      <point x="926" y="349" type="qcurve" smooth="yes"/>
      <point x="877" y="327"/>
      <point x="789" y="267"/>
      <point x="745" y="236"/>
      <point x="732" y="226" type="qcurve" smooth="yes"/>
      <point x="707" y="204"/>
      <point x="693" y="204"/>
      <point x="679" y="223"/>
      <point x="679" y="242"/>
      <point x="685" y="246" type="qcurve" smooth="yes"/>
      <point x="761" y="305"/>
      <point x="839" y="346" type="qcurve"/>
    </contour>
  </outline>
</glyph>
<glyph name="arrowdown" format="1">
  <advance width="1000" height="1000"/>
  <unicode hex="2193"/>
  <outline>
    <contour>
      <point x="500" y="811" type="qcurve" smooth="yes"/>
      <point x="523" y="811"/>
      <point x="523" y="793" type="qcurve" smooth="yes"/>
      <point x="523" y="29" type="line"/>
      <point x="564" y="107"/>
      <point x="623" y="183" type="qcurve" smooth="yes"/>
      <point x="628" y="189"/>
      <point x="646" y="189"/>
      <point x="665" y="175"/>
      <point x="665" y="164"/>
      <point x="654" y="148"/>
      <point x="633" y="124"/>
      <point x="602" y="79"/>
      <point x="542" y="-8"/>
      <point x="520" y="-58" type="qcurve" smooth="yes"/>
      <point x="515" y="-69"/>
      <point x="500" y="-69" type="qcurve" smooth="yes"/>
      <point x="485" y="-69"/>
      <point x="480" y="-58" type="qcurve" smooth="yes"/>
      <point x="458" y="-9"/>
      <point x="398" y="79"/>
      <point x="367" y="124"/>
      <point x="356" y="136" type="qcurve" smooth="yes"/>
      <point x="335" y="161"/>
      <point x="335" y="175"/>
      <point x="354" y="189"/>
      <point x="373" y="189"/>
      <point x="377" y="183" type="qcurve" smooth="yes"/>
      <point x="436" y="107"/>
      <point x="477" y="29" type="qcurve"/>
      <point x="477" y="793" type="line" smooth="yes"/>
      <point x="477" y="802"/>
      <point x="492" y="811"/>
    </contour>
  </outline>
</glyph>
<glyph name="arrowupdn" format="1">
  <advance width="1000" height="1000"/>
  <unicode hex="2195"/>
  <outline>
    <contour>
      <point x="337" y="151" type="line" smooth="yes"/>
      <point x="334" y="156"/>
      <point x="334" y="166"/>
      <point x="344" y="174" type="qcurve" smooth="yes"/>
      <point x="356" y="182"/>
      <point x="375" y="182"/>
      <point x="381" y="174" type="qcurve" smooth="yes"/>
      <point x="418" y="128"/>
      <point x="467" y="44" type="qcurve"/>
      <point x="476" y="27" type="line"/>
      <point x="476" y="670" type="line"/>
      <point x="467" y="653" type="line" smooth="yes"/>
      <point x="420" y="572"/>
      <point x="378" y="519" type="qcurve" smooth="yes"/>
      <point x="375" y="515"/>
      <point x="356" y="515"/>
      <point x="344" y="523" type="qcurve" smooth="yes"/>
      <point x="334" y="531"/>
      <point x="334" y="536" type="qcurve" smooth="yes"/>
      <point x="334" y="541"/>
      <point x="337" y="546" type="qcurve" smooth="yes"/>
      <point x="371" y="587" type="line" smooth="yes"/>
      <point x="397" y="624"/>
      <point x="428" y="668" type="qcurve" smooth="yes"/>
      <point x="458" y="712"/>
      <point x="481" y="761" type="qcurve" smooth="yes"/>
      <point x="485" y="772"/>
      <point x="517" y="772"/>
      <point x="522" y="759" type="qcurve" smooth="yes"/>
      <point x="530" y="744"/>
      <point x="595" y="626"/>
      <point x="664" y="546" type="qcurve" smooth="yes"/>
      <point x="667" y="541"/>
      <point x="667" y="536" type="qcurve" smooth="yes"/>
      <point x="667" y="531"/>
      <point x="657" y="523" type="qcurve" smooth="yes"/>
      <point x="645" y="515"/>
      <point x="626" y="515"/>
      <point x="620" y="523" type="qcurve" smooth="yes"/>
      <point x="579" y="574"/>
      <point x="533" y="653" type="qcurve" smooth="yes"/>
      <point x="524" y="670" type="line"/>
      <point x="524" y="28" type="line"/>
      <point x="533" y="43" type="line" smooth="yes"/>
      <point x="578" y="120"/>
      <point x="623" y="178" type="qcurve" smooth="yes"/>
      <point x="626" y="182"/>
      <point x="645" y="182"/>
      <point x="657" y="174" type="qcurve" smooth="yes"/>
      <point x="667" y="166"/>
      <point x="667" y="156"/>
      <point x="664" y="151" type="qcurve" smooth="yes"/>
      <point x="566" y="34"/>
      <point x="521" y="-64" type="qcurve" smooth="yes"/>
      <point x="517" y="-75"/>
      <point x="485" y="-75"/>
      <point x="481" y="-64" type="qcurve" smooth="yes"/>
      <point x="458" y="-15"/>
      <point x="397" y="72"/>
      <point x="371" y="110" type="qcurve"/>
    </contour>
  </outline>
</glyph>
<glyph name="uni2199" format="1">
  <advance width="1000" height="1000"/>
  <unicode hex="2199"/>
  <outline>
    <contour>
      <point x="480" y="160" type="line" smooth="yes"/>
      <point x="489" y="160"/>
      <point x="501" y="141"/>
      <point x="501" y="116"/>
      <point x="489" y="115" type="qcurve" smooth="yes"/>
      <point x="315" y="95"/>
      <point x="235" y="63" type="qcurve" smooth="yes"/>
      <point x="233" y="62"/>
      <point x="220" y="62"/>
      <point x="207" y="76"/>
      <point x="207" y="88"/>
      <point x="222" y="129"/>
      <point x="250" y="250"/>
      <point x="260" y="344" type="qcurve" smooth="yes"/>
      <point x="262" y="356"/>
      <point x="287" y="356"/>
      <point x="305" y="345"/>
      <point x="305" y="335" type="qcurve" smooth="yes"/>
      <point x="305" y="334" type="line" smooth="yes"/>
      <point x="303" y="303"/>
      <point x="278" y="191"/>
      <point x="267" y="154" type="qcurve"/>
      <point x="817" y="703" type="line" smooth="yes"/>
      <point x="821" y="707"/>
      <point x="836" y="707"/>
      <point x="852" y="691"/>
      <point x="852" y="673"/>
      <point x="847" y="668" type="qcurve" smooth="yes"/>
      <point x="299" y="122" type="line"/>
      <point x="362" y="141"/>
      <point x="466" y="159"/>
      <point x="479" y="160" type="qcurve" smooth="yes"/>
    </contour>
  </outline>
</glyph>
<glyph name="uni21B8" format="1">
  <advance width="1000" height="1000"/>
  <unicode hex="21B8"/>
  <outline>
    <contour>
      <point x="101" y="801" type="qcurve" smooth="yes"/>
      <point x="131" y="799"/>
      <point x="188" y="799" type="qcurve" smooth="yes"/>
      <point x="815" y="805" type="line" smooth="yes"/>
      <point x="828" y="805"/>
      <point x="891" y="808" type="qcurve" smooth="yes"/>
      <point x="892" y="808" type="line" smooth="yes"/>
      <point x="899" y="808"/>
      <point x="909" y="787"/>
      <point x="909" y="752"/>
      <point x="897" y="752" type="qcurve" smooth="yes"/>
      <point x="814" y="753" type="line"/>
      <point x="187" y="747" type="line" smooth="yes"/>
      <point x="124" y="747"/>
      <point x="106" y="744" type="qcurve" smooth="yes"/>
      <point x="105" y="744" type="line" smooth="yes"/>
      <point x="99" y="744"/>
      <point x="90" y="768"/>
      <point x="90" y="801"/>
    </contour>
    <contour>
      <point x="101" y="801" type="move" smooth="yes"/>
    </contour>
    <contour>
      <point x="891" y="808" type="move" smooth="yes"/>
    </contour>
    <contour>
      <point x="262" y="561" type="line" smooth="yes"/>
      <point x="286" y="474"/>
      <point x="294" y="403" type="qcurve"/>
      <point x="294" y="402" type="line" smooth="yes"/>
      <point x="294" y="393"/>
      <point x="275" y="381"/>
      <point x="248" y="381"/>
      <point x="247" y="392" type="qcurve" smooth="yes"/>
      <point x="227" y="570"/>
      <point x="195" y="646" type="qcurve" smooth="yes"/>
      <point x="194" y="648"/>
      <point x="194" y="661"/>
      <point x="208" y="675"/>
      <point x="221" y="675"/>
      <point x="239" y="668" type="qcurve" smooth="yes"/>
      <point x="318" y="639"/>
      <point x="478" y="622" type="qcurve" smooth="yes"/>
      <point x="488" y="621"/>
      <point x="488" y="595"/>
      <point x="476" y="575"/>
      <point x="467" y="575" type="qcurve" smooth="yes"/>
      <point x="466" y="575" type="line"/>
      <point x="407" y="582"/>
      <point x="308" y="607" type="qcurve" smooth="yes"/>
      <point x="291" y="611" type="line"/>
      <point x="835" y="68" type="line" smooth="yes"/>
      <point x="841" y="63"/>
      <point x="841" y="47"/>
      <point x="823" y="29"/>
      <point x="808" y="29"/>
      <point x="805" y="33" type="qcurve" smooth="yes"/>
      <point x="257" y="579" type="line"/>
    </contour>
  </outline>
</glyph>
<glyph name="uni21C4" format="1">
  <advance width="1000" height="1000"/>
  <unicode hex="21C4"/>
  <outline>
    <contour>
      <point x="64" y="556" type="qcurve" smooth="yes"/>
      <point x="64" y="579"/>
      <point x="82" y="579" type="qcurve" smooth="yes"/>
      <point x="839" y="579" type="line"/>
      <point x="761" y="620"/>
      <point x="685" y="679" type="qcurve" smooth="yes"/>
      <point x="679" y="684"/>
      <point x="679" y="702"/>
      <point x="693" y="721"/>
      <point x="706" y="721"/>
      <point x="720" y="710"/>
      <point x="745" y="689"/>
      <point x="789" y="658"/>
      <point x="877" y="598"/>
      <point x="926" y="576" type="qcurve" smooth="yes"/>
      <point x="937" y="571"/>
      <point x="937" y="556" type="qcurve" smooth="yes"/>
      <point x="937" y="541"/>
      <point x="926" y="536" type="qcurve" smooth="yes"/>
      <point x="877" y="514"/>
      <point x="789" y="454"/>
      <point x="745" y="423"/>
      <point x="732" y="412" type="qcurve" smooth="yes"/>
      <point x="707" y="391"/>
      <point x="693" y="391"/>
      <point x="679" y="410"/>
      <point x="679" y="429"/>
      <point x="685" y="433" type="qcurve" smooth="yes"/>
      <point x="761" y="492"/>
      <point x="839" y="533" type="qcurve"/>
      <point x="82" y="533" type="line" smooth="yes"/>
      <point x="73" y="533"/>
      <point x="64" y="548"/>
    </contour>
    <contour>
      <point x="934" y="203" type="qcurve" smooth="yes"/>
      <point x="934" y="180"/>
      <point x="916" y="180" type="qcurve" smooth="yes"/>
      <point x="159" y="180" type="line"/>
      <point x="237" y="139"/>
      <point x="313" y="80" type="qcurve" smooth="yes"/>
      <point x="319" y="76"/>
      <point x="319" y="57"/>
      <point x="305" y="38"/>
      <point x="292" y="38"/>
      <point x="278" y="49"/>
      <point x="254" y="70"/>
      <point x="209" y="101"/>
      <point x="122" y="161"/>
      <point x="72" y="183" type="qcurve" smooth="yes"/>
      <point x="61" y="188"/>
      <point x="61" y="203" type="qcurve" smooth="yes"/>
      <point x="61" y="218"/>
      <point x="72" y="223" type="qcurve" smooth="yes"/>
      <point x="121" y="246"/>
      <point x="209" y="305"/>
      <point x="254" y="336"/>
      <point x="266" y="346" type="qcurve" smooth="yes"/>
      <point x="291" y="368"/>
      <point x="305" y="368"/>
      <point x="319" y="349"/>
      <point x="319" y="331"/>
      <point x="313" y="326" type="qcurve" smooth="yes"/>
      <point x="237" y="267"/>
      <point x="159" y="226" type="qcurve"/>
      <point x="916" y="226" type="line" smooth="yes"/>
      <point x="925" y="226"/>
      <point x="934" y="211"/>
    </contour>
  </outline>
</glyph>
